<svg id="Ebene_4" data-name="Ebene 4" xmlns="http://www.w3.org/2000/svg" viewBox="0 0 346 852.2"><defs><style>.cls-1{fill:#063449;}.cls-2{fill:#8cf4e9;}.cls-3{fill:#3a94cc;}.cls-4{fill:#174654;}.cls-5{fill:#c9f6ff;opacity:0.8;}.cls-12,.cls-5,.cls-6,.cls-7,.cls-8,.cls-9{stroke:#000;stroke-miterlimit:10;}.cls-12,.cls-5,.cls-6,.cls-7,.cls-8{stroke-width:4px;}.cls-6{fill:#97ff94;}.cls-7{fill:#00e983;}.cls-8{fill:#f15a24;}.cls-12,.cls-9{fill:none;}.cls-9{stroke-width:2px;}.cls-10{fill:#3fa9f5;opacity:0.64;}.cls-11{fill:#3b9edb;}</style></defs><title>DNA</title><polygon class="cls-1" points="173 346.87 207 346.87 289.44 237.93 176 269.87 174 269.87 173 346.87"/><polygon class="cls-2" points="173 346.87 139 346.87 56.56 237.93 170 269.87 172 269.87 173 346.87"/><polygon class="cls-3" points="54.5 124.36 172.5 2.37 290.5 124.36 175.5 145.37 168.5 145.37 54.5 124.36"/><polygon class="cls-4" points="171.5 1.86 289.5 123.86 174.5 144.87 171.5 1.86"/><polygon class="cls-5" points="173 2.87 55 123.86 55 235.87 139 346.87 172 346.87 173 346.87 174 346.87 207 346.87 291 235.87 291 123.86 173 2.87"/><polygon class="cls-6" points="174 346.87 173 346.87 172 346.87 141 346.87 141 360.35 141 577.87 173 577.87 205 577.87 205 360.35 205 346.87 174 346.87"/><path class="cls-7" d="M534,405H466c-33,0-90,67-75,57,13.16-8.77,79-50,87-44s22,70,22,70,14-64,22-70,73.84,35.23,87,44C624,472,567,405,534,405Z" transform="translate(-327 -58.14)"/><polygon class="cls-8" points="9 688.87 2 851.87 29 694.87 149 607.87 128 607.87 9 688.87"/><polygon class="cls-8" points="95 689.87 107 851.87 117 693.87 171 607.87 149 607.87 95 689.87"/><polygon class="cls-8" points="344 851.87 337 688.87 218 607.87 197 607.87 317 694.87 344 851.87"/><polygon class="cls-8" points="229 693.87 239 851.87 251 689.87 197 607.87 175 607.87 229 693.87"/><rect class="cls-7" x="121" y="577.86" width="104" height="30" rx="12" ry="12"/><polyline class="cls-9" points="291 124.86 175.82 145.23 291 236.87 175.82 269.51 170 269.51 54.82 236.87 170 145.23 54.82 124.86"/><line class="cls-9" x1="173" y1="2.86" x2="173" y2="346.86"/><path class="cls-10" d="M584,84" transform="translate(-327 -58.14)"/><path class="cls-11" d="M573,79" transform="translate(-327 -58.14)"/><polygon class="cls-12" points="173 2.87 55 123.86 55 235.87 139 346.87 172 346.87 173 346.87 174 346.87 207 346.87 291 235.87 291 123.86 173 2.87"/></svg>