<svg id="Ebene_4" data-name="Ebene 4" xmlns="http://www.w3.org/2000/svg" viewBox="0 0 630.65 885.5"><defs><style>.cls-1{fill:#00dbff;opacity:0.1;}.cls-1,.cls-2,.cls-3{stroke:#11006a;stroke-miterlimit:10;stroke-width:7px;}.cls-2{fill:none;}.cls-3{fill:#2e3192;opacity:0.9;}.cls-4{fill:#5d70ce;opacity:0.7;}.cls-5{fill:#11006a;}</style></defs><title>erlenmeyer</title><path class="cls-1" d="M607.5,439.5v-312s41-3,41-31,2-35-44-35h-206c-46,0-44,7-44,35s41,31,41,31v312l-205,385,77,115h468l77-115Z" transform="translate(-185.93 -57.5)"/><path class="cls-2" d="M607,439V127s41-3,41-31,2-35-44-35H398c-46,0-44,7-44,35s41,31,41,31V439L190,824l77,115H735l77-115Z" transform="translate(-185.93 -57.5)"/><path class="cls-3" d="M732.66,675.5,812,824.5l-77,115H267l-77-115,79-148.33,231.84-.33,17.37,0C580,689.5,642,687.5,704.49,675.57c5.92,0,11,0,15.19-.05Z" transform="translate(-185.93 -57.5)"/><path class="cls-4" d="M645.65,755.62C644,769,634,783,619,780c-13-2-21-14-19-27,3-18,27-28,40.15-13.52A20.91,20.91,0,0,1,645.65,755.62Z" transform="translate(-185.93 -57.5)"/><path class="cls-4" d="M620.16,847.43C617,863,610,878,596,888c-20,14-46-1-53.65-21A42.54,42.54,0,0,1,565,811.34c20-8.34,47-.34,54.09,21.34A32.72,32.72,0,0,1,620.16,847.43Z" transform="translate(-185.93 -57.5)"/><circle class="cls-4" cx="205.07" cy="666.5" r="9"/><path class="cls-2" d="M566,517" transform="translate(-185.93 -57.5)"/><path class="cls-5" d="M502,230.5h78c6.43,0,6.45-10,0-10H502c-6.43,0-6.45,10,0,10Z" transform="translate(-185.93 -57.5)"/><path class="cls-5" d="M499.5,295.5h78c6.43,0,6.45-10,0-10h-78c-6.43,0-6.45,10,0,10Z" transform="translate(-185.93 -57.5)"/><path class="cls-5" d="M500,360.5h78c6.43,0,6.45-10,0-10H500c-6.43,0-6.45,10,0,10Z" transform="translate(-185.93 -57.5)"/><path class="cls-5" d="M502.5,425.5h78c6.43,0,6.45-10,0-10h-78c-6.43,0-6.45,10,0,10Z" transform="translate(-185.93 -57.5)"/><path class="cls-5" d="M503,490.5h78c6.43,0,6.45-10,0-10H503c-6.43,0-6.45,10,0,10Z" transform="translate(-185.93 -57.5)"/><path class="cls-5" d="M500.5,555.5h122c6.43,0,6.45-10,0-10h-122c-6.43,0-6.45,10,0,10Z" transform="translate(-185.93 -57.5)"/></svg>