<svg id="Ebene_1" data-name="Ebene 1" xmlns="http://www.w3.org/2000/svg" viewBox="0 0 743.8 743.8"><title>play</title><path d="M500.65,872.9c-205.38,0-371.71-166.84-371.57-372.58.14-205,167-371.33,372.43-371.22S873.12,296.24,872.88,502.44C872.64,706.72,705.62,873,500.65,872.9ZM692.41,500.83c-.31-12.48-5.76-22-15.93-29q-57.19-39.35-114.37-78.71Q510.06,357.27,458,321.45c-7.53-5.19-15.68-8.26-24.85-7-19.06,2.68-31.14,16.76-31.15,36q0,150,0,300c0,14.57,5.51,26,18.44,33,13.15,7.1,25.87,5.22,38-3.23,22.69-15.78,45.51-31.36,68.28-47l149.77-103C686.82,523.11,692.26,513.37,692.41,500.83Z" transform="translate(-129.08 -129.1)"/></svg>