<svg id="Ebene_1" data-name="Ebene 1" xmlns="http://www.w3.org/2000/svg" viewBox="0 0 924 924"><defs><style>.cls-1{fill:#2cf22c;stroke:#000;stroke-width:5px;}.cls-1,.cls-4{stroke-miterlimit:10;}.cls-2{opacity:0.58;}.cls-3{fill:#3bcc3b;}.cls-4{fill:none;stroke:#90e290;stroke-width:18px;}.cls-5{fill:#5dfc3b;}</style></defs><title>RNA</title><path class="cls-1" d="M930.5,467.5c-17.07,23-45.69,3-57.57-7.08a372.87,372.87,0,0,0-17.72-80.91c8.78-9.26,20.63-15.61,34.45-7.49,39.45,23.16,13.45-39.51,13.45-39.51S877.3,270.19,866,315c-3.93,15.58-16.85,19.45-29.68,19.08a374.79,374.79,0,0,0-44.67-69.75c1.3-15.43,7.38-49.67,35.71-45.73,47.69,6.64-2.83-43.84-2.83-43.84s-50.2-50.2-43.13-2.12c4.16,28.32-30.25,34.4-45.74,35.71A374.37,374.37,0,0,0,666,163.66C665.63,150.89,669.51,138,685,134c44.27-11.51-18.42-37.45-18.42-37.45S604.3,70.71,628,110.34c8.24,13.79,1.85,25.66-7.46,34.46a373.28,373.28,0,0,0-80.94-17.73c-10-11.88-30-40.5-7.08-57.57,39-29-32-29-32-29s-71.42,0-33,29c22.81,17.24,2.93,45.72-7.07,57.57a372.83,372.83,0,0,0-80.92,17.72c-9.26-8.78-15.61-20.63-7.49-34.45,23.16-39.45-39.51-13.45-39.51-13.45S270.19,122.7,315,134c15.58,3.93,19.45,16.85,19.08,29.68a374.38,374.38,0,0,0-69.74,44.67c-15.49-1.31-49.9-7.39-45.74-35.71,7.07-48.08-43.13,2.12-43.13,2.12s-50.52,50.48-2.83,43.84c28.33-3.94,34.41,30.3,35.71,45.73a374.79,374.79,0,0,0-44.67,69.75c-12.83.37-25.75-3.5-29.68-19.08-11.27-44.78-37.08,17.54-37.08,17.54s-26,62.67,13.45,39.51c13.82-8.12,25.67-1.77,34.45,7.49a372.87,372.87,0,0,0-17.72,80.91c-11.88,10-40.5,30-57.57,7.08-29-39-29,32-29,32s0,71.42,29,33c17.24-22.81,45.72-2.93,57.57,7.07a373.24,373.24,0,0,0,17.73,80.95c-8.8,9.31-20.67,15.7-34.46,7.46-39.63-23.68-13.82,38.63-13.82,38.63S122.46,729.3,134,685c4-15.52,16.92-19.4,29.69-19.06a374.37,374.37,0,0,0,44.66,69.72c-1.31,15.49-7.39,49.9-35.71,45.74-48.08-7.07,2.12,43.13,2.12,43.13s50.48,50.52,43.84,2.83c-3.94-28.33,30.3-34.41,45.73-35.71a374.79,374.79,0,0,0,69.75,44.67c.37,12.83-3.5,25.75-19.08,29.68-44.78,11.27,17.54,37.08,17.54,37.08s62.67,26,39.51-13.45c-8.12-13.82-1.77-25.67,7.49-34.45a372.83,372.83,0,0,0,80.92,17.72c10,11.85,29.88,40.33,7.07,57.57-38.42,29,33,29,33,29s71,0,32-29c-23-17.07-3-45.69,7.08-57.57a373.28,373.28,0,0,0,80.94-17.73c9.31,8.8,15.7,20.67,7.46,34.46-23.68,39.63,38.63,13.82,38.63,13.82S729.3,877.54,685,866c-15.52-4-19.4-16.92-19.06-29.69a374.77,374.77,0,0,0,69.73-44.66c15.43,1.3,49.67,7.38,45.73,35.71-6.64,47.69,43.84-2.83,43.84-2.83s50.2-50.2,2.12-43.13c-28.32,4.16-34.4-30.25-35.71-45.74A374.37,374.37,0,0,0,836.34,666C849.11,665.63,862,669.51,866,685c11.51,44.27,37.45-18.42,37.45-18.42S929.29,604.3,889.66,628c-13.79,8.24-25.66,1.85-34.46-7.46a373.24,373.24,0,0,0,17.73-80.95c11.85-10,40.33-29.88,57.57-7.07,29,38.42,29-33,29-33S959.5,428.5,930.5,467.5Z" transform="translate(-38 -38)"/><g class="cls-2"><path class="cls-3" d="M779,426.08c1.55-.13,5-.82,4.24-1.07l-5.92.79Z" transform="translate(-38 -38)"/><path class="cls-3" d="M789.31,421.62A67.79,67.79,0,0,0,776,423.44c5.72-.63,3.39-.09,10.19-.87.76.25-1.75,1-3.92,1.33,1.53-.15-1.17.8,2.55.33,4.44-1.29,4.49-2,.62-1.91A29.61,29.61,0,0,1,789.31,421.62Z" transform="translate(-38 -38)"/><path class="cls-3" d="M788.86,382.31l-.6.45A1.41,1.41,0,0,0,788.86,382.31Z" transform="translate(-38 -38)"/><path class="cls-3" d="M783.69,358.47c.2.12.77,0,1.27-.23A2.36,2.36,0,0,0,783.69,358.47Z" transform="translate(-38 -38)"/><path class="cls-3" d="M788.17,352.06a2.31,2.31,0,0,0-.27.39C788.36,352.15,788.6,351.94,788.17,352.06Z" transform="translate(-38 -38)"/><path class="cls-3" d="M788.86,382.31l1.58-1.19C788.58,381.68,789.17,381.88,788.86,382.31Z" transform="translate(-38 -38)"/><path class="cls-3" d="M774.18,419.42a7.48,7.48,0,0,0,1.6,0,4,4,0,0,1-.68-.17Z" transform="translate(-38 -38)"/><path class="cls-3" d="M796.62,391.12l.06.19c.67-.13,1.47-.3,2.37-.5Z" transform="translate(-38 -38)"/><path class="cls-3" d="M799.63,398.89c.17-.24-4.75,1-6.91,1.44a13.91,13.91,0,0,1,3.47-.47C797.12,399.62,798.23,399.31,799.63,398.89Z" transform="translate(-38 -38)"/><path class="cls-3" d="M793.91,413.54l.72.08C794.41,413.6,794.19,413.55,793.91,413.54Z" transform="translate(-38 -38)"/><path class="cls-3" d="M796,385.12c.71-.23,1.34-.45,1.71-.6Q796.81,384.8,796,385.12Z" transform="translate(-38 -38)"/><path class="cls-3" d="M638.05,237.18l.47-.76C638.22,236.83,638,237.13,638.05,237.18Z" transform="translate(-38 -38)"/><path class="cls-3" d="M643.47,211.06l.25-.16,1.45-2.44Z" transform="translate(-38 -38)"/><path class="cls-3" d="M790.89,342.33s0,.05-.07.08C791.43,342.36,791.29,342.29,790.89,342.33Z" transform="translate(-38 -38)"/><path class="cls-3" d="M751.24,282.27c-3.15,3.34-5.43,2.42-8.75,6.38C744,287.37,749.48,284.83,751.24,282.27Z" transform="translate(-38 -38)"/><path class="cls-3" d="M774.79,419.09c-.07-.09-.14-.18-.11-.29C774.55,419,774.59,419.06,774.79,419.09Z" transform="translate(-38 -38)"/><path class="cls-3" d="M742.49,288.65l0,0-.31.39Z" transform="translate(-38 -38)"/><path class="cls-3" d="M780.25,327.38c-.77.44-1.34.82-1.88,1.18A17.61,17.61,0,0,0,780.25,327.38Z" transform="translate(-38 -38)"/><path class="cls-3" d="M779.71,342.46l.47-.59C779.82,342.18,779.72,342.35,779.71,342.46Z" transform="translate(-38 -38)"/><path class="cls-3" d="M770.77,324.61c.26-.34.85-.73.14-.62l-.51.36C771.05,324.1,771.39,324.05,770.77,324.61Z" transform="translate(-38 -38)"/><path class="cls-3" d="M767.23,318.47c-.32.22-.55.41-.82.62.12,0,.23,0,.35.06Z" transform="translate(-38 -38)"/><path class="cls-3" d="M655.22,245.77c.72-1.23,1.57-2.55,2.43-3.85C655.62,244.89,654.11,245.4,655.22,245.77Z" transform="translate(-38 -38)"/><path class="cls-3" d="M777,418.84a9.64,9.64,0,0,1-2.18.25,1.27,1.27,0,0,0,.31.16A15.83,15.83,0,0,0,777,418.84Z" transform="translate(-38 -38)"/><path class="cls-3" d="M735.62,343.51l.2-1.24A1.29,1.29,0,0,0,735.62,343.51Z" transform="translate(-38 -38)"/><path class="cls-3" d="M690.08,274.68l-.59.27C689.47,275.1,689.63,275.05,690.08,274.68Z" transform="translate(-38 -38)"/><path class="cls-3" d="M733.68,340.1a20.53,20.53,0,0,0,2.76-2.21c-.37.16-.67.28-1.2.54Z" transform="translate(-38 -38)"/><path class="cls-3" d="M657.68,241.88l0,0Z" transform="translate(-38 -38)"/><path class="cls-3" d="M645.38,247.93c.67.65,4-5.1,6.39-8.13,2-.89-2.36,4.33-4,7.34,1.57-1,5.53-5.73,5.82-5.21a16.59,16.59,0,0,1-1.63,2.36c3.67-3.88,2,1.06,6.58-3.82-.29.52-.59,1-.87,1.41,1.83-2.78,3.8-5.54,5.23-7.47.43.16,3.16-2.92.74.69-.15-.26-1.2,1.14-2.11,2.17L663,236c-3.34,5.29-1.8,1.38-4.51,5.12,1.92-1.13,5.85-4.69,5.38-2.87-3.52,5-2.54.73-5,5.64l.52-2.49c-5,8.24-.12-.91-5.61,7.84,0,2.21,3.11-1.67,3.11.59,2.28-2.53,2.93-4.09,5.21-6.62,5.24-3.64-8.06,13.22-2,7.61,2.76-3,7.59-9.05,5.91-5.17l-4.5,5.26c.62,1.35,6.69-7.38,4.94-2.84-1.87,2-2.23,1.15-2.58,1.92-2.65,4.86,2.91-2.69,3.47-2.25l-3.67,4.9c1.69.1,5.68-2.38,7.64-2.26a23.39,23.39,0,0,0-3.53,4.36c1.74-.58,2.46.22,2.63,1.65a19.85,19.85,0,0,1-.76,5.58l4-3.55a9.6,9.6,0,0,1-2.11,2.68c-.76,2,2.2-2.52,3.82-3.86.56,0-1.56,2.67-2.79,3.7,3.88-2.55,9.17-4.78,6.46.37l-1.25,1c-.63,2.3,8.14-7.27,5.62-2.93l-.78.57c.13,1.63,1.49,2,2.33,2.81s1.06,2.22-1,5.73c5.49-5.28-.69,4.07,6.76-3.49-2.68,4.74-4.27,5.83-5.42,9.67,0,.69,5.18-4.21,6.41-4.56l-3.89,4,4.7-3.54-4.36,5,1.42-.6a13.3,13.3,0,0,1,2.56-3.21c2.44-1.13-1.15,4.29-3.16,6.29l4.88-1.79a18.67,18.67,0,0,1-3.66,2.61c4.87-3.16-4,4.21.42,1.32a42.61,42.61,0,0,1,3.25-3c-2,2.72-1.28,3.61.34,3.28L691.23,283c.35,1.82,3.57,1.18,4.71,2.54.89-1.67,5.86-6.06,6.69-6.1l-4.17,4.12c2.9-2.2,1.25-1.91,5-4.38,0,1-4.62,4.83-6.28,5.84l2.05-.78c-1.27,1.22-2.08,1.7-3.76,3.17,2.92-2.21-3.44,5,1.58,1.07l-1.27,1.2c1.14,1.32,3.19.56,4.39,1.43,3.83-3.31,3.36-2.16,6.75-4.52-.53,1.9-2.79,5.41-1.66,6.12,2.5-.93,3.44-2.56,6-4.19-3.47,3-2.33,3.75-5.29,5.36,1.56.72,1.95.92,6.1.08a19.69,19.69,0,0,1,3.1-3c.82-.2-1,1.86-2.72,3.22l-.43.22c3.39-1.32,1.61,1.8,0,4.62s-3,5.32,1.34,3.07l-.44.21,5.05-1.6c-.14,1.17-3.05,1.71-5,3.95,7.28-3.09.93,3.14,6,1.36-5.09,4.56-4.26,5.28-2.89,5.7s3.29.54.24,3.72l2.56-1.93c2.82-1.48-1.18,1.48-1.6,2.15,2-1.47,2.07-2,3.65-2.83,2.71.34,2.77,2.65,2.16,5.36s-2,5.88-2.16,8.2c0,1.58,14.33-8.37,8.87-2.77l-5.28,2.8c3.76-.78,4.51.44,5.1,1.73s1,2.69,4.24,2.3c-1.26.57-2.78,1.49-2.9,1.25-3.41,2.72.88,1.92,3.92.14-.13.57-2.69,1.71-4.1,2.85-1.91,1.78,5.48-1.56,1.93.88a4.86,4.86,0,0,1-1.63.65c2-.74.41,1.76,4.54-1.05-1.54,2.06,2.92.58.77,2.75,5.12-2.28-1.45,2.82,5.51-.89-7.15,3.92-4.81,4.72-1.19,3.48-2.26,1-2,1.72-5.09,3.13.44.59,2.07.47,5.69-1.64-4,2.92-1.94,2.59-.23,2.37s3.09-.32-2.26,2.92c4.87-.11,8.46.37,11.09,1.31-7.3,3.56-1.74-1.6-9.31,2.33,3.83.11,10.59-2,9.7.55-.77.92-3.29,1.3-4.61,1.77,2,.08,2.15,1,2.46,1.83s.75,1.56,3.1,1.39a8.92,8.92,0,0,1-2.14.61c.37.19-.77,1.2,2.56-.39l-1,.13c4.63-2.76,10.7-3.5,13.3-4.61-9.85,3.9-1.72,2.66-14.24,7.4a18.35,18.35,0,0,0,4.65-1.64c-.52.59-1.79,1.28-4.48,2.15,2.31.24,5.72-1.75,6.09-.73-1.64.73-2.36.81-4.32,1.57,3.4-.93,6.82-1.84,5.82-.39-1,.39-2.25,1-2.34.79,1.14,1.2,9.62-1.23,7.26,1.7-7.36,2.57-2.11,1.54-8.26,4.23l2.2.08,2.87-1.61c.19.8,5-.39,3.2,1.11l-2.78.49,1.73.94,2-1.77c3.5-.53,7.83-3.31,6.5-1.56-.71.05.24.83-3.28,2.71h0c2.14-.41,4.39-.84,3.06.36-1.94.94-7,2.61-8.25,3.23,5.37-1.69,2.14,1.22,7.91-.46A50.9,50.9,0,0,0,764,372.7l4.37-1.33a14.4,14.4,0,0,1-4.51,2.14c-.36,1.37,7.83-3.39,4.9-.79a17.16,17.16,0,0,1-1.73.36c-1.3,1.95,3.68,1.47,2,3.43-6.22,2.67-2-.45-7.15,1.91.9.62,3.14.79,5,1.1s3.41.77,2.93,1.87l.6-.56c9.1-2.89-4,2.8.49,2.17a29.69,29.69,0,0,0-4.08,1.15c-1.09,1.63,3,1.56,6.41,2.39l-2.41.54c-1.86,1.35-.62,2.16-1.45,3.22,2.4-.52,2.16,0,5.48-1.3-6.29,3.22-4.17,3.7-1.75,4.12s5.07.78-.26,3.41a3.71,3.71,0,0,0-2.16.22l2.62,1.09c4-1.27,2.36-.91,5.38-2.17,2.43-.46,4.4-.48,4.52,0-2.87-.05-6.43,1.82-8.57,2.78,1.21-.4,2.59-.66,3.83-1-6.88,2.9,8.1-2.1,3.64.5l-2.12.52c1.2.17,4.1-.15,3.63.52-4.59,1.47-2.3.09-6.13,1.09.45.63,9.18-.95,4.72.93-1.38,0-1.52-.39-2.88-.35-5.27,2.16-3.87,1.86-4.6,2.6l.11-.08-2.16,1.82,1.4-.68c12.38-2.26,2.7,1.2,11,.4-7.85.71-4.41.9-9.72,2.12a17.1,17.1,0,0,1-4.44,1.77c4.41-.5-3.13,1.72,3.33,1-1.69.45,0,.63-4.33,1.53,1.53.39,2.92-.87,5.08-1.33,3.08-.15,1.46.94.1,2s-2.42,2.11,1.76,2c3.59.66,9.43-.33,12.59.41a19.82,19.82,0,0,1-6.33,1c-2.38,1.26-1.81,1.69.3,2a23.06,23.06,0,0,0-4.65,1.17c.56.44,6.33-.91,3.94.31-1.94.27-5,.73-7,.87,1.71.3,5.06.28,6.75.63-3,.77-4.64.5-6.64.67,1.5.45,3.11,1.34,7.91.67l1.6-.8c.29.23-4.06.92-5,.89-3.85.09,1.46-1.23,3.18-1.61l1.21.26c10-2.47-2-1.6-1.63-2.64l7.42-1.1-6.29.26c1.87-.6,5.93-1.6,7.13-1.35,3.48-1.45-2.74-.07,1.18-1.52a3.88,3.88,0,0,1,1.28-.24l-2.33-.23c1.57-.19,5.15-1.22,4.18-.56,4-2.17-5.91-.82-.46-2.5h.47c-2.83-1.17-5.4,1-12,1.17l13.05-3.87-5.4,1.06c.16-.22.49-.67,2.64-1.1-3.8.19-2.3.65-5.84,1.08,4.73-2-2.83-1.76,5.64-4-4.15.68-2.93,1.55-6,1.35,9.09-2.48-1.84-.65,2.16-2.44,4.77-.94,2.47.42,6.48-1.4-8.1,1.51,1.34-2-.36-2.24-6.35,1.59-3-.75-5.42-1.3,2.14-.49,2.92-3,4.92-4.65l1.07-.26c-6.43,1.55-5.5.17-7-.22a28.18,28.18,0,0,1,7.17-1.39l-.23-.73c-2.08.41-3.22.48-4.07.22l4.8-1.17c-.54-.92-6.09-.35-3.31-2.52-4.43,1.26-12,4.6-15.35,4.24,2.38-.76,6.44-2,7.53-2-.34,0-2.11.21-1.16-.32l4.18-.69c1.58-1.08-3.45.72-3.22.17,3.41-1,2.32-1.06,5-1.81.37,0-1.27.81.12.58.44-.69,2.26-1.91,4.77-2.9-1.92.64-4.58,1.4-5.14,1.17-.56-.88,4-1.58,5.54-2.69-2.43.5-.19-.88-5.27.7-.06-.29,2.29-1.09,3.63-1.63-2.4.21-1.4-2.12-6.6.17l-.32.24c-.11,0-.12,0-.24,0h0c-5.55,0,1.77-4.26-.91-5.15l1.68-.56c-2.23-.3-1.83-1.74-5.66-1.15-.08-.28,2.86-1.74,4.89-2.32-1.51-.28-3.38.3-1-1.72,3.19-.32,2.5-1.18,2.41,0,1.11-1.46,3.68-2.65-1.27-2,4.41-1.21,5.11-2.68,3.66-2.66l-2.81,1.79c-.81-.28-.6-.85-.41-1.43l5.71-1.84c3-2.25-.22-2.07-2.86-2s-4.67,0,.72-2.95c-4.1,1-2.34,2.12-7.08,3.44.41-1.16,8.05-5.24,8-5.53,2.59-2.47-8.58,2.08-7,0-1.91,1-7.14,3.24-9.36,3.08.4-1.15,7.87-4.47,9.68-4.56.25.15-.34.51-1,.77a6.29,6.29,0,0,0,3.84-1.2l-2,.69c1.85-1.26,1.16-2.41,4.51-3.46a5.57,5.57,0,0,0-4.18,2c2.4-2.33-.58-1.84.8-3.79-1,.64-3.24,1.79-3.3,1.6,1.67-2.72-4.07.84-5.43.09,2.7-1.93,7.24-2.85,4.22-2.91,1.71-1.58,5.13-2.41,6.86-2.82-4.26.58,1.58-3.08,2-4l1.83-.13c-1.09.07-1.19-.22-1.31-.51L789,345.82a3.68,3.68,0,0,1,2-1.64c-2.71.81-6.37,3.15-10.17,4.05,1.79-1.32-2.71-.34,2.39-2.83-1.14,2.16,5.11-2.5,6.48-1.71-.72.05-.82-.23-.29-.88a4.24,4.24,0,0,1,1.43-.48c4-3.43-6.12,2-6.61.63,3-1.16,5.36-2.86,4.64-2.8.19.59-4.72,2.5-7.17,3,1.86-1.92-2.1-.16-2-.73l-.83,1c-3,1.18-2.79.58-4,.42,2.22-1.12,1.79-.19,2.68-.87-5.37,1.74,4.58-4,.74-3.3,1.75-1.38,5.39-2.65,6.54-3.67-4.22.75,3.36-3.05-.27-2.65-3.69,2.21-2.72,1.79-6.87,2.89l3.63.44-6.2,1.61c.22.55,3-.08,2.51.56-3.43,1-2.44.59-5.51,2.4,5.42-3.54-4.1.24-.62-2.5l9.54-4.69c3.58-3.41-6.05.17-4.51-2.67l-1.37,1.37c-3.88,1.7-1.05-.74-2.85-.49a37.82,37.82,0,0,0,6-3.75c-2.33,1.24-.42-1.33-6.78,1.82l3.76-2.91c1-2.24-9.72,3.24-9.29,1.43,3.59-1.45,5.51-3.23,8.39-3.68-.19-.44.18-1.14-2,0,1.82-1.32-4.82,1.11-2.06-.9-1.46.58-4.75,2.31-4.74,1.7a16.43,16.43,0,0,1,1.55-.85c-1.54.84-2.5.44-5.71,2.74,4.49-3.3,3.79-4.09,3-4.75s-1.85-1.19,2-4.1a8.71,8.71,0,0,1-3.87-1.48c.94-.49,1.53-.89,1.3-.55,2.19-2.8-9.19,4.49-6.75,1.37,4.56-3.58,3.06-.92,4.7-2.43,9.94-6.17-2.27-.72,3.07-5.09l.72-.15c3-2.73-4.74.68-4.65-.81a17.11,17.11,0,0,0,1.51-.92c-5.49,2.38-8,2.11-10.08,2,4.07-2.14,2.35-.84,6.15-3.52-.85-.09-6.23,4.12-7.9,4,1.93-1.63,3.36-3.44,7.48-6.2l.78.7c5.13-3.89-.91-1-.26-2l2.39-1.46c-1.63-.82-7.56,3-8,1.38l-1.68,1.31c-6.34,3.11,2.87-2.8-2-.67l5.76-4.16c-1.76.44-6.85,2.08-8.53,2,4.68-2.47,7.61-2.92,10.64-4-.28-.53-1.56-1.41-4.63.3.7-.18,2.31-.9,1.53-.09-5,2.51-7.81,3.28-8.35,2.25,11.46-7.64,1.2-4.52,9.4-11.34-5.42,1.24-.75-4.67-2.91-6.22-8.1,7.06-.67-.4-9.43,6.25-.9,0-.88-.31-.34-.77l4.24-5.32c2.32-2.26,2.27-1,4.21-2.54-.08-1.53,3.42-3.23,5.24-5.68-3,2.51-4.76,3-4,1.54l-3.44,3.89c-5.71,2.13,6.44-6.83.75-4.77l3.08-1.65c-1.08.25-1.58-.45-2.75-.63s-3.06.22-6.81,2.61c.9-.91,3.12-2.95,4-3.12-.39-2.57-10.43,2.11-7.28-2.63l2.18-1.57c-.86.17-4.35,2.66-2.59.54.88-.69,2.18-1.58,2.18-1.83-.86.42-4.32,2.17-3.46.75l2.62-1.58c1.32-3.94-7.75,2.2-10.25,2.06,6-5.14,6.91-8.16,7.29-9.63l.87-.71c-1-2.53-7.83,1.17-11.66,1.58,5.39-6.83-.61-6,1.33-11a20.29,20.29,0,0,1-5.37,4.45c.8-1.51-5,2.7.33-2.26l0,.24c4.87-5.22,2.76-4.77,2.26-5.51l-6.92,6.52c4.16-5.6,2.17-5.78.18-5.71s-4,.39-.1-4.45c-2.07,1.3-2.53.81-4.58,2.13l3.58-3.63c-.18-2-.29-3-2.49-3.45l2.79-2.37c-.55-1-11.08,9.71-12,9.27l5-5.75c-1.35-1.21,1.7-7.35-4.32-3.48.78-.8,2.29-2.39,2.73-2.42-.52-.72.88-6.09-5.84,1.91,4.52-5.09-1-1.76-3.7-.15l3.42-3.67c-4.85,4.26-6,5.57-8,6.16.22-.68,2.45-3.2,1.88-2,1-2.59-3.64,3.13-2.71.38l2.39-2.16c-.45-.91-1.52.44-4.32,2.95-1.74,1.15-.5-2.12,2.31-5.69-1.87,2-4.63,4.53-4.2,3.17a12.75,12.75,0,0,1,2.28-2.38c1-3.67-5.52,3-3.22-1.44a20.34,20.34,0,0,0,1.76-2.43c.9.87,1.52,1.7,1.21,1.93,3-3.56,2.66-4.83,7.38-9.23-2.89,2.15-8.79,7.15-8.19,4.85.25-.38.49-.75.91-1.32l.41-.34c.1-.5-.33-.3-1,.19.23-.79.42-1.35.22-1.6,2.31-3.05.36-2.34.08-2.8-3.12,4-3.14,2.94-5.25,6.59a.73.73,0,0,1,.85-.37,1.34,1.34,0,0,0,.49-.28l-.3.33a5.24,5.24,0,0,1,1.19.51c-1.92,1.75-3.59,3.19-2.27.65l-5.63,6c3.87-5.93,5.17-9.76,7.7-13.3-3,1.27-4.05-.81-10.55,6.17-1.08.71,1.26-2.48,2-3.77.77-.61.92-.3,1.86-1.31-2.17,1.41-2.62-.84-6.75,4.35.93-3.07,4.15-4.53,2.3-4.56l1.38-1.52c1.93-5.12-1.61-2.43-4.88,0s-6.3,4.55-3.71-1.95a8.73,8.73,0,0,1-1,2.13c.21-3.52-2.18-3.48-4.28-3.76s-3.9-1-2.89-5.88c.15-2.17-2.26,1.33-4.54,3.71l2.75-4.7-4.3,4.72c-1.88,1.53-.65-1.63.24-4.4s1.43-5.16-1.68-2l-1.71,3.25c-.23-1-3,.69-.71-2.85-.41.53-2.16,3.13-1.41,1.36l1.46-2.45-4,3.28c-.07-2.46,6-9.58,4.56-11.11-1.2.55-6,6.05-6.68,7.84.18.28-.26,1.92-1.69,4.4l-1.29.94c-4.33,7.17-9,14.36-10.72,20.19l3.47-3.88-1.79,3.68-.85-.24c-1.53,3.55.44.8,1.92-1a27.6,27.6,0,0,0-1.93,4.07l5-6.34c-1.59,2.88-3.73,5.34-4.1,7.25,2.32-2.94,3.41-6.54,5.34-8.22-1.55,3.53-3.29,6.1-1.11,3.62a17.11,17.11,0,0,1-2.55,3.69c1.77-1.94,1.71-.22,4.27-3.88-2,4.27,2.12-.12-2.12,6.59,1.14-1.53,4.07-4.81,4.65-4.84-5.8,7.58,1.2,1.4-4.47,9.87,5.13-6.87,4-2,7.51-5.39-.43.53-1.29,1.62-1.13,1.2.14.93-1.11,3.16-1.67,4.74,4-5.84,5.65-6.61,8.52-9.91-3.15,6.1-5,6.6-8.43,12.18,3.14-4.78,4.27-4,6.72-8.07a43.64,43.64,0,0,1-3.76,7c5-7.24,1.29-.92,4.74-5.11-1.75,4.08-4.49,6.94-2.2,5.26A16.51,16.51,0,0,1,645.38,247.93Zm27,1.15-.06.08-.56-.07C671.88,249.09,672.05,249.1,672.37,249.08Zm1.57,1.13a1,1,0,0,0-.54-.67c1.06-1.4,2.26-2.74,2.35-2.55A13.72,13.72,0,0,0,673.94,250.21Zm18.71-29.89c.72-.35.18.5-.43,1.34a1.79,1.79,0,0,0-.85.1l-.41.46C691.58,221.48,692.18,220.8,692.65,220.32Z" transform="translate(-38 -38)"/><path class="cls-3" d="M688,225.13c-.11.05-.26.2-.34.2-.22.39-.41.73-.55,1l1.08-1.16A.77.77,0,0,0,688,225.13Z" transform="translate(-38 -38)"/><path class="cls-3" d="M788.17,382.84l.09-.08a4.49,4.49,0,0,1-.65.31Z" transform="translate(-38 -38)"/><polygon class="cls-3" points="648.83 236.99 649.73 236.08 648.82 236.76 648.83 236.99"/><path class="cls-3" d="M774.75,398.42a7.44,7.44,0,0,0-1.21.49C773.85,398.81,774.28,398.63,774.75,398.42Z" transform="translate(-38 -38)"/><path class="cls-3" d="M774.84,403.19l-1.57,1.09A8.29,8.29,0,0,0,774.84,403.19Z" transform="translate(-38 -38)"/><path class="cls-3" d="M773.32,407.23c.87-.17,1.53-.32,2.13-.46h0Z" transform="translate(-38 -38)"/><path class="cls-3" d="M749.16,357.05a.42.42,0,0,0-.27,0C747.88,357.16,748.31,357.19,749.16,357.05Z" transform="translate(-38 -38)"/><path class="cls-3" d="M766.63,367.65a23,23,0,0,1-2.41.39C764,368.46,764,368.72,766.63,367.65Z" transform="translate(-38 -38)"/><path class="cls-3" d="M735.6,343.65l.07,0s0-.06,0-.1Z" transform="translate(-38 -38)"/><path class="cls-3" d="M764,367.27c-.82.66-.53.81.21.77C764.44,367.68,764.82,367.21,764,367.27Z" transform="translate(-38 -38)"/><path class="cls-3" d="M774.36,422.56l-.18.2c.33-.06.6-.11.81-.13Z" transform="translate(-38 -38)"/><path class="cls-3" d="M775,422.63l.62.07C775.59,422.61,775.54,422.55,775,422.63Z" transform="translate(-38 -38)"/><path class="cls-3" d="M776.94,422.85l-1.33-.15C775.63,422.83,775.5,423,776.94,422.85Z" transform="translate(-38 -38)"/><path class="cls-3" d="M775.71,417.55l-1.81.33C774.28,417.83,774.86,417.72,775.71,417.55Z" transform="translate(-38 -38)"/><path class="cls-3" d="M774.9,416.28c-.34.42-3.66,1.64-2.44,1.86l1.44-.26C771.19,418.23,778,416,774.9,416.28Z" transform="translate(-38 -38)"/><path class="cls-3" d="M795.76,405.26c-.36.52-.76,1.05-1.15,1.58,1.86-.66,4.36-1.56,4.93-1.09C804.88,402.83,795.38,407.07,795.76,405.26Z" transform="translate(-38 -38)"/><path class="cls-3" d="M797.49,400.73c1.06.45,2.75-.7,3.83-.93A5.53,5.53,0,0,0,797.49,400.73Z" transform="translate(-38 -38)"/><path class="cls-3" d="M789.2,373l4.37-1.46C792.78,371.26,791.89,372.15,789.2,373Z" transform="translate(-38 -38)"/><polygon class="cls-3" points="726.97 338.16 724.46 339.6 728.5 338.35 726.97 338.16"/><polygon class="cls-3" points="756.49 323.57 757.19 323.56 755.3 323.31 756.49 323.57"/><path class="cls-3" d="M771.75,317.34l-4.84,3C768,320.1,773.56,317,771.75,317.34Z" transform="translate(-38 -38)"/><path class="cls-3" d="M755.73,302.28c2.24-1.75,3.43-3.26.9-2C756.57,300.87,755,302.48,755.73,302.28Z" transform="translate(-38 -38)"/><polygon class="cls-3" points="684.9 208.68 686.57 207.66 684.85 208.19 684.9 208.68"/></g><g class="cls-2"><path class="cls-3" d="M641.13,637.78c1.56-.22,4.79-1.6,3.83-2.28l-5.84,1.36Z" transform="translate(-38 -38)"/><path class="cls-3" d="M649.43,628.06a29.09,29.09,0,0,0-13.29,2.45c5.8-.62,3.58.39,10.46-.6,1,.67-1.27,2.18-3.4,2.73,1.56-.17-.74,1.87,3,1.11,3.94-2.72,3.63-4.16-.52-4.53A12.35,12.35,0,0,1,649.43,628.06Z" transform="translate(-38 -38)"/><path class="cls-3" d="M646.31,538.27l-.67.63A1.22,1.22,0,0,0,646.31,538.27Z" transform="translate(-38 -38)"/><path class="cls-3" d="M643.16,485.5a2.6,2.6,0,0,0,1.43.54A3.25,3.25,0,0,0,643.16,485.5Z" transform="translate(-38 -38)"/><path class="cls-3" d="M649.18,483.13a1.68,1.68,0,0,0-.4,0C649.38,483.31,649.71,483.39,649.18,483.13Z" transform="translate(-38 -38)"/><path class="cls-3" d="M646.31,538.27l1.76-1.63C646.13,536.67,646.69,537.51,646.31,538.27Z" transform="translate(-38 -38)"/><path class="cls-3" d="M632.07,619.49a3.92,3.92,0,0,0,1.75.47,4.67,4.67,0,0,1-.82-.64Z" transform="translate(-38 -38)"/><path class="cls-3" d="M652.77,562.4l0,.45c.69.08,1.52.14,2.44.19Z" transform="translate(-38 -38)"/><path class="cls-3" d="M655.31,580.65c.18-.43-4.87,0-7.08,0,2.09,0,3.11.21,3.54.53A32.36,32.36,0,0,0,655.31,580.65Z" transform="translate(-38 -38)"/><path class="cls-3" d="M651.07,610.58l.79.35C651.62,610.84,651.37,610.67,651.07,610.58Z" transform="translate(-38 -38)"/><path class="cls-3" d="M653,549a13.89,13.89,0,0,0,1.79-.29A10,10,0,0,0,653,549Z" transform="translate(-38 -38)"/><path class="cls-3" d="M744.91,428.21s0,0,0,0Z" transform="translate(-38 -38)"/><path class="cls-3" d="M753.83,411.28l.16.3c.92.13,1.83.26,2.74.36C755.76,411.73,754.79,411.51,753.83,411.28Z" transform="translate(-38 -38)"/><path class="cls-3" d="M655.66,483.74l-.13-.09C656.33,484.31,656.18,484.18,655.66,483.74Z" transform="translate(-38 -38)"/><path class="cls-3" d="M677.72,490.27c1.27-4.71,5.85-2.87,6.69-8.52C683.42,483.48,677.68,486.56,677.72,490.27Z" transform="translate(-38 -38)"/><path class="cls-3" d="M632.6,618.82a2.1,2.1,0,0,1-.23-.8C632.29,618.43,632.37,618.67,632.6,618.82Z" transform="translate(-38 -38)"/><path class="cls-3" d="M684.41,481.75l0,0,.06-.54Z" transform="translate(-38 -38)"/><path class="cls-3" d="M646.41,471.63,642,466.8Z" transform="translate(-38 -38)"/><path class="cls-3" d="M639.69,468.39l.84.61C639.9,468.48,639.72,468.38,639.69,468.39Z" transform="translate(-38 -38)"/><path class="cls-3" d="M633.07,451.25c.95,1,2.35,2.82,1.31,1.18l-1.27-1.59C634.34,452.57,634.85,453.35,633.07,451.25Z" transform="translate(-38 -38)"/><path class="cls-3" d="M640.43,454.46,638.82,452c.07.19.1.32.16.49Z" transform="translate(-38 -38)"/><path class="cls-3" d="M684.82,390.42c1.73,1.53,3.6,3.31,5.43,5.08C686.13,391.46,685.67,389.54,684.82,390.42Z" transform="translate(-38 -38)"/><path class="cls-3" d="M634.83,618.8a3.9,3.9,0,0,1-2.23,0,2.31,2.31,0,0,0,.4.5A7,7,0,0,0,634.83,618.8Z" transform="translate(-38 -38)"/><path class="cls-3" d="M583,385.24l1.88.7,1.79.69A11.13,11.13,0,0,0,583,385.24Z" transform="translate(-38 -38)"/><path class="cls-3" d="M724.25,496l-.76-.21C723.46,496,723.66,496.11,724.25,496Z" transform="translate(-38 -38)"/><path class="cls-3" d="M594.07,387.24a56.82,56.82,0,0,0,4.24,4.62,15.94,15.94,0,0,0-.78-1.56C596.38,389.27,595.25,388.25,594.07,387.24Z" transform="translate(-38 -38)"/><path class="cls-3" d="M690.32,395.57l-.07-.07Z" transform="translate(-38 -38)"/><path class="cls-3" d="M681.42,374.93c-.43.39,1.84,3.16,4.88,6.62s6.91,7.72,9.54,10.85c.62,1.62-1.29-.32-4-3.24s-6.2-7-8.73-9.46c.94,1.69,3.35,4.9,5.33,7.57s3.58,4.83,3.08,4.71c-1.47-1.54-2.09-2-3.73-4,3,3.9,2.37,4.06,2,4.53s-.61,1.16,2.53,5c-.76-.68-1.43-1.32-2-1.89,3.93,3.81,7.83,7.79,10.5,10.55-.32-.07.48,1,.71,1.39s-.11.22-2.61-2.18c.62.31-1.26-1.6-2.55-3.06l1.3,1.85c-7.39-6.87-1.33-2.09-6.47-7.3.53,1.15,1.76,3,2.41,4.19s.75,1.73-.68.76c-6.15-5.61.31-1.65-6.45-7,1.24.71,2.51,1.48,3.83,2.32-2.84-2.55-4.12-3.71-4.69-4.29s-.41-.54-.27-.52.27,0-.39-.67-2.11-2.07-5-4.65c-1.54-.41-1,.72-.64,1.69s.74,1.84-.75,1.52a46,46,0,0,0,3.7,3.47c1.16,1,2.35,2,3.66,3.4.67,1.19,0,.91-1.27.16s-3-2-4.63-3.16a24.45,24.45,0,0,0-4-2.5c-.94,0-1.25.84-.22,3.06,1.33,1.74,3.48,3.87,4.77,5.57a3.84,3.84,0,0,1,1,2.14c0,.56-.45.92-1.59,1-1.82-1.66-3.6-3.33-5.36-5a2.27,2.27,0,0,0,.15,2.63,16,16,0,0,0,2.17,2.66c1.54,1.69,2.71,3.09.24,3.64a5.12,5.12,0,0,1-1.64-2.89c-.14-.75-.07-1.22-.53-1.18-5.61-.65,3,4,2.68,5.82L672,405.91c0,2.19,1.09,4.88,2.53,7.53s3.21,5.24,4.3,7.23c-2.13-1.18-4.36-2.81-6.36-3,2,3,2.56,4.92,1.85,6.3s-2.59,2.12-4.78,2.86c2.74,1.39,5.54,2.76,8.43,4.15.08.27-3.38-.69-5.08-1.58-1.27.16,0,.63,2.07,1.27a52.25,52.25,0,0,1,6.6,2.34c1,1-4.21-.54-6.91-1.88,2,1.21,4.23,2.59,6.35,4a58.56,58.56,0,0,1,5.82,4.25c1.63,1.38,2.75,2.58,3,3.51,0,.12,0,.22.05.35a2.53,2.53,0,0,1,0,.38,1.3,1.3,0,0,1-.24.68,3,3,0,0,1-1.71,1l-3.17-1.35c-.79,1.25,4.37,3.09,8.91,4.58a50.73,50.73,0,0,1,5.7,2.12c1.23.63,1.48,1.14.08,1.62l-2-.79a10.92,10.92,0,0,0,1.32,2.62c.29.46.62.92,1,1.38s.93,1,1.42,1.47c1.94,2,4.07,3.93,5.89,5.8a23.64,23.64,0,0,1,4.28,5.52,5.44,5.44,0,0,1,.6,2.85,9.39,9.39,0,0,1-.59,3.05c2.24-.23,3.52.18,4.37.9a4.22,4.22,0,0,1,1,1.29c.22.5.39,1,.6,1.56.8,2.1,2,4.1,6.88,1.88-.26.83-.5,1.57-.73,2.23a11.63,11.63,0,0,1-1,1.42l-1.77,2.18a13.31,13.31,0,0,0-2.5,5.29c0,1.11,6.6-1.58,8.21-.81l-5,2.39c2-.31,4-.57,6-.79q-2.83,1.82-5.69,3.55l1.78.55c.12-.57,1.88-1.93,3.38-2.5,1.53.42,1.17,1.91,0,3.4a12.44,12.44,0,0,1-4.42,3.46c2,.8,3.93,1.7,5.89,2.67-2.15.58-3.12.11-4.64,0,6.11.46-5.43,2.2.17,2.61,1.11-.64,3.21-.82,4.3-1.1-1.44,1-2,2.11-2,3.11a3.72,3.72,0,0,0,1.53,2.64l-3.79.58a5.17,5.17,0,0,0,.41,2.38c.15.38.35.77.55,1.16s.39.78.6,1.17c.43.79.9,1.59,1.29,2.42a8.88,8.88,0,0,1,.73,2.59c1.6-1.49,8.2-2.16,9-1.06l-5.76,1.15c3.69.3,2-1.44,6.64-.46-.2.67-1.43,1.07-2.92,1.25l27.19-15.41a6.42,6.42,0,0,1,.6-.8L733.39,521.4a16.48,16.48,0,0,1-4.58-.24l1,.62,34.57-19.59-1.62.21c1-1.47,1.9-1.92,3.34-3.63-2.87,2.4.69-6.85-4.1-2.53l1-1.47c-3.61-2.78-6.48-2.41-9.62-4.41-3.1,4-3.59,2.23-6.93,4.84-1.21-2.93-1.24-7.93-4.12-9.57-3.36.62-3.12,3-5.76,4.8,2.64-3.79-.24-5.42,3.11-7-3.6-1.78-4.58-2.3-10.81-2.31-.71,1.83-.71,2.85-1.91,3.92-1.18.06-.49-2.78,1-4.48l.48-.23c-8.63,2.15-2.24-18.52-11.59-13.52l.49-.23-6.71,1.22c-1.22-1.92,3.11-2,3.56-5.23-8.61,3.15-5.62-5.63-12-4,2.82-6.39.43-7.89-2.45-9a14.66,14.66,0,0,1-4.09-1.9,3.66,3.66,0,0,1-1.2-1.77,3.75,3.75,0,0,1-.14-.6,1.28,1.28,0,0,0-.14-.4l-.17-.47a10.39,10.39,0,0,1-.5-2.08l-1.46,2.91c-1.7.69-1.88,0-1.81-1.15s.45-2.63,0-3.42c-1.09,2.3.24,3.78-1.66,4.53a38.46,38.46,0,0,1-10.22-6.63,108,108,0,0,1-9.67-9.91L657.93,416.4c-3.77-4.26-7.79-8.68-11.82-12.54-3-2.69-2.43,2.92-2.13,7.29.14,2.18.21,4-.27,4.39s-1.51-.8-3.76-4.67c-.31-2.73-.57-5.43-.75-8.06a7.24,7.24,0,0,1-6,.29,42.21,42.21,0,0,1-6.57-3.11c-4.37-2.37-8.45-4.14-9.46-.75-.65-1.94-2-4.65-1.31-4.41-2.31-3.52-3.72-4-4.08-2.87s.2,3.61,1.57,6.17c-1.26-.87-2.7-4.69-4.69-7.43-1.66-2-1.4-.16-1.22,1.28s.27,2.54-1.77-.5a4.36,4.36,0,0,1-.78-2.25c.82,2.68-4.38-1.58.41,5.26-2.09-1.9-2.77-1.44-3.45-1.11s-1.37.55-3.57-1.52c1.65,3.3,0,2.16-1.27,1.47s-2.29-1,.79,3.63c-3.29-4.85-5.82-7.06-7.44-7.52a1.3,1.3,0,0,0-1.65.47,3.15,3.15,0,0,0,.11,2.34c-1.5-2.74-3.94-3.26-6.19-7.07-1.06-.12-1.91.16-1.87,1.09s.92,2.49,3.06,4.94c-3-2.69-4.87-3.79-6-4-.77-.06-.79.79-.56,1.79a10.71,10.71,0,0,1,.54,2.6c-.11.42-.89.08-3.13-2.08-.81-.74-1.91-1.83-3.38-3.33,3.18,6,6,10.62,8.66,14.68s5,7.46,7.17,10.55c-5.86-6.1-6.47-7.23-7.13-8.46s-1.37-2.51-7.07-8.51c2.61,3.86,6.6,8.72,9.87,12.78s5.78,7.23,5,7.43c-1.38-.85-5.66-5.95-7.85-8.36.77,1.05,1.38,1.92,1.85,2.67a22.11,22.11,0,0,1,1.1,2.08,16.42,16.42,0,0,1,1,2.87l.19.66.26.85a14.48,14.48,0,0,0,.86,2.05,36.24,36.24,0,0,0,4.21,6.24,46.7,46.7,0,0,1-4-4.28c.34.63,0,.66.28,1.23s1.35,1.78,4.51,4.51l-1-1.24-1-1.17a91.15,91.15,0,0,1,6.92,6.16q1.79,1.74,3.59,3.55l3.53,3.67c4.62,4.84,8.86,9.23,11.36,11.39C604.17,439,603.42,439,602,438.57a12.92,12.92,0,0,1-3.85-2.29c-2.23-1.68-5.81-4.63-11.84-10.15a62.73,62.73,0,0,0,9,8.39c-1,0-3.47-1.59-8.7-6.77a47,47,0,0,0,7.36,8.57c2.32,2.27,4.17,4.08,4.56,5.77-3.19-2.34-4.61-4-8.44-7.16l4.87,4.77,2.18,2.19c.7.7,1.29,1.32,1.94,2,2.49,2.7,3.86,4.61,3.22,5.52-2-1.45-4.21-2.61-4.6-3.71a32.41,32.41,0,0,0,4.52,6.29l1.51,1.7c.5.56,1.17,1.21,1.74,1.8q1.73,1.75,3.46,3.49a60.83,60.83,0,0,1,5.29,5.87,9.84,9.84,0,0,1,1.31,2.28,2.41,2.41,0,0,1-.05,1.76c-11.29-6.4-2.44.75-10.81-2.11l4.56,5.07c1-.13,2.1-.22,3.2-.26a10.57,10.57,0,0,0,1.9,2.62c.75.87,1.55,1.7,2.31,2.5,1.49,1.58,2.59,2.89,1.76,3.87-1.24-.88-2.51-1.82-3.79-2.8,1.08,2,2.2,3.95,3.18,5.82.63-.93,1.19-1.81,1.83-2.61a13,13,0,0,0,6.18,2.19c1.58.27,2.5.48,1.84,1.85-.85-.65.37,2.11-3.41,3.41h0a22,22,0,0,1,3.27,1.81,1.45,1.45,0,0,1,.4,2.26,20.15,20.15,0,0,1-4.67.6,20,20,0,0,0-4.17.39c2.94.32,3.64,2.13,4.25,3,.64,1.08,1.33,2.18,4.37,2.31a21.32,21.32,0,0,0-5.63.62l4.63.06c-1.3,1.14-2,1.38-4.78,1.67-.41,2.82,8.29-2.17,5.16,1.62-.41-.2-1.06,0-1.83-.4-.68,1.74.24,3.2,1.11,4.66s1.74,2.89.78,4.53c-6.61,1.68-1.95-2.41-7.49-.71.85,2,3.12,4,5,6.08s3.42,4.16,2.82,6.36l.67-.86c9.56-.25-4.42,3.59.24,5.34-.75-.47-5.34-.25-4.27-.2-1.29,3,2.81,5.75,6.12,10l-2.49-.39c-2.06,1.89-.94,4.65-1.93,6.61,2.47.4,2.15,1.5,5.66.61-13.55,6.72,8.19,10.61-3,16.59-.07-.62-2.24-1.33-2.21-.84l2.57,4.29c4.12-.66,2.46-.77,5.63-1.93,2.5.38,4.49,1.48,4.57,2.57-2.89-1.77-6.66.52-8.91,1.56,1.26-.24,2.69,0,4-.22-7.18,2.89,8.38-.27,3.67,3.27h-2.19c1.21,1.09,4.16,1.93,3.66,3.25-4.75.95-2.35-1.06-6.3-.8.43,1.79,9.4,2.71,4.77,4.77-1.4-.63-1.53-1.73-2.92-2.37-5.46,2.29-4,2.38-4.79,3.78l.12-.14c-.76,1.11-1.5,2.22-2.24,3.34l1.45-.94c6.36.5,7,1.57,7.21,2.81s-.19,2.65,4.08,3.65c-8.09-2-4.53,0-10,.48-1.4,1-2.94,2.38-4.5,2.23,4.56.91-3.15,2.92,3.53,4.15-1.72.33.06,1.59-4.36,1.88,1.65,1.74,3-.89,5.17-1,3.18,1.05,1.61,3,.4,5.14s-2.09,4.46,2.33,5.84c4.06,3,9.94,2.5,13.52,5.07a6.6,6.6,0,0,1-4.15.87,10.65,10.65,0,0,1-2.3-.41c-2.12,2.34-1.33,3.63,1,4.84-1.57,0-2.75.67-4.54,1.66.77,1.28,6.43-.63,4.38,1.79a43.8,43.8,0,0,1-7.19.37c2,1.26,5.59,2,7.55,3.26-2.82,1.27-4.73.23-6.82.14,1.8,1.58,4.09,4.22,8.88,3.36l1.3-1.67c.43.6-3.88,1.54-4.88,1.28-4.14-.55.92-2.78,2.61-3.33.46.29.94.57,1.41.85,4.75-2,4.08-3,2.17-3.88s-5-1.63-5.06-2.89l7.51-.83c-2.22-.27-4.4-.58-6.61-.9,1.78-1,5.78-2.25,7.13-1.39,3.23-2.46-2.93-.85.77-3.16a1.79,1.79,0,0,1,1.29-.22l-2.54-1.1c1.61,0,5.11-1.37,4.27-.19,1.77-1.84.22-2.68-1.19-3.35s-2.58-1.19.11-2.25l.5.15c-1.64-1.71-3-1.58-4.83-1.22a14,14,0,0,1-7.55,0q6.49-2.21,13-4.32l-5.49.52c.13-.45.4-1.33,2.59-1.53-4-.93-2.31.65-6,.31,4.64-2.75-3.13-5.23,5.47-6.88-4.24-.16-2.91,2.35-6.1.6,9.24-1.85-1.92-2.28,2.14-4.67,4.89,0,2.55,2,6.63-.34-8.3-.11,1.35-3.73-.36-5.06-6.5.63-3.09-3-5.48-5.42,2.2,0,3.11-5.21,5.29-7.81l1.1,0c-6.62.07-5.59-2.53-7.08-4.26,4-.22,5.53,0,7.37.84l-.16-1.7c-2.14-.25-3.29-.7-4.13-1.76l5,.08c-.44-2.24-6.13-4.19-3-7.36-4.61.14-12.65,3.22-15.93.28,2.48-.28,6.72-.68,7.79.07-.33-.24-2.13-.81-1.1-1.43l4.27,1c1.74-1.47-3.55-.48-3.23-1.58,3.55-.21,2.48-1,5.31-1,.36.26-1.41,1,0,1.36.56-1.25,2.57-2.86,5.22-3.52-2,.23-4.78.31-5.29-.55-.41-2.29,4.21-1.07,6-2.53-2.5-.4-.05-2-5.35-1.73,0-.68,2.44-1,3.87-1.32-2.42-1-1-5.56-6.6-3.83l-.35.33c-.11-.05-.12-.11-.24-.18h0c-5.54-3.55,2.43-8.38-.15-12.14l1.77-.13c-2.22-2.19-1.63-5.13-5.6-6.45-.06-.69,3.08-1.94,5.21-1.85-1.51-1.68-3.5-1.66-.85-4.57,3.27,1.5,2.67-.91,2.45,1.63,1.3-2.5,4-3.39-1.07-5.38,4.62.36,5.5-2.45,4-3.43l-3,2.06a4.25,4.25,0,0,1-.31-3.52l6-.15c3.28-3-.06-4.82-2.86-6.53s-4.88-3.27.76-6.21c-4.36-.59-2.43,3.19-7.47,2.83.2-1.18,2.31-2.73,4.35-4.1l.76-.5a4.08,4.08,0,0,1,.77-.3L651,490a5.73,5.73,0,0,0,1.31-.44c1.57-.63-.66-.57-3.07-.84s-5-.71-4-1.49c-2.17,0-7.93.18-10.47-2.08.18-.9,2.42-1,4.89-.73a25.38,25.38,0,0,1,6.11,1.44c.25.28-.43.31-1.19.19a6.9,6.9,0,0,0,4.28.9l-2.26-.39c2.15-.25,1.64-1.42,5.47-.3-2.32-1-3.86-1.21-4.9-.88,1.5-.26,1.45-.62,1.21-1.11s-.63-1.05.39-1.12a22.55,22.55,0,0,1-4.09-1.49c2.44-.73-4.89-2.93-6.57-5.33a32.37,32.37,0,0,1,5.5,2.54c1.4.73,1.92,1,.07-.61a21.3,21.3,0,0,1,4.57,2.36l4.35,2.75c-2.57-1.72-1.93-1.72-.43-1s3.82,2.19,4.27,2.43c.75.57,1.49,1.1,2.23,1.62-1.31-.92-1.31-1-1.32-1.05q-2.72-1.89-5.4-3.66a16.2,16.2,0,0,1,3.14,2c-1.84-1.36-4.13-3-6.58-4.75s-5.06-3.61-7.73-5.85c1.3.77.38-.17,0-.69s-.1-.55,3.7,2.42c-1-.32.88,1.11,3.23,2.87s5.18,4,5.9,4.68c-.94-.78-1-.92,0-.29s1.59,1.26,2,1.63c6.7,5.1-8.76-7.11-9.16-8.19,2.28,2,4.38,3.72,5.81,4.9s2.17,1.79,1.66,1.32c0,0-.46-.35-1.22-1l-3-2.54c-2.34-2-5.16-4.54-7-6.34,1.59,1.14.83.37-.37-.79a34.6,34.6,0,0,1-2.68-2.72l-1.41-1a51.79,51.79,0,0,1-6.55-6.79c3.76,3.46,3,3.15,4.51,4.39-4.48-4.34-2.62-2.93-.27-.94s5.11,4.53,1.78,1.08c1.6,1.47,4,3.86,6.33,6.1l5.57,5.4c-3.57-3.62-1.92-2.1,0-.23s4,4,.91.74c-7.36-7.42-5.36-5.31-13.17-13.48l6.24,6.79q-5.5-5.62-11.36-11.77c.17.28,1.56,1.79,2.75,3.08s2.19,2.37,1.69,1.94c-6.2-6.39-4.46-4.68-10.15-10.18,5,4.78,3.18,2.83.74.18s-5.45-5.91-2-2.6l18.91,19.39c3.92,3.89,1.33,1.17-2-2.5-1.66-1.81-3.5-3.82-4.66-5.17s-1.67-2-.59-1l-3.29-3.32c-2.08-2.24-3.25-3.53-3.88-4.25s-.72-.89-.66-.9.85.62-1-1.59c7.15,7.8,9.55,10.27,14,15-2.66-2.92-2.66-3-3.81-4.46s-3.45-4.19-10.84-12.59l6.35,6.82,3.09,3.38c1.82,1.67-3.57-4.85-9.24-12-2.81-3.55-5.68-7.22-7.71-10l-.72-1-.46-.72a8.53,8.53,0,0,1-.57-1c-.21-.5-.06-.6.54-.17,3.66,4.9,7.09,9,10.1,12.74s5.65,7.11,8.15,10.59c.51.16,2.21,1.88-2.83-4.41,2.43,2.86.28-.13-1.42-2.73s-3-4.76.51-.43c-2.78-3.88-9.76-13.27-8.39-12.25C626.14,440.43,628,443,628,443c-1.64-2.21-2.46-3.61-3.82-5.71s-3.27-4.89-7.28-9.95c5.75,7.15,8.75,10.75,10.46,12.47s2.12,1.67,2.48,1.54.67-.36,1.88.91,3.31,4,7.11,9.75c-.66-2.12-.69-3.71.11-3.49,1.25,2.27,2.2,3.86,1.55,2.92,2.73,4.08-.22-1.32-2.87-6.45-1.34-2.58-2.62-5.11-3.16-6.38s-.31-1.31,1.27,1c3.7,6.38,4.24,7.76,4.34,8.25s-.36,0,1.15,2.5c6.73,12.38,6.54,11.73,5.95,10-.3-.86-.7-2-.53-2s.9,1.11,2.73,4.62l.47,1.22c2.21,4.14,1.39,2.14.5-.4s-1.87-5.66-.91-4.41c0,0,.75,1.85,1.36,3.23-3.89-10.39-2.86-12.09-2-13.51,2,7.21.65,3.52,3.52,11.5a56.49,56.49,0,0,0-2-6.7c-1-3.21-2-6.49-1.49-6.91a124.41,124.41,0,0,1,6.09,16.67l-.85-.31c1.82,5.4,2,5.45,1.94,4.52s-.29-2.85.17-1.8l1,4.27c.38-.29,0-3-.06-5.39s0-4.32,1.08-3.2l-.61-3.12c0-4.4.52-2.76.93-.93s.8,3.91,1.19.94c.33,3.21.62,6.4.88,9.55A21,21,0,0,1,662,464c.75-1.53,1.81-2.76,2.7-2.92-1.62,5.37-3,7.67-3.53,11.22.47.42,1.53.5,2.28-3.33-.34.61-.74,2.48-.89,1,1-6.23,3-8.18,4.74-6.71a31.65,31.65,0,0,0-1.15,7.3,4.51,4.51,0,0,0,.65,2.64c.67,1.11,1.74,2-.63,6.95.93-.89,1.59-1,2-.79a.69.69,0,0,1,.13.11l.32.29a6.82,6.82,0,0,1,.61.69,13.62,13.62,0,0,1,1.07,1.64c1.33,2.35,2.41,5.19,4.89,6.54,4.86-9.75,1.48.74,7.83-8.26,1.46.22,1.75.66,1.41,1.3l-.81,7.62c-1.18,3.12-2.44,1.2-3.83,3.24,1.76,2.39-1.86,4.45-2.11,7.91,2.06-3.37,4.18-3.9,4.57-1.73l1.23-5.43c6.7-2.28-2.81,9.45,3.88,7.23l-3.09,2c2.87-.39,6,4.62,13-1.23-.48,1.24-1.9,3.93-3.1,4,3.12,4,14.4-.93,14.17,5.71L706.38,513c1.2-.07,4.31-3.08,3.6-.23-.71.86-1.91,1.93-1.66,2.31.94-.45,4.78-2.3,4.81-.32l-2.65,1.8c1.71,5.7,10.31-1.47,14.63-.52-4.77,6.32-3.31,10.65-2.57,12.8l-.73.86c3.87,4.14,11.53.46,17.53,1.09a8.33,8.33,0,0,0-.18,4.88l9.22,30.83,23.07-49.13c1.11-2.35,1-5.15.78-8a27.25,27.25,0,0,1-.08-4.24,11.8,11.8,0,0,1,1-4.2c-1.19,1.25-6.06,1.2-7.06.37,1.27-1.79-6.27-2.33.81-4v.52c3.3-1.42,4.29-2.76,4.4-4s-.67-2.45-1-3.59l-9.18,2.51c2.84-2.42,3.66-4.54,3.39-6.35s-1.6-3.34-2.91-4.72c-2.75-2.74-5.42-4.86-.6-9-2.78-.27-3.52-1.93-6.28-2l4.56-2.29a23.35,23.35,0,0,0-1.24-5l-.21-.48a.14.14,0,0,0,0-.09.31.31,0,0,0-.16-.13,2.8,2.8,0,0,0-.79-.19c1.18-.39,2.35-.8,3.5-1.25.13-.1-3.41,1.13-7.25,2.06s-7.92,1.65-8.44,1.14c2.55-.7,5.14-1.34,7.75-1.94-.45-.56,1-1.29,1.63-1.69s.45-.55-4.47-1.46c1.48.15,4.37.45,4.85.58,0-.16,1.47-.22,1.27-.38a9.48,9.48,0,0,0-2.18-.59c-1.5-.32-3.94-.84-7.67-1.52,4.88.9,5,.8,3.11.17s-5.83-1.91-8.64-2.93l8.12,2.23c-5.33-1.56-8.85-2.67-11.47-3.56a59.6,59.6,0,0,1-6.53-2.6c.82.09,6.67,1.95,4.79,1.54,1.83.34-.34-.41-2.63-1.26s-4.64-1.77-2.84-1.47l6.17,2.28c-.13-.46-3.13-1.42-10.68-4.39-2.23-1-2.22-1.25-.46-.81a98.27,98.27,0,0,1,9.73,3.29c-2.79-1.1-6.14-2.47-8.59-3.55s-4-1.85-2.92-1.6c3.44,1.35,5.82,2.42,7,2.92,2.81.76-.61-.9-3.81-2.6s-6-3.33-1-1.43c3.66,1.66,5.46,2.44,6.52,2.88.52.94.71,1.48-.13,1.08,4.88,2.06,7.6,3.11,10.91,4.48s7.21,3.08,14.08,6.06c-3.75-1.63-9.87-4.39-14.67-6.78s-8.22-4.34-6-3.53l3.59,1.68,1.23.64c1,.37-.08-.23-2-1.25a17,17,0,0,0,3,1.1c8.87,4.53,4.59,2,5,1.91-6-3.33-8.56-4.85-10.85-6.2s-4.29-2.52-9.16-5a7.14,7.14,0,0,1,2.06,1.53,13,13,0,0,0,1.32.89l-1.07-.6c.46.53.9,1.1,1.31,1.67-3.09-1.72-6-3.38-7.26-4.29s-1-1,2.16.45c-7.8-4.47-15.86-9.36-19.68-11.76,8.23,4.1,14.59,7.15,20.24,10.07s10.56,5.66,15.78,8.89c-3.43-2.68-4.51-4.16-7.4-7.08s-7.56-7.44-18.13-16.86c-.16-.17-.27-.33-.33-.4s-.07-.07,0-.06.23.16.54.4l2.87,2.26,7.4,5.89,1.73,1.49.89.75c.39.3.95.88,1.72,1.51l-.46-.47c-.14-.14-.26-.23-.37-.33l-.6-.53c-.35-.3-.59-.53-.8-.73-.4-.4-.65-.67-1.19-1.18-1.09-1-3.31-3-10.21-8.69,4,3.06,6.91,5.56,9,7.27s3,2.55,2.73,2.08l4,3.37c6.21,5,7.09,5.61,5.93,4.48l-7.24-6.7c-2.8-2.62-5.11-4.92-5-5.1s2.72,1.74,8.93,7.1c-1.55-1.33-2.3-2-4.1-3.58a53.48,53.48,0,0,0,6.09,4.45,4.82,4.82,0,0,0,2.09.67,6.89,6.89,0,0,1,2.67,1.11,37.35,37.35,0,0,1,5.59,4.5c.61.57,1.24,1.19,1.9,1.86,2.55,2.46-.54-1.51-1.69-3.94l3.84,5a26.91,26.91,0,0,1-2.2-5.1c0-.9.89-.77,1.9-.16a6.42,6.42,0,0,1,.79.53l.11.08h.2l.42,0,.88.06a10,10,0,0,0,1.89-.05,14.47,14.47,0,0,0,2-.31,10.68,10.68,0,0,0,6.46-3.82,5.6,5.6,0,0,0-.17-6.85c-1.26.13-2.54.22-3.79.25.65-1.22.37-3.28.26-4.84s0-2.88,2.18-2.91c-.7-.14-3.86-.2-2.08-1.18l2.8-.49a37.39,37.39,0,0,0-5.48-3.19c.82-1.48,3.68-1.59,6.28-2,1.3-.17,2.56-.37,3.52-.57s1.61-.47,1.76-.91c-.55-.29-2.57-.82-4.57-1.48s-4-1.37-5-1.26c-.32.42-2.14,1.06-5,1a11.92,11.92,0,0,1-1-1.46c-4-.58-8.28-1.5-12.23-1.83s-7.93.06-11.15,3.17a42.71,42.71,0,0,0,5.07,4.21c-1.32.51-2.66,1-3.95,1.69-.21-1.32-.33-2.49-.41-3.75-3.84,2.21-.32,3.64,2.15,4.86a8,8,0,0,0-4.2,2.31,39.62,39.62,0,0,0,4.22,1.08c1.4.24,2.8.49,4.18.63-3.19.83-6.59.1-8.11,1.92a16.56,16.56,0,0,0,5.31-.81c1.63-.43,3.12-.76,4.45-.16a28.35,28.35,0,0,1-4.33,1.31c-.41.11-.61.19-.49.26h0l5.32-.63h-.15l-.2,0-.49,0c-.2,0,.1,0,.72-.06-.31.05-.84.06-1,.07h-.3l.17,0,.25,0a5.44,5.44,0,0,1,.64.09l.61.13.83.21a14,14,0,0,1,2,.7,9.77,9.77,0,0,1,2,1.09c.12.09.3.18.54.38a7,7,0,0,1,.7.62l.25.29.11.14,0,.08h0c-13.44-19.72-3.73-5.47-6.73-9.88l0-.05-.14-.43-.28-.85-2.19-6.47c-.18-.51-.36-1-.53-1.52a1.71,1.71,0,0,0-.13-.33h-.21a4.35,4.35,0,0,1-.58-.13,17.93,17.93,0,0,0-.3-1.95c-.05-.24,0,0,0,0s0,.1,0,.11-.09,0-.17-.13a12.89,12.89,0,0,1-.83-1.78c-.17-.43-.39-1-.65-1.64-.07-.21-.1-.16-.15-.23l-.13-.15-.28-.28a16.81,16.81,0,0,0-2.74-2.08c-1.08-.69-2.27-1.36-3.52-2.08-5.15-2.94-10.52-6.31-16-15.26,2,5.42.24,5.86-2.15,5.12-1.21-.37-2.63-1.05-3.94-1.57s-2.44-.85-2.84-.38c.44.79,1.06,1.79,1.93,3.08-1.13-1.47-3.47-4.51-2.57-3.59-2-1.35-6.76-6.74-9.94-9.8,12.27,14.85,13.79,18.32,20.16,26.67-6.23-6.75-9.38-10.63-12.55-14.69s-6.26-8.16-11.84-14.54a114.9,114.9,0,0,1,8.66,11.33,76.51,76.51,0,0,0,7.36,9.41c-3.79-4-4.73-4.84-6-6.14s-2.77-3-7.5-8.22c6.87,8.08,7.28,8.78,7,8.74s-1.28-.77,2.51,4c-3.84-3.72-6.94-7.16-8.78-9.15s-2.33-2.41-.84.09a57.67,57.67,0,0,1-5.69-6.49C682.43,376.46,681.42,374.93,681.42,374.93Zm-.67,46.66-.12,0c-.25-.49-.47-.91-.61-1.17C680.15,420.62,680.35,421,680.75,421.59Zm1.6,3.9a3.56,3.56,0,0,0-.46-1.52c2,.82,4.22,1.94,4.31,2.27C684.7,425.41,683.94,425.74,682.35,425.49Zm62.22,25.7c1.75,1.06-.56-.11-3-1.33-.24-.21-.69-.53-1.57-1.13l-1.47-.81Z" transform="translate(-38 -38)"/><path class="cls-3" d="M728.74,442.28c-.27-.19-.79-.5-.92-.62-1-.51-1.91-.93-2.62-1.26l3.79,2.17C728.9,442.47,728.85,442.39,728.74,442.28Z" transform="translate(-38 -38)"/><path class="cls-3" d="M645.53,539l.11-.11a2.64,2.64,0,0,1-.7.26C645.18,539.08,645.33,539.07,645.53,539Z" transform="translate(-38 -38)"/><polygon class="cls-3" points="682.21 455.04 683.37 454.49 682.2 454.67 682.21 455.04"/><path class="cls-3" d="M630,566.67a3.87,3.87,0,0,0-1.26.45A5,5,0,0,0,630,566.67Z" transform="translate(-38 -38)"/><path class="cls-3" d="M629.87,578.36l-1.63,1.83A6.92,6.92,0,0,0,629.87,578.36Z" transform="translate(-38 -38)"/><path class="cls-3" d="M628.35,587.64c.89,0,1.56,0,2.17-.08l0,0Z" transform="translate(-38 -38)"/><path class="cls-3" d="M585.42,419.41a3.32,3.32,0,0,0-.47-.69C583.08,416.41,583.87,417.55,585.42,419.41Z" transform="translate(-38 -38)"/><path class="cls-3" d="M624.15,488.45a14.85,14.85,0,0,1-2.87-1.76C621.1,487.65,621.18,488.44,624.15,488.45Z" transform="translate(-38 -38)"/><path class="cls-3" d="M582.59,385.08l.07.1a2.33,2.33,0,0,1,.35.06Z" transform="translate(-38 -38)"/><path class="cls-3" d="M620.77,484.15c-.84.87-.4,1.75.51,2.54C621.44,485.9,621.78,485,620.77,484.15Z" transform="translate(-38 -38)"/><path class="cls-3" d="M633.86,627.84l-.07.5a5,5,0,0,1,.8-.18Z" transform="translate(-38 -38)"/><path class="cls-3" d="M634.59,628.16l.72.32C635.24,628.26,635.15,628.07,634.59,628.16Z" transform="translate(-38 -38)"/><path class="cls-3" d="M636.84,629.14l-1.53-.66C635.41,628.84,635.39,629.33,636.84,629.14Z" transform="translate(-38 -38)"/><path class="cls-3" d="M633,615.09l-1.82.26A11.48,11.48,0,0,0,633,615.09Z" transform="translate(-38 -38)"/><path class="cls-3" d="M631.66,611.51c-.25,1-3.36,3-1.95,4l1.45-.21C628.37,615.34,634.82,611.7,631.66,611.51Z" transform="translate(-38 -38)"/><path class="cls-3" d="M651.43,592.89l-1,3.07c1.86-.81,4.36-1.85,5-.64C660.65,590.9,651.19,596.72,651.43,592.89Z" transform="translate(-38 -38)"/><path class="cls-3" d="M653.08,583.7c1.09,1.42,2.81-.35,3.92-.39C655.12,582.56,654.65,582.36,653.08,583.7Z" transform="translate(-38 -38)"/><path class="cls-3" d="M647.89,517.74l4.59-.28C651.7,516.26,650.71,517.62,647.89,517.74Z" transform="translate(-38 -38)"/><polygon class="cls-3" points="584.82 469.85 582.13 471.35 586.39 471.36 584.82 469.85"/><polygon class="cls-3" points="616.18 457.59 616.92 458.06 614.93 456.15 616.18 457.59"/><path class="cls-3" d="M646,464.3l-8.85-13.49C638.32,453,648.31,468.18,646,464.3Z" transform="translate(-38 -38)"/><path class="cls-3" d="M658.57,466.1c.81,4.16,1.43,6.92,1.41,3.41C659.54,468.69,658.69,465.28,658.57,466.1Z" transform="translate(-38 -38)"/><polygon class="cls-3" points="729.07 449.83 731.24 450.33 729.05 448.75 729.07 449.83"/></g><g class="cls-2"><path class="cls-4" d="M767.36,424.15" transform="translate(-38 -38)"/></g><g class="cls-2"><path class="cls-3" d="M763.06,410.51c.3,1.52,1,5,.9,4.27L762.75,409Z" transform="translate(-38 -38)"/><path class="cls-3" d="M765.49,421.26c-.58-2.83-1.69-7.78-2.91-13.11,1.22,5.56.73,3.3,2.18,9.91.12.69-.44-1.85-.9-4,.31,1.5-.29-1.27.47,2.39,1,4.51,1.09,4.67.31.94C764.92,418.69,765.26,420.19,765.49,421.26Z" transform="translate(-38 -38)"/><path class="cls-3" d="M771.82,428.9l-.28-.65C771.69,428.61,771.77,428.81,771.82,428.9Z" transform="translate(-38 -38)"/><path class="cls-3" d="M775.54,430.68c0,.14.29.68.52,1.17C775.91,431.49,775.77,431.15,775.54,430.68Z" transform="translate(-38 -38)"/><path class="cls-3" d="M778.85,436.36l-.21-.35C778.89,436.5,779,436.77,778.85,436.36Z" transform="translate(-38 -38)"/><path class="cls-3" d="M771.82,428.9l.75,1.71A7.85,7.85,0,0,0,771.82,428.9Z" transform="translate(-38 -38)"/><path class="cls-3" d="M762.35,407.23c.08.33.22.84.39,1.52l-.16-.61C762.5,407.83,762.43,407.56,762.35,407.23Z" transform="translate(-38 -38)"/><path class="cls-3" d="M772.38,433.89l0,0c.23.64.49,1.42.8,2.29Z" transform="translate(-38 -38)"/><path class="cls-3" d="M771.73,435.1c.1.2-1.48-4.61-2.17-6.71.64,2,.94,2.93,1,3.31C770.91,432.61,771.27,433.7,771.73,435.1Z" transform="translate(-38 -38)"/><path class="cls-3" d="M767.62,427.05l.15.68Z" transform="translate(-38 -38)"/><path class="cls-3" d="M773.43,434.66c.27.7.5,1.32.64,1.69C773.85,435.75,773.63,435.19,773.43,434.66Z" transform="translate(-38 -38)"/><path class="cls-3" d="M761.94,396.32l.63.37Z" transform="translate(-38 -38)"/><path class="cls-3" d="M779.66,406.08l.25.15,2.61,1.46Z" transform="translate(-38 -38)"/><path class="cls-3" d="M782.7,441.61l0-.08C782.89,442.05,782.86,442,782.7,441.61Z" transform="translate(-38 -38)"/><path class="cls-3" d="M788.72,432c-2.94-3.5-3.58-4.71-6.88-8.57C783.12,425,786.76,429.82,788.72,432Z" transform="translate(-38 -38)"/><path class="cls-3" d="M762.52,407.88c0-.06,0-.1,0-.05C762.46,407.67,762.47,407.69,762.52,407.88Z" transform="translate(-38 -38)"/><path class="cls-3" d="M781.84,423.47l0,0-.31-.37Z" transform="translate(-38 -38)"/><path class="cls-3" d="M783.42,437.5l-1.13-1.91C782.55,436,782.87,436.58,783.42,437.5Z" transform="translate(-38 -38)"/><path class="cls-3" d="M778.46,432.18l.36.57A3.83,3.83,0,0,0,778.46,432.18Z" transform="translate(-38 -38)"/><path class="cls-3" d="M780.5,430.8c.22.32.59.91.26.31l-.33-.52C780.78,431.19,780.94,431.48,780.5,430.8Z" transform="translate(-38 -38)"/><path class="cls-3" d="M781.16,430.22c-.21-.33-.38-.57-.56-.86l.12.25Z" transform="translate(-38 -38)"/><path class="cls-3" d="M763.61,397.81l3.14,2.15C764.26,398.25,763.38,397.62,763.61,397.81Z" transform="translate(-38 -38)"/><path class="cls-3" d="M763.05,410c-.31-1.23-.46-1.81-.53-2.11l.06.26C762.77,408.87,762.94,409.55,763.05,410Z" transform="translate(-38 -38)"/><path class="cls-3" d="M760.07,397.15l.39.61Z" transform="translate(-38 -38)"/><path class="cls-3" d="M763.79,399.34l-.39-.38Z" transform="translate(-38 -38)"/><path class="cls-3" d="M760.1,397.12l1.82,2.87-.68-1.08Z" transform="translate(-38 -38)"/><path class="cls-3" d="M766.79,400l0,0Z" transform="translate(-38 -38)"/><path class="cls-3" d="M758.47,394.26c1.08.7,4.6,3,7.17,4.72,1.3.91-3.4-2.23-5.76-3.79,1.22.81,5.45,3.66,5.27,3.56l-2-1.34c3.66,2.5.18.17,4.77,3.36l-1.14-.78,6.32,4.34c.07.08,2.9,2.06-.11,0,.09,0-1.12-.8-2.06-1.45l1.3.93c-4.32-3-1.49-1.07-4.69-3.28,1.4,1,5,3.56,3.75,2.75-4.23-3-1.42-1.07-5.18-3.66l1.62,1.09-6.67-4.63c-1.23-.84,2.15,1.53.91.69l5.82,4.13c4.19,3.11-10.61-7.55-5-3.48,2.8,2,8.13,5.93,5.3,3.92l-4.75-3.49c-.48-.32,6.82,5,3.62,2.74L764.83,399c-1.87-1.37-1.2-.87-.06,0l1.8,1.34.95.72-4.2-3.12c.65.52,3.67,2.86,4.42,3.52l-3.83-3c2.08,1.67-.54-.26-3-2.22l3.59,2.9-2.32-1.87c-1.36-1.08,2.28,1.84,3.68,3l-3.14-2.53c3,2.46,6.49,5.49,2.66,2.35l-1.05-.89c-1.45-1.19,7.27,6.18,4,3.43l-.63-.54c-1.56-1.24,1.64,1.72-3.7-2.92,5.05,4.52-2.28-2,4.76,4.38l-7.11-6.35,5.09,4.74L763,398.54l3.81,3.59-4.36-4.06.93.89,2.69,2.5c1.63,1.59-2.56-2.31-4.42-4.09l3,3c-1.39-1.35-1.93-1.88-2.87-2.78,3.68,3.57-3.81-3.67-.44-.4l2.88,2.79c-2.19-2.09-2.21-2.1-1.3-1.18l-2.48-2.44c-.63-.61,1.17,1.21,1.11,1.2,1.14,1.15,5.39,5.45,5.79,5.89l-3.75-3.81C766,402,765,401,767.9,404c-.45-.41-4.27-4.34-5.49-5.59l1.29,1.35-3.13-3.22c2.32,2.4-3.76-3.85.27.31l-1.11-1.15s1.24,1.33,1.41,1.55l5.05,5.43c-1-1.05-3.55-3.73-3.3-3.41l4.54,5c-2.88-3.15-2.63-2.83-4.67-5.12.44.55.55.67,2.82,3.34l2.64,3c.46.55-1.21-1.31-2.57-2.87l-.29-.33c2.1,2.46,0,.16-1.85-2s-3.48-4-.59-.58l-.29-.34,3,3.65c-.5-.55-2.08-2.51-3.8-4.56,4.57,5.62-.7-.76,2.32,3-4-5-3.89-4.81-3.4-4.16s1.33,1.77-1.19-1.48l1.86,2.4c1.81,2.37-1.07-1.37-1.5-1.92l2.68,3.48c1.09,1.49.37.66-.8-.86s-2.78-3.71-3.59-4.84c-.46-.68,9.18,13,4.92,7l-3.27-4.68c2,2.81,1.9,2.8,1.77,2.66s-.32-.39,1.28,2.07c-.72-1.08-1.45-2.18-1.67-2.53-2.32-3.47-.13-.15,1.73,2.71l-2.65-4c-1.34-2.07,2.9,4.49.63,1L760,396.9l2.32,3.64c-1.26-1.93,1.11,1.86-.43-.55,2.86,4.6-1.41-2.18,2.63,4.33-4.18-6.73-3.38-5.41-1.46-2.21-1.24-2.05-1.3-2.14-3-5,.54.89,1.1,1.83,2.91,4.86-4.89-8.14,3.84,6.64-2.38-3.84,2.14,3.71,3.52,6.28,4.36,8-3.89-6.95-.32-.75-4.45-8,1.61,2.86,4.89,8.87,3.9,7.24l-2.31-4.23c1.53,2.92-.42-.59,1.58,3.29l-1-1.92c.11.24-.57-1,1.13,2.19l-.45-.88c2.49,4.64,5.08,9.78,6.36,12.26-4.8-9.25-1.3-2.26-7.34-14,.35.68,1.12,2.16,2.22,4.31-.34-.63-1-1.89-2.26-4.35l1.66,3.27c.54,1.07,1,1.92.93,1.9l-2-4c1.56,3.07,3.09,6.15,2.37,4.85l-.72-1.45-.27-.52-.09-.2c.2.51,4,8.29,2.42,5.37l-4-8.24.83,1.8,1.42,2.91c-.08-.09,2,4.31,1,2.36l-1.15-2.49.48,1.17,1.12,2.26c1.42,3.13,3.61,7.61,2.75,6-.27-.62-.1,0-1.78-3.58v0c.88,1.94,1.78,4,1,2.5-.9-2-3.08-6.68-3.67-8,2.3,5.07.56,1.45,3,6.88-.59-1.29-2-4.46-2.31-5.11l1.85,4.14c-.62-1.31-.91-1.95-2.05-4.5-.39-.73,3.48,7.71,1.92,4.43l-.69-1.59c-.84-1.7,1,2.71.05.71-2.69-6.16-.6-1.54-2.88-6.73.44,1.15,3,7.51,2.28,6.09l.31.68c3.62,8.79-1.87-4.3-.21-.14l-1.58-3.91c-.63-1.39.78,2.22,1.76,5.06l-.88-2.29c-.84-2-.56-1.12-1-2.14.87,2.28.7,1.92,2,5.24-2.56-6.48-1.92-4.72-1.23-2.66s1.45,4.39-.58-1.06c0,0-.05-.14-.11-.33L764,410l-.36-1,.67,2.15,2,5.41,1,2.94c.11.35.21.65.28.88s.09.33.09.33c-.86-2.62-2.24-6.29-3-8.47l1.32,3.75c-2.51-7,2.75,7.89,1,3.23l-.71-2.07c.33,1.07,1.24,3.81,1,3.23-1.57-4.54-.69-2.13-2-5.87.06.27,2.85,8.65,1.26,4.14-.36-1.16-.44-1.43-.79-2.58-1.87-5.33-1.41-4-1.72-4.81l0,.12-.87-2.4.5,1.45c3.9,11.91.62,2.21,3.08,10.05-2.31-7.43-1.38-4.29-3-9.47l-1.48-4.51c1.31,4.2-1.09-3.28.82,2.86-.53-1.67-.08-.15-1.39-4.36.38,1.33.92,2.91,1.58,5,.86,2.88.29,1.15-.16-.33s-.79-2.69.34,1.27c.9,3.25,2.47,9,3.11,11.84-.76-2.7-1.63-6.18-1.63-6.18-.71-2.48-.6-2-.13-.07-.39-1.49-.7-2.71-1.2-4.64.1.44,1.56,6.2.89,3.69l-1.7-6.84c.39,1.57,1.16,4.75,1.5,6.3-.7-2.93-1.08-4.51-1.55-6.45.37,1.58.74,3.23,1.7,7.42l.42,1.68c0,.23-.95-4.05-1.14-4.91-.86-3.7.41,1.62.83,3.34l.23,1.1c2.43,10-.25-1.65-.1-1.07l1.82,7.27-1.47-6c.5,1.88,1.58,5.92,1.81,7,1,3.56-.62-2.59.5,1.38.17.62.26,1,.33,1.26l-.51-2.18c.4,1.53,1.4,5.1,1.06,4.07,1.32,4.13-1.26-5.47.33,0l.11.44c-.49-2.48-1.47-5.29-3.17-11.51l3.93,13-1.56-5.27a26.2,26.2,0,0,1,.87,2.67c-1-3.62-.71-2.28-1.7-5.69,1.56,4.76-.5-2.3,2.15,6-1.23-4-1-3-1.84-5.85,2.88,9-.4-1.57,1,2.52,1.47,4.63.6,2.21,2,6.31-2.48-7.83.72,1.66.31.13-2-6.21-.7-2.64-1.28-4.75.69,2.09,1.36,3.33,2.26,5.52l.35,1a45.82,45.82,0,0,1-2-6.43c1.32,3.73,1.83,5.2,2.37,6.89l.07-.06c-.69-2-1-3.06-1.24-3.79l1.64,4.65c0-.3-1.75-5.54-.48-2.5-1.6-4.33-4.51-12-5.48-14.94.86,2.33,2.35,6.33,2.67,7.3-.1-.31-.68-2-.29-1l1.4,3.95c.7,1.71-1.18-3.29-1-2.95l1.9,5c.1.33-.55-1.35-.09,0,.28.57,1.08,2.52,2,5-.72-1.89-1.68-4.48-1.81-4.93,0-.29,1.55,4,2.26,5.66-.85-2.32.14,0-1.76-4.92a3.59,3.59,0,0,1,.17.39l.38.94.91,2.33a42.3,42.3,0,0,0-2.09-6l-.15-.35-.07-.22h0c-1.79-5,1.44,2.65.77.46l.67,1.65a46.34,46.34,0,0,0-1.64-4.78l.23.5c.14.31.33.74.54,1.23l1.35,3.2c-.43-1.27-1.21-3.11,0-.46,1.13,2.89,1.1,2.51.8,2.13.7,1.36,1.86,4,.05-.56,1.76,4.21,2.36,5.22,1.88,3.95l-1.38-3c-.21-.64,0-.29.21,0l2.37,5.51c1.59,3.27.47.37-.45-1.95s-1.62-4.08,1,1.44c-1.68-3.85-1.35-2.63-3.32-7.13.22.35,1.24,2.46,2.22,4.49l1.34,2.75c.36.74.61,1.22.61,1.22,1.57,2.93-3.54-8-2.44-6.05-.93-1.92-3.36-7.09-4.14-9,.41.67,4,8.05,4.63,9.64a5.44,5.44,0,0,1-.56-1.09c.3.73.64,1.58,1.68,3.66l-.9-1.95c1,1.95,1,1.66,2.52,4.85a43.82,43.82,0,0,0-2-4.16c1.48,2.72.25,0,1.3,1.76l-1-2-.43-.89c-.11-.22-.17-.36-.17-.36,1.36,2.26-1.7-3.7-2-4.62,1.52,2.89,3.43,7,2.35,4.47,1.06,1.93,2.55,5.08,3.29,6.67-1.71-3.78,1.48,2.27,1.92,2.89l.7,1.59c-.42-.94-.37-.94-.32-1l-2-3.8a20.26,20.26,0,0,1,1.24,2.22c-1.23-2.53-3.27-6.34-4.93-9.8,1,1.9-.93-2.17,1.7,2.87-1.05-1.61,2.64,5.07,2.9,6-.28-.62-.23-.62.16,0s.54,1.05.67,1.35c2.53,4.4-2.87-5.77-2.64-5.75a49.32,49.32,0,0,0,2.58,4.73,4.44,4.44,0,0,1-.46-.77c-.25-.49-.6-1.14-1-1.87L779,433.66c1.27,2.15-.75-1.71-.57-1.48l-.6-1a28.66,28.66,0,0,1-1.66-3.44c1.18,2.2.75,1.56,1.29,2.51-2.6-5,2.93,5,1.24,1.62,1.09,1.88,2.88,5.3,3.64,6.56-1.87-3.74,2.26,3.76.75.64-2.13-3.74-1.62-2.82-3.57-6.56l1.26,2.81-2.9-5.59c-.08,0,1.19,2.47.8,1.85-1.63-3.13-1.13-2.19-2.87-5.31,3.19,5.62-1.69-3.4.5.36l5.2,9.34c2.5,4-2.41-5-.9-2.77l-1-1.57c-2.08-3.71-.18-.6-1-2.14,1.78,3.1,2.47,4.2,3.62,6.1-1.34-2.29.27.1-3.32-6.07l2.47,4c1.15,1.54-5-8.88-4.29-7.93,2,3.36,3.33,5.49,4.66,8,.07,0,.45.52-.82-1.6,1.19,1.89-2.37-4.23-.56-1.35-.8-1.36-2.75-4.56-2.54-4.34l.92,1.51c-.92-1.51-1.19-2.12-3.3-5.46,3,4.71,3,4.46,2.83,4.05s-.37-1,2.26,3a20.62,20.62,0,0,1-1.13-2.45c.58.91,1,1.5.75,1.2,1.94,2.7-5.53-8.67-3.4-5.66,3.24,4.79,1.66,2.68,2.9,4.48,6.49,9.84-.73-1.48,3.17,4.18l.36.6c2.3,3.26-2.3-3.87-1.73-3.26l1,1.47c-3.29-5.05-4.31-6.81-5.18-8.27,2.6,3.83,1.35,2.05,4,5.9-.33-.59-4.3-6.19-5-7.35,1.46,2.06,2.79,3.81,5.68,7.9l.06.31c3.77,5.27,0-.3.69.58l1.62,2.33c-.37-.9-4.52-6.72-4.1-6.43l-1.26-1.73c-4.08-5.82,2.38,3.17-.64-1.17l4.25,5.8c-1-1.46-3.93-5.79-4.67-7,3.14,4.33,4.65,6.63,6.44,9.26.08,0-.12-.61-2.21-3.49.39.58,1.41,2,.73,1.15l-3.65-5.18a9.09,9.09,0,0,1-1.08-1.71c8.36,11.17,2.35,2.57,9,11.1-3-4.3,1.74,1.32,1.49.4-6.86-8.41-.13-.31-7.12-9-.4-.6-.27-.48.18.08l4.34,5c2.08,2.48,1.5,2,3.08,3.91.67.53,3,3.62,5,5.82-2.55-3.08-3.58-4.48-2.53-3.38L788.34,431c-3.62-4.77,6.11,7.08,2.54,2.35l2.19,2.76c-1.23-1.69.44-.33-5.32-7.27.85,1,2.86,3.27,3.35,3.93,1.11.75-5.84-7.75-2.05-3.76l1.8,2.07c-.49-.64-3.35-3.92-1.48-1.92.75.85,1.8,2.06,1.93,2.16-.61-.73-3.1-3.69-2-2.56l2,2.35c2.62,2.42-4.73-5.93-5.9-7.47a109.71,109.71,0,0,0,8.39,8.54l.78.84c.93.41-4.21-5.38-6.27-7.89,6.24,6.14,2.95,2.1,6.64,5.31-1.07-1-4.48-4.44-5-5.06,1.22,1.1-3.91-4.09,1.4,1.12l-.12-.08c5.25,5.06,4,3.57,4.19,3.6l-7-6.78c5.17,4.79,4.37,3.7,3.38,2.53s-2.14-2.44,2.57,1.8c-1.75-1.72-1.67-1.78-3.44-3.49l3.86,3.53c1.11.72,1.67,1.06.89,0l2.76,2.54c.35.09-11.17-10.21-11.35-10.51l5.88,5.15c0-.28,5.38,4,.11-.89.87.75,2.59,2.23,2.81,2.47.21,0,4.3,3-4-3.89,5.37,4.5.66.2-1.68-1.87l4,3.31c-5-4.31-6.44-5.46-7.8-6.74a22.5,22.5,0,0,1,2.17,1.8c2.15,1.61-3.76-3.17-1.57-1.55l2.55,2.13c.36.15-1-1-4-3.43-1.59-1.36,1.1.64,4.78,3.54-2.23-1.8-5.2-4.22-4.12-3.44,1.4,1.09,2.25,1.79,2.66,2.14,2.87,2-4.65-4-.58-1l2.46,1.88c-.16.07-.43,0-.73-.24,3.76,3,4.49,3.34,9.64,7.51-2.77-2.34-8.9-7.3-7.07-6.05l1.32,1,.42.34c.39.26,0,0-.58-.55a9.85,9.85,0,0,0,1.2.77c3.15,2.38,1.77,1.14,1.95,1.19-4.19-3.15-3.48-2.72-7-5.25a4,4,0,0,1,.65.56c.12.1.18.16.43.35l-.37-.28a1.2,1.2,0,0,1,.22.36c-2.1-1.66-3.87-3.05-1.52-1.36l-6.73-5.16c5.86,4.33,9.09,6.53,12.73,9.19-2.28-1.94-1.35-1.62-9.32-7.49-1-.79,2.32,1.6,3.59,2.48.79.61.65.56,1.8,1.4a62.32,62.32,0,0,0-6.3-4.88c2.58,1.68,5.16,3.74,4.3,2.92l1.71,1.24c4.58,3,1,.29-2.24-2.11s-6.27-4.56-.32-.78c-.73-.46-1.07-.67-2-1.31,2.66,1.54,1.51.5.71-.25s-1.23-1.22,3,1.2c1.73.94-2-1.42-4.91-3.25l4.86,3-5.59-3.55c-2-1.33,1,.42,3.51,1.87s4.67,2.58.77.15l-3.32-1.93c.65.29-1.92-1.37,1.9.87-.6-.36-3.45-2-1.72-1.06l2.59,1.5L784,408.86c1.9.93,10.3,5.93,10.87,6-1-.68-7.54-4.53-9.3-5.48-.14,0-1.64-.83-4.26-2.3l-1.36-.83-16.22-9.06,3.56,2.05-2.83-1.59-.17-.13c-2.66-1.49-.31-.16,1.31.78l-3.12-1.77,5.57,3.24-5.79-3.34,6.82,4c-2.65-1.52-4.81-2.79-2.55-1.45l-3.12-1.82,3.86,2.31c-3.27-1.91.85.58-4.66-2.72,1.32.79,4.33,2.62,4.56,2.79-6.61-4-.39-.18-7.47-4.51,5.94,3.65,2.63,1.65,5.93,3.74l-1.12-.71-3.41-2.12c4.91,3.1,6,3.84,9.05,5.81l-10.3-6.59,7.27,4.69-5.48-3.51c6.12,4,1,.68,4.79,3.14-3-1.94-5.74-3.75-3.87-2.5Zm10.43,8-.07-.05-.19-.17Zm0,.13c.14.1.17.1.15.07,1.19.92,2.42,1.88,2.35,1.84ZM796,422.74c.57.49-.25-.12-1.11-.76a4,4,0,0,0-.47-.46l-.51-.39Z" transform="translate(-38 -38)"/><path class="cls-3" d="M790.58,418.52l-.29-.25-.95-.68,1.3,1Z" transform="translate(-38 -38)"/><path class="cls-3" d="M771.49,428.15l0,.1-.27-.67Z" transform="translate(-38 -38)"/><polygon class="cls-3" points="724.18 359.76 725.02 360.54 724.28 359.86 724.18 359.76"/><path class="cls-3" d="M764.61,412.24l-.44-1.22Z" transform="translate(-38 -38)"/><path class="cls-3" d="M764,411.26l-.61-1.7C763.71,410.47,763.87,410.94,764,411.26Z" transform="translate(-38 -38)"/><path class="cls-3" d="M763,408.94l.66,2.07v0Z" transform="translate(-38 -38)"/><path class="cls-3" d="M762.68,402.51l-.11-.21Z" transform="translate(-38 -38)"/><path class="cls-3" d="M767.21,413.41l-1-2.16C766.06,410.91,766,410.82,767.21,413.41Z" transform="translate(-38 -38)"/><path class="cls-3" d="M760,397.08l0,.07h0Z" transform="translate(-38 -38)"/><path class="cls-3" d="M766.32,411.3c-.44-.89-.37-.69-.08-.05C766.39,411.54,766.63,412,766.32,411.3Z" transform="translate(-38 -38)"/><path class="cls-3" d="M762.26,406.78l0-.21.18.8Z" transform="translate(-38 -38)"/><path class="cls-3" d="M762.4,407.37l.14.58Z" transform="translate(-38 -38)"/><path class="cls-3" d="M762.82,409.19l-.28-1.24s0-.05,0,.09S762.66,408.5,762.82,409.19Z" transform="translate(-38 -38)"/><path class="cls-3" d="M762.82,409l-.47-1.77Z" transform="translate(-38 -38)"/><path class="cls-3" d="M762.69,408.53c-.11-.4-1-3.78-.71-2.67l.37,1.41C761.64,404.64,763.5,411.52,762.69,408.53Z" transform="translate(-38 -38)"/><path class="cls-3" d="M769.51,430.18l-.58-1.36c.6,1.86,1.42,4.36,1.47,4.83C772.36,439.16,769.08,429.49,769.51,430.18Z" transform="translate(-38 -38)"/><path class="cls-3" d="M770.8,432.73c.2.89.88,2.7,1.22,3.75C771.52,434.76,771.39,434.34,770.8,432.73Z" transform="translate(-38 -38)"/><path class="cls-3" d="M773.92,431.48l1.77,4.25C775.5,435.09,775,434.08,773.92,431.48Z" transform="translate(-38 -38)"/><polygon class="cls-3" points="726.95 371.45 725.79 368.85 727.46 372.7 726.95 371.45"/><polygon class="cls-3" points="740.52 401.23 740.76 401.84 740.19 400.26 740.52 401.23"/><path class="cls-3" d="M783.44,434.13l-3.06-4.82C780.89,430.21,784.3,435.65,783.44,434.13Z" transform="translate(-38 -38)"/><path class="cls-3" d="M782.22,427.52c1.69,2.31,2.83,3.75,1.21,1.44C783.16,428.68,781.81,426.9,782.22,427.52Z" transform="translate(-38 -38)"/><polygon class="cls-3" points="755.76 390.15 757.13 391.55 756.03 390.33 755.76 390.15"/></g><g class="cls-2"><path class="cls-5" d="M406.73,748.3c.47-1.48,1.17-4.93.65-4.34l-1.58,5.74Z" transform="translate(-38 -38)"/><path class="cls-5" d="M406.74,736.93A70.69,70.69,0,0,0,403,749.84c1.75-5.47,1.31-3.11,3.32-9.63.52-.59.2,2-.35,4.14.47-1.46.28,1.42,1.31-2.18.55-4.61,0-4.94-1.48-1.39A31.55,31.55,0,0,1,406.74,736.93Z" transform="translate(-38 -38)"/><path class="cls-5" d="M375.68,717.63l0,.73A1.45,1.45,0,0,0,375.68,717.63Z" transform="translate(-38 -38)"/><path class="cls-5" d="M357.4,706c.22-.06.53-.56.78-1A2.74,2.74,0,0,0,357.4,706Z" transform="translate(-38 -38)"/><path class="cls-5" d="M357.09,698.57c0,.2,0,.31,0,.45C357.27,698.5,357.34,698.19,357.09,698.57Z" transform="translate(-38 -38)"/><path class="cls-5" d="M375.68,717.63l.15-2C375.09,717.47,375.57,717.14,375.68,717.63Z" transform="translate(-38 -38)"/><path class="cls-5" d="M398.36,749.64a6.44,6.44,0,0,0,.72-1.44,4,4,0,0,1-.46.54Z" transform="translate(-38 -38)"/><path class="cls-5" d="M386.19,716.29l.17.05c.27-.62.58-1.38.92-2.24Z" transform="translate(-38 -38)"/><path class="cls-5" d="M393.26,717.63c-.09-.25-1.66,4.56-2.38,6.65a15.44,15.44,0,0,1,1.38-3.21C392.55,720.15,392.87,719.05,393.26,717.63Z" transform="translate(-38 -38)"/><path class="cls-5" d="M401.84,729.37l.37-.63C402.11,728.94,402,729.11,401.84,729.37Z" transform="translate(-38 -38)"/><path class="cls-5" d="M381.76,713.52c.25-.71.46-1.34.57-1.72C382.11,712.4,381.92,713,381.76,713.52Z" transform="translate(-38 -38)"/><path class="cls-5" d="M209.86,582.08l.89.11C210.25,582.05,209.9,582,209.86,582.08Z" transform="translate(-38 -38)"/><path class="cls-5" d="M237,577.21l.21.22,2.57,1.18Z" transform="translate(-38 -38)"/><path class="cls-5" d="M354.47,689.79l0,.1C354.86,689.47,354.73,689.51,354.47,689.79Z" transform="translate(-38 -38)"/><path class="cls-5" d="M304.69,659.24c-2.52,3.82-4.71,3.57-7.31,8C298.64,665.71,303.35,662,304.69,659.24Z" transform="translate(-38 -38)"/><path class="cls-5" d="M398.33,748.94a.35.35,0,0,1-.33,0C398.1,749.11,398.21,749.11,398.33,748.94Z" transform="translate(-38 -38)"/><path class="cls-5" d="M297.38,667.23l0,0-.24.42Z" transform="translate(-38 -38)"/><path class="cls-5" d="M340.26,685.11c-.44.77-.75,1.38-1,2C339.49,686.62,339.8,686.07,340.26,685.11Z" transform="translate(-38 -38)"/><path class="cls-5" d="M346.19,697l.09-.72C346.15,696.71,346.15,696.89,346.19,697Z" transform="translate(-38 -38)"/><path class="cls-5" d="M331.56,688c.08-.41.42-1-.12-.57-.13.23-.21.39-.29.56C331.59,687.47,331.85,687.25,331.56,688Z" transform="translate(-38 -38)"/><path class="cls-5" d="M326.46,684.65l-.48.91.31-.12Z" transform="translate(-38 -38)"/><path class="cls-5" d="M216.36,611.7c1.26-.68,2.7-1.34,4.13-2C217.16,611.12,215.52,610.35,216.36,611.7Z" transform="translate(-38 -38)"/><path class="cls-5" d="M399.06,746.88a8.58,8.58,0,0,1-.73,2.06,1,1,0,0,0,.29-.2A17.27,17.27,0,0,0,399.06,746.88Z" transform="translate(-38 -38)"/><path class="cls-5" d="M309.51,721.3l-.52-1.25A1.43,1.43,0,0,0,309.51,721.3Z" transform="translate(-38 -38)"/><path class="cls-5" d="M244.78,656.1l-.63.18C244.12,656.43,244.29,656.41,244.78,656.1Z" transform="translate(-38 -38)"/><path class="cls-5" d="M305.81,718.82a19.3,19.3,0,0,0,1.44-3.24c-.26.3-.49.54-.84,1Z" transform="translate(-38 -38)"/><path class="cls-5" d="M220.54,609.72l0,0Z" transform="translate(-38 -38)"/><path class="cls-5" d="M206.27,604c.23,1.57,6.5-.82,10.28-1.42,2.21,1.11-4.56,2-7.71,3.41,2,.63,8.09-.34,8,.42a12.19,12.19,0,0,1-2.73.87c2.69-.27,3,.47,3.44,1.12s1.13,1.28,4.43.66a14.07,14.07,0,0,1-1.49.71c3.06-1.32,6.23-2.5,8.5-3.3.28.44,4.24-.64.24,1.09,0-.33-1.63.27-2.95.61l1.95-.18c-5.66,2.71-2.28.09-6.6,1.71,2.28.38,7.55-.5,6.21.9-5.57,2.53-2.63-1-7.24,2.1l1.67-2.09c-8.59,4.47.31-1-8.94,3.63-.91,2.44,3.68.79,2.76,3.17,3.27-1,4.55-2.15,7.81-3.17,3.28-.19,0,1.8-3.11,3.71s-5.93,3.69-1.86,2.72c3.88-1.36,10.86-4.69,7.75-1.77l-6.35,2.76c.17,1.82,9.23-3.72,5.9-.11-2.53,1-2.62,0-3.23.57-4.29,3.53,3.84-1.16,4.22-.45L222,624.7c1.68,1.11,6.46.49,8.32,1.46a19.57,19.57,0,0,0-4.8,2.9c1.92.2,2.41,1.36,2.19,2.92a21.25,21.25,0,0,1-2.08,5.34l4.87-2.22a9,9,0,0,1-2.77,2c-1.22,1.79,2.82-1.81,4.77-2.62.56.17-2.19,2.18-3.68,2.81,4.56-1.25,10.26-2,6.44,2.43l-1.46.65c-1.09,2.21,9.63-5.08,6.19-1.38l-.88.37c-.26,1.72,1.1,2.39,1.77,3.44s.75,2.45-1.87,5.61c6.32-4.26-1.19,4.07,7.38-2.2-3.33,4.34-5.09,5.15-6.64,9,0,.75,5.73-3.41,7-3.56l-4.36,3.44,5.15-2.88-4.9,4.49,1.53-.39a12,12,0,0,1,2.88-2.93c2.59-.81-1.49,4.27-3.68,6.09l5.15-1.14a16.22,16.22,0,0,1-3.9,2.21c5.18-2.61-4.37,3.89.38,1.5a35,35,0,0,1,3.48-2.74c-2.22,2.58-1.39,3.63.31,3.46l-3,2.32c.41,2,3.74,1.74,5,3.23.86-1.7,6-5.93,6.82-5.94l-4.25,4c3-2.12,1.26-1.89,5.1-4.27,0,1-4.67,4.77-6.39,5.72l2.13-.69c-1.28,1.2-2.11,1.66-3.82,3.1,3-2.15-3.34,5.07,1.74,1.26l-1.26,1.2c1.31,1.52,3.42.82,4.72,1.82,3.74-3.42,3.34-2.19,6.64-4.64-.4,2-2.41,5.65-1.13,6.41,2.52-1,3.29-2.77,5.77-4.55-3.27,3.25-2,3.95-4.85,5.73,1.74.68,2.21.91,6.37-.24a18,18,0,0,1,2.78-3.27c.8-.27-.76,2-2.36,3.51l-.41.26c3.29-1.61,1.88,1.73.72,4.83s-2.09,6,1.9,3.16l-.4.27,4.89-2.31c.13,1.19-2.77,2.16-4.22,4.7,6.82-4.2,1.78,3.11,6.54.5-4,5.51-2.95,6.17-1.43,6.39s3.48,0,1.35,3.93l2-2.51c2.41-2-.75,1.77-1,2.56,1.58-1.92,1.47-2.52,2.83-3.65,2.82-.18,3.66,2,4,4.91s.23,6.48,1,9c.69,1.67,10.85-12.52,7.69-5.34l-4.06,4.38c3.42-1.89,4.63-.92,5.78.17s2.2,2.29,5.18.73c-.95,1-2,2.45-2.22,2.26-2,3.88,1.78,1.58,3.83-1.3.14.61-1.76,2.67-2.57,4.3-.95,2.47,4.48-3.56,2.29.14a4.28,4.28,0,0,1-1.24,1.25c1.55-1.48,1.32,1.53,3.83-2.79-.41,2.59,3-.63,2.12,2.31,3.6-4.3.11,3.3,4.64-3.15-4.59,6.72-2,6.57.7,3.76-1.55,1.92-.88,2.48-3,5.17.75.37,2.2-.48,4.35-4.08-2,4.51-.32,3.29,1.1,2.29s2.61-1.8-.35,3.71c4.41-2.45,7.83-3.85,10.63-4.39-4.23,6.93-2.44-.52-6.78,6.82,3.53-1.78,8.06-7.19,8.78-4.47-.11,1.22-2,2.89-2.87,4a2.57,2.57,0,0,1,3.27.28c.81.51,1.68.88,3.55-.62a8.85,8.85,0,0,1-1.41,1.74c.44-.07.16,1.43,1.91-1.81l-.79.71c2.12-4.94,6.65-9.12,8.06-11.58-5.62,9,.24,3.15-7,14.43a16.67,16.67,0,0,0,2.77-4.09c0,.8-.63,2.12-2.29,4.42,2.09-1.16,3.55-4.83,4.52-4.22-.85,1.58-1.38,2.08-2.48,3.87,2.17-2.79,4.31-5.6,4.45-3.81-.55.93-1.11,2.22-1.35,2.06,1.74.32,6.75-6.9,6.79-3.07-4,6.69-.61,2.55-3.54,8.59l1.79-1.36,1.11-3.09c.72.48,3.57-3.59,3.25-1.3l-1.79,2.21,2-.46.31-2.68c2.29-2.74,3.65-7.67,3.83-5.52-.5.52.7.43-.62,4.19h0c1.3-1.75,2.64-3.6,2.48-1.83-.77,2-3.3,6.66-3.81,8,2.77-4.9,2.46-.55,5.45-5.76a49,49,0,0,0-2.49,5.07l2.23-4a15,15,0,0,1-1.74,4.69c.72,1.27,3.22-7.91,2.94-4a15.43,15.43,0,0,1-1,1.46c.23,1.18,1.15.81,2,.47s1.74-.71,1.88.57c-2.37,6.34-1.71,1.08-3.61,6.46,2.26-.37,6.8-5.93,7.82-3.78l0-.82c3.91-8.71-.58,4.87,2,1.07a28.1,28.1,0,0,0-1.82,3.83c.57,1.9,3.24-1.19,6-3.28l-1.11,2.2c-.14,2.34,1.33,1.85,1.67,3.17,1.1-2.21,1.38-1.69,2.38-5.11-1.34,6.94.44,5.59,2.23,3.94s3.6-3.61,2.68,2.24c-.25-.06-1.29,1.82-1.1,1.89l2.48-1.5c1.22-4,.59-2.46,1.3-5.65,1-2.25,2.12-3.89,2.53-3.74-1.65,2.33-2.17,6.32-2.58,8.63.35-1.22.92-2.51,1.31-3.75-1.49,7.33,2.84-7.87,2.43-2.72l-.75,2.05c.8-.88,2.13-3.52,2.42-2.77-1.3,4.63-1.19,2-2.47,5.73.8,0,4.21-8.24,3.34-3.49-.7,1.19-1.13,1.08-1.84,2.25-1.06,5.58-.53,4.25-.29,5.26v-.14l.43,2.81.15-1.56c4.66-11.69,2.5-1.63,6.08-9.13-3.41,7.1-1.51,4.25-3.18,9.43a17,17,0,0,1-.74,4.74c1.84-4,0,3.61,2.61-2.3-.46,1.69.56.35-.81,4.54,1.14-1.1.68-3,1.37-5.08,1.42-2.7,1.56-.76,1.87,1s.78,3.19,2.71-.58c2.33-2.9,4.12-8.56,6.14-11.09a20.11,20.11,0,0,1-2,6.09c.05,2.68.71,2.36,1.88.58a22.61,22.61,0,0,0-1,4.7c.65-.31,1.93-6.1,2-3.42-.59,1.87-1.52,4.87-2.27,6.7,1.05-1.4,2.48-4.42,3.51-5.79-.55,3-1.51,4.4-2.23,6.28,1.09-1.15,2.62-2.2,4-6.85l-.07-1.8c.32-.16-.83,4.08-1.24,4.89-1.54,3.52-.53-1.87-.14-3.59l.74-1c2-10.12-2.24,1.14-3.06.32l2.24-7.16-2.49,5.78c.29-1.94,1.21-6,1.93-7,.28-3.74-1.25,2.43-.76-1.7a3.88,3.88,0,0,1,.36-1.25l-1.2,2c.52-1.49,1.25-5.14,1.35-4,0-4.45-3.26,5-2.2-.61l.21-.42c-2.22,2-1.6,5.28-4.52,11.17l2.89-13.3-1.65,5.25c-.1-.24-.31-.74.36-2.83-1.63,3.43-.56,2.33-1.88,5.64.62-5-2.81,1.59-.5-6.86-1.46,3.92-.18,3.31-1.83,5.85,2.46-9.1-1.42,1.25-.88-3.1,1.64-4.59,1.54-1.93,2.11-6.29-2.82,7.73-.81-2.13-1.84-.8-2,6.23-2.08,2.22-3.73,4,.74-2.08-.75-3.95-.87-6.52l.38-1c-2.28,6.2-2.81,4.69-3.93,5.73a33.37,33.37,0,0,1,2.88-6.7l-.63-.2a9.81,9.81,0,0,1-2.05,3.5l1.78-4.61c-.9,0-3.61,4.89-3.56,1.39-1.64,4.31-3.46,12.4-5.7,14.86.8-2.36,2.21-6.38,2.86-7.23-.2.27-1.06,1.82-.9.75l1.9-3.78c.13-1.91-1.46,3.2-1.73,2.69,1.23-3.34.58-2.49,1.61-5.12.21-.28-.16,1.5.46.25a13.32,13.32,0,0,1,.73-5.52c-.66,1.91-1.65,4.49-2.14,4.81-.93-.06,1.2-4.11,1.37-6-1.07,2.24-.69-.34-2.58,4.63-.24-.12.6-2.45,1-3.83-1.25,2-2.23-.09-3.79,5.35l0,.39c-.06.1-.09.09-.15.19h0c-3.37,4.38-1.82-4-4-2.46l.68-1.64c-1.6,1.53-2.29.34-4.37,3.62-.25-.11.68-3.24,1.61-5.14-1.15,1-2,2.77-1.77-.31,1.86-2.58.87-2.61,1.54-1.82-.21-1.75.76-4.43-2.05-.34,2.11-4.05,1.69-5.5.77-4.42l-.75,3.22c-.7.43-.92-.1-1.15-.61l2.64-5.39c.67-3.65-1.27-1.19-3,.76s-3.14,3.33-1.17-2.49c-2.19,3.6-.37,3.09-2.81,7.36-.43-1.1,2.47-9.24,2.26-9.36.44-3.47-4.7,7.45-4.79,4.89-.79,2-3.13,7.19-4.84,8.61-.43-1.09,3-8.5,4.23-9.81.26-.08,0,.57-.28,1.22a7.32,7.32,0,0,0,2-3.48l-1,1.87c.59-2.13-.51-2.4,1.27-5.44a6.47,6.47,0,0,0-1.86,4.22c.43-3.22-1.44-.78-1.47-3.1a14.87,14.87,0,0,1-1.51,3.34c-.22-3.08-2.46,3.29-3.85,3.61.94-3.19,3.75-6.81,1.54-4.9.44-2.27,2.49-5.09,3.51-6.52-2.75,3.2-.32-3.25-.43-4.17l1.24-1.28c-.74.76-.94.62-1.15.49l-1.75,3.91a4.19,4.19,0,0,1,.71-2.5c-1.58,2.33-3.13,6.39-5.48,9.47.67-2.1-2.2,1.46.37-3.59.2,2.29,2.59-5.08,3.95-5.38-.5.5-.7.36-.6-.44a4.88,4.88,0,0,1,.82-1.27c1.38-5-3.54,5.39-4.58,4.68,1.68-2.73,2.67-5.45,2.17-4.94.4.28-2.36,4.78-4,6.7.5-2.56-1.67,1.2-1.91.74l-.14,1.26c-1.7,2.71-1.86,2.15-2.86,2.75,1.18-2.19,1.3-1.25,1.65-2.3-3.32,4.59,1.6-5.72-1-2.89.73-2.09,3-5.23,3.39-6.68-2.9,3.09,1.31-4.32-1.26-1.88-1.93,3.85-1.35,3-4.09,6.22l3-1.74-4.08,4.83c.42.32,2.3-1.77,2.19-1a15.58,15.58,0,0,0-3.2,5.08c2.63-5.94-3.11,2.5-1.63-1.68l5.44-9.15c1.4-4.68-4.63,3.59-4.61.48l-.53,1.84c-2.38,3.5-1.15,0-2.48,1.19a47.5,47.5,0,0,0,3.29-6.25c-1.37,2.25-.85-.79-4.74,5.15l1.88-4.33c-.05-2.25-6.65,7.76-7.06,6.05,2.4-3,3.3-5.47,5.48-7.34-.32-.25-.27-1-1.61,1.06,1-2-3.56,3.39-2,.35-1,1.21-3.09,4.29-3.32,3.78.36-.63,1-1.47,1-1.47-1,1.47-1.93,1.59-3.75,5.1,2.51-5,1.66-5.32.71-5.48s-2-.15.22-4.38a7.79,7.79,0,0,1-3.82.56c.65-.84,1-1.44.94-1.06,1-3.33-6.45,7.93-5.39,4.14,2.8-5.07,2.36-2.12,3.29-4.13,6.65-9.63-2.18.36,1.11-5.69l.58-.43c1.81-3.6-3.89,2.63-4.27,1.31,0,0,.65-.8,1.05-1.42-4.13,4.36-6.47,5.08-8.33,5.77,3-3.45,1.85-1.65,4.5-5.47-.78.25-4.4,6-6,6.5a59.86,59.86,0,0,1,5-8.31l.87.31c3.55-5.36-1-.49-.73-1.65l1.76-2.19c-1.61-.06-6,5.46-6.79,4.14l-1.2,1.76c-5,5,1.93-3.5-1.94.06l4.26-5.7c-1.47,1-5.73,4.19-7.33,4.61,3.76-3.73,6.31-5.13,8.78-7.15-.36-.36-1.66-.68-4.09,1.86.59-.4,1.89-1.58,1.36-.61-4,3.94-6.42,5.51-7.16,4.75,8.94-10.48.11-4.39,6.46-13-4.7,2.74-1.21-4-3.26-4.71-6.59,8.49-.65-.18-7.9,8.11-.84.19-.86-.07-.42-.63l3.31-5.87c1.9-2.6,2-1.49,3.6-3.35-.21-1.32,2.82-3.74,4.29-6.35-2.56,3-4.08,3.92-3.5,2.42l-2.82,4.29c-5.07,3.31,5.34-7.62.31-4.34l2.71-2.23c-1,.5-1.48,0-2.54.17s-2.7.86-6,3.78c.79-1,2.75-3.31,3.54-3.65-.17-1.1-2.51-.12-4.49.51s-3.56.92-2.14-1.5l2-1.8c-.79.31-4,3.14-2.39.94a13.75,13.75,0,0,0,2-2c-.78.53-4,2.67-3.2,1.26l2.44-1.85c1.29-3.68-7.23,3.24-9.59,3.35,5.75-5.45,6.69-8.23,7.18-9.61l.84-.74c-.63-2.14-7.15,1.91-10.79,2.54,2.81-3.3,2.81-4.63,2.4-5.71s-1.14-2,.1-4.27a24.29,24.29,0,0,1-5.57,4.21c1-1.38-5,2.57.61-2v.21c5.25-4.83,3.23-4.3,2.93-5l-7.41,6c4.73-5.12,3-5.23,1.14-5.2s-3.81.26.78-4c-2.14,1.1-2.45.63-4.6,1.73l4-3.1c.29-1.79.45-2.65-1.44-3.14l3.1-1.94c-.23-.87-12.42,7.93-13.16,7.43l6-4.72c-1-1.17,3.51-6.26-3-3.45a15.6,15.6,0,0,1,3.14-1.85c-.27-.69,2.72-5.19-5.73,1,5.57-3.89-.32-1.66-3.27-.69l4.22-2.71c-5.69,3-7.16,4-9.19,4.13.41-.56,3.22-2.4,2.33-1.43,1.75-2.11-4.3,2.13-2.61-.15l2.87-1.47c-.12-.88-1.52.12-4.89,1.79-2,.67.19-2,3.94-4.54-2.39,1.41-5.75,3-4.92,1.93a16.07,16.07,0,0,1,2.89-1.61c2.12-2.94-6,1.45-2.3-1.92a25.34,25.34,0,0,0,2.47-1.69c.42.91.61,1.74.26,1.87,3.9-2.48,4.2-3.55,9.91-6.45-3.23,1.39-10.27,4.43-8.81,2.64.37-.27.72-.52,1.32-.91l.49-.2c.31-.39-.14-.29-.88,0,.53-.59.95-1,.89-1.24,3.26-2,1.36-1.75,1.34-2.17-4.39,2.53-3.92,1.68-7.33,4.15a.8.8,0,0,1,.87-.11,1.5,1.5,0,0,0,.54-.11l-.4.19a3.68,3.68,0,0,1,.79.68c-2.37,1-4.42,1.81-2.21,0-2.93,1.44-6,2.88-7.39,3.52,5.86-4,8.73-6.69,12.5-8.86-3,.34-2.8-1.36-11.72,2.06-1.25.21,2.3-1.53,3.6-2.27a9,9,0,0,0,2.18-.47c-2.47.46-1.65-1.31-7.8,1.21,2.4-2,5.77-2,4.35-2.64l1.92-.66c2.24-1.53,2.33-2,1.34-2.11a36.6,36.6,0,0,0-5,.5c-2,.24-3.87.38-4.53,0s0-1.19,3.08-2.71a11.81,11.81,0,0,1-2.16.93c1.24-1.1,1.42-1.84,1.19-2.46s-1-1.15-1.58-1.71-1.09-1.2-.81-1.89,1.27-1.42,3.61-2.07c1.92-.62-2.32-.53-5.55-1l5.44-.11c-2.09-.22-4.21-.5-6.28-.84-2.24-.66,1.13-1,4-1.11a23.26,23.26,0,0,0,3.12-.23c.43-.13,0-.37-2.13-1l-3.63-.51c.38-.16-.08-.62-.13-.94s.38-.47,2.4.08c-.64-.2-3.65-1.09-1.75-.78l2.75.72c-1.47-.74-2.93-1.56-4.36-2.46,1.1-.16,3.79.85,6.27,1.69s4.83,1.61,5.22,1.41c-.46-.31-2.31-1.27-4.22-2.33a52.26,52.26,0,0,0-4.81-2.48c-.2.12-1.81-.23-4.44-1.32q-.58-.54-1.14-1.11c-3.8-1.77-7.59-3.68-11.19-5.25s-7-2.74-10.22-2.67c1.35,1.21,2.72,2.36,4.13,3.46-1.34-.31-2.68-.61-4-.89l.31-1.47c-3.89-.59-.94,1.18,1.05,2.46a13.73,13.73,0,0,0-4.49-.74q3.54,2.14,7.16,4c-3.21-.7-6-2.6-8.1-1.94a17.94,17.94,0,0,0,5.15,1.55,9,9,0,0,1,4.14,1.6c-3.88-.29-6.84-1.19-3.93.47a9.76,9.76,0,0,1-4.24-1.49c2.26,1.45.57,2.62,4.86,3.86-2.39,0-2.22.76-2.41,1.34s-.76,1-4.69.47c1.85.56,6.05,2.24,6.32,3-4.68-1.08-4.88-.38-5.17.52s-.63,1.9-5.71,1.58c4.26.7,5.21,1.65,5.7,2.71a8.72,8.72,0,0,0,.74,1.59,4,4,0,0,0,2.24,1.3c-.68-.05-2.07-.14-1.65-.33-.62,1-3.16,1.56-4.7,2.42,7-.56,8.77.75,13.21.79a24.08,24.08,0,0,1-7.41,1.21,33.24,33.24,0,0,0-7.31.55c5.65-.82,6,1.26,10.61.07-4,1.56-1.89,1.06-7.56,2.6,8.69-1.5,1.61.6,7.08.17-4,2.11-8,2.11-5,2.89a8.92,8.92,0,0,1-3.83.87A10.76,10.76,0,0,1,206.27,604Zm25.48,21.34-.09.05-.51-.31A4.71,4.71,0,0,0,231.75,625.29Zm1.18,1.76a1.27,1.27,0,0,0-.32-.89c1.46-1,3-1.85,3.06-1.62C234.62,625.05,234,626,232.93,627.05ZM261,605.66c.75-.14-.07.43-1,1a1.85,1.85,0,0,0-.75-.08l-.55.29C259.58,606.39,260.38,606,261,605.66Z" transform="translate(-38 -38)"/><path class="cls-5" d="M255,608.57c-.11,0-.31.11-.37.09-.36.27-.67.5-.91.7l1.42-.71S255.05,608.59,255,608.57Z" transform="translate(-38 -38)"/><path class="cls-5" d="M375.63,718.48v-.12c0,.2-.09.4-.18.7Z" transform="translate(-38 -38)"/><polygon class="cls-5" points="203.37 617.85 204.37 617.06 203.38 617.61 203.37 617.85"/><path class="cls-5" d="M379.67,738.4a7,7,0,0,0-.28,1.28A11.76,11.76,0,0,0,379.67,738.4Z" transform="translate(-38 -38)"/><path class="cls-5" d="M383.82,741l.1,1.91A8.1,8.1,0,0,0,383.82,741Z" transform="translate(-38 -38)"/><path class="cls-5" d="M386.58,744.43c.31-.84.52-1.47.71-2.06v0Z" transform="translate(-38 -38)"/><path class="cls-5" d="M329.88,726.64a.38.38,0,0,0-.24.13C328.86,727.46,329.25,727.23,329.88,726.64Z" transform="translate(-38 -38)"/><path class="cls-5" d="M350.81,724.14a22,22,0,0,1-1.54,1.92C349.38,726.54,349.55,726.74,350.81,724.14Z" transform="translate(-38 -38)"/><path class="cls-5" d="M309.56,721.44l.05-.08s-.06,0-.1-.06Z" transform="translate(-38 -38)"/><path class="cls-5" d="M348.59,725.64c-.16,1,.16,1,.68.42C349.19,725.65,349.15,725.05,348.59,725.64Z" transform="translate(-38 -38)"/><path class="cls-5" d="M401.47,750.9l.13.25c.07-.33.15-.59.21-.79Z" transform="translate(-38 -38)"/><path class="cls-5" d="M401.81,750.36l.33-.53C402.05,749.81,402,749.83,401.81,750.36Z" transform="translate(-38 -38)"/><path class="cls-5" d="M402.84,748.69l-.7,1.14C402.28,749.88,402.41,750.07,402.84,748.69Z" transform="translate(-38 -38)"/><path class="cls-5" d="M397.28,747.43l-.52,1.77C396.89,748.84,397.06,748.27,397.28,747.43Z" transform="translate(-38 -38)"/><path class="cls-5" d="M395.7,747.58c.23.49-.14,4,.64,3l.42-1.4C395.83,751.78,396.82,744.68,395.7,747.58Z" transform="translate(-38 -38)"/><path class="cls-5" d="M396.1,724.13l.68,1.75c.35-1.94.83-4.54,1.45-4.84C398.5,715,397.3,725.32,396.1,724.13Z" transform="translate(-38 -38)"/><path class="cls-5" d="M393.55,720.39c.84-.7.82-2.72,1.18-3.77A6.4,6.4,0,0,0,393.55,720.39Z" transform="translate(-38 -38)"/><path class="cls-5" d="M369.79,711.69l1.85-4.22C371,707.91,370.94,709.11,369.79,711.69Z" transform="translate(-38 -38)"/><polygon class="cls-5" points="317.61 693.55 316.91 696.36 318.84 692.6 317.61 693.55"/><polygon class="cls-5" points="328.5 662.42 328.95 661.91 327.57 663.1 328.5 662.42"/><path class="cls-5" d="M329.88,681.56l-3.07,4.76C327.64,685.66,331.27,680.42,329.88,681.56Z" transform="translate(-38 -38)"/><path class="cls-5" d="M311.9,675.55c1.6-2.35,2.35-4.1.37-2.12C312.34,674,311.28,676,311.9,675.55Z" transform="translate(-38 -38)"/><polygon class="cls-5" points="242.11 593.38 243.81 592.45 242.16 592.94 242.11 593.38"/></g><g class="cls-2"><path class="cls-5" d="M203.31,491.08c.66,1.41,2.1,4.6,2.33,3.74q-1-2.81-1.83-5.68A14.2,14.2,0,0,0,203.31,491.08Z" transform="translate(-38 -38)"/><path class="cls-5" d="M209.38,500.64c0-1.44.06-3.44.24-5.75a39.16,39.16,0,0,0,.07-7.69c-.51,2.87-.67,3.71-.86,4.7a19.88,19.88,0,0,0-.11,5.52c-.12.38-.34-.07-.65-.86a20.9,20.9,0,0,1-.87-3c.08.77-.21.5-.45.52s-.41.32.11,2.12c1.06,2.07,1.54,3.17,1.78,3.28s.22-.83.38-2.76C209.28,498,209.27,499.55,209.38,500.64Z" transform="translate(-38 -38)"/><path class="cls-5" d="M204.08,511.84l.72,0A3.17,3.17,0,0,0,204.08,511.84Z" transform="translate(-38 -38)"/><path class="cls-5" d="M201.72,523a4.22,4.22,0,0,0-1.28.12A4.56,4.56,0,0,0,201.72,523Z" transform="translate(-38 -38)"/><path class="cls-5" d="M195.87,526.45a3.27,3.27,0,0,0,.36-.23C195.71,526.4,195.43,526.53,195.87,526.45Z" transform="translate(-38 -38)"/><path class="cls-5" d="M204.08,511.84l-1.91.15C204.1,512.15,203.62,512,204.08,511.84Z" transform="translate(-38 -38)"/><path class="cls-5" d="M218.92,488.77a3.91,3.91,0,0,0-1.26,1.09,2.79,2.79,0,0,1,.76-.29Z" transform="translate(-38 -38)"/><path class="cls-5" d="M200.35,506.32v-.09l-2.36-.56Z" transform="translate(-38 -38)"/><path class="cls-5" d="M206,506.39h0Z" transform="translate(-38 -38)"/><path class="cls-5" d="M209,505.81l.05-.06Z" transform="translate(-38 -38)"/><path class="cls-5" d="M198.59,509l-1.81-.2C197.41,508.86,198,508.93,198.59,509Z" transform="translate(-38 -38)"/><path class="cls-5" d="M245.45,589.12l-.9,0A6.72,6.72,0,0,0,245.45,589.12Z" transform="translate(-38 -38)"/><path class="cls-5" d="M220.23,591l-.27-.06-2.82-.21Z" transform="translate(-38 -38)"/><path class="cls-5" d="M190.61,531.5l.09,0C190.13,531.58,190.24,531.58,190.61,531.5Z" transform="translate(-38 -38)"/><path class="cls-5" d="M198.88,550.87c4.42-1,5.8-.54,10.69-1.72C207.62,549.5,201.73,550.1,198.88,550.87Z" transform="translate(-38 -38)"/><path class="cls-5" d="M218.88,489.53a.84.84,0,0,1,.49.24C219.25,489.5,219.09,489.43,218.88,489.53Z" transform="translate(-38 -38)"/><path class="cls-5" d="M209.57,549.15h0l.47-.12Z" transform="translate(-38 -38)"/><path class="cls-5" d="M194.94,535.68l2.13-.61C196.56,535.2,196,535.37,194.94,535.68Z" transform="translate(-38 -38)"/><path class="cls-5" d="M200.82,529.92l-.63.29A2.64,2.64,0,0,0,200.82,529.92Z" transform="translate(-38 -38)"/><path class="cls-5" d="M202.38,535.91c-.37.15-1,.34-.37.25l.6-.18C201.93,536.13,201.61,536.17,202.38,535.91Z" transform="translate(-38 -38)"/><path class="cls-5" d="M202.92,538.05l1-.28h-.28Z" transform="translate(-38 -38)"/><path class="cls-5" d="M243.29,580.9c-1.42,0-3,.05-4.55.05C242.34,581,243.62,581.38,243.29,580.9Z" transform="translate(-38 -38)"/><path class="cls-5" d="M217.49,491.24a5.29,5.29,0,0,1,1.39-1.71,1.23,1.23,0,0,0-.46,0A10.72,10.72,0,0,0,217.49,491.24Z" transform="translate(-38 -38)"/><path class="cls-5" d="M241.12,526.34l-.62.6C241,526.7,241.16,526.49,241.12,526.34Z" transform="translate(-38 -38)"/><path class="cls-5" d="M242,561.88l.61,0C242.71,561.88,242.56,561.86,242,561.88Z" transform="translate(-38 -38)"/><path class="cls-5" d="M241.53,528c-1.72.5-2.71.82-3.35,1l1.28-.25Z" transform="translate(-38 -38)"/><path class="cls-5" d="M238.69,581h0Z" transform="translate(-38 -38)"/><path class="cls-5" d="M250.65,584c.16-.41-6.5-.38-10.32-.57-1.86-.52,4.91-.09,8.31-.16-1.75-.36-7.85-.74-7.58-.95,1.09,0,1.49,0,2.86.06-5.28-.43-.24-1-6.88-1.43.59,0,1.15,0,1.65,0-3.33,0-6.72,0-9.12-.09-.11-.17-4.2-.37.15-.38a17.75,17.75,0,0,0,3,.21l-1.89-.21c6.25-.07,2.16.28,6.78.35-2-.4-7.19-.86-5.42-1.11,6.11,0,2.05.66,7.49.36l-2.34.39c9.65-.2-.68.26,9.64.09,1.78-.57-3.1-.69-1.31-1.25-3.4-.15-5,0-8.42-.14-6.1-.82,15.38-.57,7.23-1.2-4.07-.17-11.81-.22-7.72-.63l6.91.13c.68-.57-9.93-.29-5.29-.88,2.72.09,2.29.42,3.12.34,5.45-.41-3.93-.25-3.93-.53l6.12-.1c-1-.59-5.39-1.19-6.51-1.8,1.82,0,3.73.08,5.6-.1-3.06-.77.71-1.76,4.32-2.69l-5.29-.15a23.75,23.75,0,0,1,3.4-.16c2-.37-3.35.09-5.43,0-.37-.16,3-.32,4.62-.26-4.49-.43-9.69-1.19-4.06-2l1.58,0c2.12-.54-10.85,0-5.94-.65l.94,0c2.23-1.07-2.66-1.84,5.27-3-7.61.32,3.33-1.18-7.27-.57,5.22-.88,7.12-.84,10.59-1.88.47-.25-6.63.15-7.76,0l5.53-.4-5.83.07,6.61-.68-1.44-.13a32,32,0,0,1-4.07.5c-2.53-.18,3.79-1.21,6.62-1.45l-4.75-.52a41.33,41.33,0,0,1,4.43-.08c-5.68,0,5.82-.58.61-.59-1.25.17-3.29.25-4.41.34,3.32-.5,3.32-1,1.87-1.26l3.81-.27c.91-.77-2-1.26-2-2a55.51,55.51,0,0,1-9,.9l5.82-.68c-3.62.23-2.18.45-6.62.62.65-.34,6.61-.87,8.53-.9l-2.06-.13c1.74-.2,2.67-.22,4.89-.42-3.64.24,5.79-1.22-.52-.76l1.73-.2c0-.78-2.06-.9-2.43-1.48-5,.57-4,.2-8,.5,1.55-.62,5.43-1.59,4.94-2.08-2.54-.06-4.26.42-7.27.63,4.57-.6,4.08-1.08,7.4-1.22-.83-.55-1-.71-4.83-1-1.86.34-2.66.54-4.22.7-.78,0,1.87-.58,4.06-.86l.48,0c-3.49,0-.23-.94,2.68-1.87s5.51-1.82.7-1.47l.48,0h-5.06c.74-.46,3.45-.32,6.23-1-7.71.38.91-1.46-4.26-1.31,13.33-2.75-1.26-1.67,7.18-3.84l-3.15.59c-3.12.37,1.77-.54,2.47-.8-2.45.45-2.8.7-4.54.89-4.05-.82,4-4,6.54-6.19.72-.77-16.3,3-9,.72l5.87-1c-7.24.3-.28-2.45-6.43-2.28a24,24,0,0,1,3.1-.5c4.16-1.18,0-.94-3.43-.15.35-.27,3.1-.75,4.82-1.25,2.44-.82-5.51.63-1.35-.46a10.43,10.43,0,0,1,1.72-.28c-2.08.31.34-.85-4.48.43,2.21-1-2.35-.29.44-1.31-5.47,1.09,2.43-1.34-5.24.45,7.92-1.9,6.2-2.3,2.42-1.64,2.41-.5,2.42-.85,5.75-1.57-.18-.28-1.72-.19-5.76.89,9.3-3-7.88.85,4.13-2.58a58.15,58.15,0,0,1-9.6-.12c7.84-2.11,1,.66,9.23-1.6-3.44.1-10.26,1.52-8.58.27a30.25,30.25,0,0,1,4.78-1.14c-3.44.15.29-1.67-4.15-1.11a21.73,21.73,0,0,1,2.15-.47c-.29,0,1.05-.63-2.48.41l1-.15c-5.09,1.69-10.89,2.62-13.61,3.4,10.21-2.76,2.37-1.37,15.28-4.81a42.37,42.37,0,0,0-4.76,1.22,26,26,0,0,1,4.76-1.45c-2.07.1-5.78,1.39-5.82,1,1.71-.52,2.4-.63,4.42-1.19-3.4.79-6.79,1.58-5.45.81A14.89,14.89,0,0,1,229,519a1.37,1.37,0,0,0-.58,0c-.29,0-.65.12-1.07.2l-2.75.57c-1.8.36-3.16.5-1.59-.12,7.57-1.8,2.44-.75,9-2.35l-2,.33-3.17.81c.08-.16-4.77.72-2.65.1L227,518l-1.33,0-2.46.69c-3.47.48-8.36,1.72-6.61,1a26.65,26.65,0,0,1,3.91-1.09h0c-2.14.27-4.42.5-2.8,0,2.13-.38,7.4-1.13,8.82-1.38-5.62.78-1.64-.15-7.66.5,1.42-.13,4.95-.59,5.66-.7l-4.58.5c1.44-.28,2.15-.37,5-.7.79-.35-8.54,1.09-4.91.32.37,0,1.05-.1,1.76-.12.93-.27.18-.35-.53-.45s-1.39-.24-.27-.48c6.83-.5,1.7.14,7.46-.35-.64-.1-2.71-.15-4.42-.3s-3.07-.37-2.26-.59L221,515c-4.85,0-3.65-.12-1.81-.23s4.31-.17,2-.33c.71.07,5.38.17,4.3.14,1.57-.2-2.37-.53-5.32-1.24l2.47.23c2.24,0,1.35-.32,2.51-.38-2.45-.29-2-.36-5.62-.68,7.08.46,5.23.12,3.16-.48s-4.42-1.35,1.37-.52a7,7,0,0,0,1,.28l.72.15a1.44,1.44,0,0,0,.33.05c-.71-.26-1.42-.51-2.12-.82-4.09-.79-2.48-.45-5.68-1-2.4-.54-4.24-1.11-4.2-1.27a36.68,36.68,0,0,0,4.54,1c1.6.27,3.14.54,4.3.66-1.26-.23-2.62-.58-3.89-.83,7.35,1-8.2-1.7-3.2-1.28l2.14.41c-1.06-.44-3.88-1.05-3.24-1.15,4.79.53,2.19.52,6.11,1.13a18,18,0,0,0-4-1.11c-1.62-.36-2.61-.54-.21-.51,1.33.26,1.32.49,2.62.81,5.67.19,4.25-.1,5.17-.43l-.13,0a19.43,19.43,0,0,0,2.6-1l-1.54.26c-6.26-.57-6.82-.71-6.87-1.05,0-.15.09-.32-.31-.45a9.42,9.42,0,0,0-3.39-.16c2-.13,3.21-.11,4.09-.14a9.15,9.15,0,0,0,1.77-.16,21.41,21.41,0,0,1,4-.74c1.46-.57,3-1.63,4.55-1.69-2.25-.11-1.47-.54-1-1.12s.69-1.23-2.54-.76c1.65-.59-.11-.84,4.09-2.17a2.33,2.33,0,0,0-2.28.51,9.65,9.65,0,0,1-2.61,1.42c-3.06.35-1.6-.85-.67-2.43.47-.76.81-1.56.52-2s-1.21-.53-3.14.32a16.16,16.16,0,0,0-5.76,2.91,57.43,57.43,0,0,0-4.66,3.78,33.58,33.58,0,0,1,2.75-3.24,18.89,18.89,0,0,1,1.6-1.44c.67-1.16.71-1.78.45-1.93s-.89.17-1.7.86a18.2,18.2,0,0,0,2.33-4.2c-.44,0-1.33,1.33-2,2.34s-1.16,1.7-.94.37a36.71,36.71,0,0,1,3.88-5.94c-1.84.86-4,3.53-5.2,4.83a10.73,10.73,0,0,1,1.29-3.49c.55-.91,1.21-1.63,1.78-2.48a8.46,8.46,0,0,0-3,1.73,7.68,7.68,0,0,0-2.08,4.85,14.23,14.23,0,0,1,.33,1.78c-.28.21.32-4.15.82-5,.84-1.8,1.28-1.27,1.21-.13a20.81,20.81,0,0,1-.64,3.77,9.69,9.69,0,0,0-.76,1c-.87,5.09-.85,4.66,0,3.25a17.28,17.28,0,0,1,1.67-2.32c.61-.68,1.15-1.1,1.26-.86-1.38,2.08-2.67,4.22-3.89,6.39a34.15,34.15,0,0,1,3.65-5,69.65,69.65,0,0,1-4.05,6c-1,1.55-.64,1-.26.51s.77-.88-.51.74l-.34.41,0,.05h0l.09-.11.18-.21c.25-.28.5-.55.76-.82l-1,1.1-.14.15h0l.05-.06a3.56,3.56,0,0,1-.44.45v0l-.08.07,1.69-1.24a47,47,0,0,1,6.23-4.09q-2.73,2-5.58,3.85l-2.41,1.52h0l1.34-.78a4.64,4.64,0,0,1-.55.35l-.77.42,1.58-.82c.5-.26,1-.55,2.57-1.32-2.19,1.25-1.63,1-1.49,1.09s0,.09-.55.31c-.29.11-.71.26-1.33.45l-.24.08-.11,0h0l.07,0,1.17-.38a17.34,17.34,0,0,1,2.49-.72c-2.25.69-3.29,1-3.63,1.09l.5-.13c1-.26,2.7-.43.56-.06l-.69.1-.07,0,.08,0,.14,0h.17l-3,.25-.52,0h.28a7.09,7.09,0,0,1,.87,0c.14,0-.28.07.8.22-2.18-.16-3.6-.13-5.93-.5l-1.08-.19c3.25.58,4.56.88,5.22,1.08a5.74,5.74,0,0,1,1.29.64c-3.88-.82-5.38-1.21-7.08-1.73l0,.3a18,18,0,0,1,3.81,1.2l-4.83-1.06c.14.59,5.5,2,2.1,2,2.28.38,5.48.78,8.48,1.24a67.86,67.86,0,0,1,7.26,1.38c-2.48-.37-6.71-1-7.69-1.3.31.1,2,.47.94.39l-4.1-.85c-1.89,0,3.44.66,3,.78-3.53-.53-2.55-.24-5.35-.67-.32-.11,1.5,0,.14-.25a28,28,0,0,1-5.54-.14,35.28,35.28,0,0,1,5.17.88c.17.47-4.28-.39-6.16-.33,2.44.41-.17.44,5.12,1a33.62,33.62,0,0,1-4-.21c2.29.5.48,1.23,6.17,1.43l.38,0,.22.06h0c2.58.56,1.78.82.62,1.12s-2.7.64-1.58,1l-1.77,0c2,.48,1.18,1,5,1.28a34.79,34.79,0,0,1-5.35.31c1.35.34,3.33.28.44.88-3.13-.24-2.74.23-2.3-.29-1.5.51-4.34.81.56,1.06-4.57.07-5.69.73-4.31.89l3.22-.57c.69.21.3.46-.05.72l-6,.33c-3.57.86-.41,1.17,2.13,1.33s4.47.27-1.5,1.51c4.2-.3,2.82-1,7.73-1.36-.73.49-9.14,2.27-9.12,2.47-3.13,1.28,8.78-.8,6.69.22a70.52,70.52,0,0,1,9.76-1.57c-.69.48-8.66,2.28-10.42,2.33-.2-.08.45-.26,1.16-.4a12.65,12.65,0,0,0-4,.61l2.12-.35c-2.09.65-1.69,1.29-5.16,1.87a10.23,10.23,0,0,0,4.49-1.08c-2.87,1.28.16,1-1.68,2.1a23.57,23.57,0,0,1,3.53-1c-2.3,1.54,4-.61,5.11-.33-3.05,1.18-7.54,1.94-4.73,1.81a31,31,0,0,1-7.15,1.95c2.08-.24,1.51.22.36.86s-2.95,1.21-3.29,1.41l-1.7.32c1-.18,1-.09,1,0l4.06-1.34a10.41,10.41,0,0,1-2.38.92c2.71-.7,6.78-2.13,10.51-3-2,.76,2.36-.23-3.06,1.43,1.72-1-5.45,1.67-6.43,1.58.67-.13.67,0,0,.28a13.37,13.37,0,0,1-1.45.38c-4.74,1.84,6.2-1.64,6.2-1.17A28.13,28.13,0,0,0,191.7,532a60.15,60.15,0,0,1,7.49-2.1c-2.31,1,1.86-.22,1.63,0l1.07-.49a10.3,10.3,0,0,1,3.75-.65c-2.39.7-1.7.29-2.73.67,5.46-1.33-5.45,2.09-1.72,1.36-2,.73-5.77,1.64-7.15,2.16,4.08-.79-4.11,1.53-.72.95a50.11,50.11,0,0,1,7.2-1.85l-3.08.23,6.13-1.3c0-.2-2.72.34-2,0a44,44,0,0,0,5.8-1.54c-6.13,2,3.76-.51-.36,1l-10.26,2.81c-4.46,1.66,5.47-.69,3,.56l1.74-.66c4.1-1,.66.19,2.36-.07-3.44.9-4.66,1.34-6.77,2,2.54-.68-.13.45,6.75-1.29l-4.47,1.42c-1.74.91,10-2,8.89-1.26-3.78.81-6.17,1.63-8.92,2,0,.15-.6.44,1.79-.16-2.14.62,4.74-.77,1.5.18,1.53-.31,5.15-1.19,4.9-1-.7.19-1.71.42-1.71.42,1.71-.42,2.39-.31,6.17-1.4-10.66,3.1,1.1,1.12-8.07,3.72a7.78,7.78,0,0,1,2.77.4c-1,.23-1.73.4-1.38.26-3.13,1.14,10-2,6.51-.73-5.55,1.5-3.08.44-5.17,1.07-11.4,2.64,1.67.2-4.92,2l-.69.08c-3.83,1.08,4.45-.4,3.71.17,0,0-1,.2-1.72.37a41.93,41.93,0,0,1,9.63-.86c-4.51.82-2.41.33-6.94,1.36.68,0,7.29-1.59,8.64-1.51-2.43.62-4.52,1.31-9.37,2.34l-.33-.25c-6.25,1.46.3.35-.76.74l-2.75.54c1,.28,7.91-1.11,7.52-.48l2.07-.47c6.93-1.07-3.82,1,1.35.28l-7,1.45c1.72-.14,6.87-.65,8.25-.55-5.21.79-7.93.91-11.05,1.27,0,.19.63.51,4.09,0-.68,0-2.41.29-1.35,0,5.53-.83,8.29-1,8.24-.62-13.56,2.45-3.22,1.61-13.72,3.76,5.13-.25-1.93,1.62-1,2.19,10.52-2,.34.16,11.19-1.68.72.07.55.16-.15.3l-6.39,1.58c-3.15.63-2.43.22-4.86.63-.77.5-4.59.9-7.43,1.59,3.88-.67,5.59-.76,4.13-.32l5-1.08c5.87-.39-9.06,1.87-3.25,1.49l-3.45.36c2.06,0,.07,1,8.86-.06-1.25.23-4.22.72-5,.72-1.22.8,9.53.12,4.21,1.37l-2.67.31c.78,0,5-.46,2.37,0-1.11.13-2.67.3-2.82.38.93-.07,4.71-.3,3.18.06l-3,.26c-3.42,1.06,7.43,0,9.33.36-7.86,1-10.36,1.75-11.6,2.13l-1.12.13c-.88.8,6.66.46,9.83.84-8.51,1.32-3.44,1.81-8.17,2.93a65.67,65.67,0,0,1,6.95-.5c-1.59.3,5.52,0-1.72.57l.13-.07c-7.09.76-5.18.9-5.35,1.17l9.47-.76c-6.86.92-5.56,1.24-4.08,1.53s3.13.54-3,1.17c2.38,0,2.37.19,4.75.19l-5.09.34c-1.26.53-1.89.78-.64,1.25l-3.65.11c-.31.31,14.69-.5,15-.21l-7.59.52c.15.55-6.49,1.42.43,1.62-1.12.05-3.32.13-3.63.06-.18.27-5.09,1.19,5.34.66-6.79.29-.65.58,2.36.78l-5,.14c6.41,0,8.17,0,10,.26-.65.11-4,.21-2.73,0-2.62.38,4.75.07,2.1.51l-3.21,0c-.38.3,1.34.22,5.08.28,2,.13-1.25.6-5.78.76,2.76,0,6.47,0,5.16.25-1.71.06-2.77,0-3.29,0-3.4.57,5.85.61.93,1.05-1.66,0-2.49.08-3,.11.11-.38.38-.7.74-.68-4.62.11-5.42.42-11.81.32,3.49.15,11.06.44,8.89.78l-1.6.06-.51,0c-.46.07,0,.13.74.17a5.33,5.33,0,0,0-1.39.27c-3.82.08-2,.36-2.24.52,5.06-.07,4.25.14,8.42-.09a1.49,1.49,0,0,1-.81-.12,2.48,2.48,0,0,0-.53-.06h.45a1,1,0,0,1-.34-.38c2.57.09,4.73.2,1.92.4l8.17.14c-7,.3-10.87.73-15.22.81,2.85.44,1.89,1.06,11.4,1.39,1.22.15-2.73.16-4.23.2a21.53,21.53,0,0,0-2.17-.22c2.44.28.94.8,7.58.92-3,.32-6.11-.24-5,.24l-2-.08c-5.31.4-1.08.8,2.77,1.26s7.34,1,.52,1.33a22.94,22.94,0,0,1,2.33-.07c-3,.52-1.63,1.16-.68,1.81s1.45,1.29-3.33,1.67c-1.93.24,2.31.46,5.52.82l-5.43-.18,6.25.65c4.55.76-13.37.15-4.74,1.24l3.66.13c-.71.19,2.11.85-2.09.56.67.06,3.8.31,1.89.28l-2.84-.17,4.83.87c-2.08.29-11.26-.81-11.85-.24,1.08.29,8.22,1.22,10.12,1.28a24.22,24.22,0,0,1,4.63.07l1.46.33c8.36.63,16.91,1.45,22.78,1.25l-5.08-.77,4.06.13.23.38c3.83.06.46-.31-1.84-.6,2.16.11,3.67.15,4.48.11l-8-.93c3.28.16,6.48.6,8.31.43-3.7-.42-7.35-.27-9.77-.75,3.82,0,6.91.29,3.68-.15a38.85,38.85,0,0,1,4.46.39c-2.57-.37-1.05-.64-5.49-1,4.7.06-1.18-.77,6.74-.32a53.81,53.81,0,0,1-6.52-.92c9.46.85.6-.69,10.77-.1-8.52-.68-3.75-1.16-8.47-1.83.67,0,2,.16,1.61.19a42.12,42.12,0,0,1,4.91-.32c-7-.32-8.64-.79-13-1.16,6.81-.07,8.27.5,14.8.64-5.71-.2-5.68-.78-10.44-.83,4.22-.1,2.05-.14,7.9-.07-8.82-.34-1.49-.29-6.89-.66,4.36-.22,8.26.15,5.59-.32A36.52,36.52,0,0,1,250.65,584Zm-15.19-9.5h.1l.29.18A3.26,3.26,0,0,0,235.46,574.52Zm-.08-.76c-.2.1-.23.21-.2.34a23.73,23.73,0,0,1-3.45,0A31.53,31.53,0,0,0,235.38,573.76Zm-35,2c-.72-.09.28-.14,1.31-.16a3,3,0,0,0,.61.17h-1.92Z" transform="translate(-38 -38)"/><path class="cls-5" d="M207,575.9a2.78,2.78,0,0,1,.37,0l1.13-.08-1.58,0Z" transform="translate(-38 -38)"/><path class="cls-5" d="M204.92,511.78h-.12l.72,0Z" transform="translate(-38 -38)"/><polygon class="cls-5" points="206.54 524.57 205.26 524.66 206.39 524.65 206.54 524.57"/><path class="cls-5" d="M223,510.62a12.67,12.67,0,0,0,1.28.18C223.93,510.74,223.47,510.68,223,510.62Z" transform="translate(-38 -38)"/><path class="cls-5" d="M224.53,507.66c.61-.14,1.22-.29,1.83-.46A12,12,0,0,0,224.53,507.66Z" transform="translate(-38 -38)"/><path class="cls-5" d="M227,504.12c-.89,0-1.56.1-2.17.16h0Z" transform="translate(-38 -38)"/><path class="cls-5" d="M233.31,520.43a.67.67,0,0,0,.24,0C234.53,520.27,234.13,520.3,233.31,520.43Z" transform="translate(-38 -38)"/><path class="cls-5" d="M220.47,518.61l2.41-.29C223.24,518.18,223.33,518.11,220.47,518.61Z" transform="translate(-38 -38)"/><path class="cls-5" d="M241.2,526.27l-.09,0s0,0,0,.05Z" transform="translate(-38 -38)"/><path class="cls-5" d="M222.84,518.52c1-.26.75-.27,0-.2C222.56,518.44,222.06,518.6,222.84,518.52Z" transform="translate(-38 -38)"/><path class="cls-5" d="M212.72,486.05l-.39-.28a4.73,4.73,0,0,1-.17.8Z" transform="translate(-38 -38)"/><path class="cls-5" d="M212.16,486.57l-.52.54C211.84,487.13,212,487.11,212.16,486.57Z" transform="translate(-38 -38)"/><path class="cls-5" d="M210.63,488.29c.32-.4.65-.8,1-1.18C211.32,487.06,210.92,486.86,210.63,488.29Z" transform="translate(-38 -38)"/><path class="cls-5" d="M220,491.75l1.21-1.39A16.4,16.4,0,0,0,220,491.75Z" transform="translate(-38 -38)"/><path class="cls-5" d="M221.89,492.72a14.28,14.28,0,0,1,.67-2.07c.27-.82.27-1.57-.42-1.39l-1,1.1c1-1,.69.21.29,1.26S220.64,493.67,221.89,492.72Z" transform="translate(-38 -38)"/><path class="cls-5" d="M208.53,506.34l-.18.08h0Z" transform="translate(-38 -38)"/><path class="cls-5" d="M206.53,506.36h0l3-.25h0l-3,.25h0C206.36,506.38,206.31,506.38,206.53,506.36Z" transform="translate(-38 -38)"/><path class="cls-5" d="M200.65,515.69l-4.6.06C196.72,516,197.83,515.71,200.65,515.69Z" transform="translate(-38 -38)"/><polygon class="cls-5" points="186.74 478.29 189.62 477.96 185.35 478.24 186.74 478.29"/><polygon class="cls-5" points="154.15 482.9 153.47 482.84 155.22 483.14 154.15 482.9"/><path class="cls-5" d="M198.48,538.71l5.5-1.37C203,537.46,196.76,538.93,198.48,538.71Z" transform="translate(-38 -38)"/><path class="cls-5" d="M205.51,543.82c-2.77.62-4.52,1.15-1.77.73C204.1,544.33,206.24,543.75,205.51,543.82Z" transform="translate(-38 -38)"/><polygon class="cls-5" points="161.06 526.21 159.15 526.24 160.75 526.34 161.06 526.21"/></g></svg>