<svg id="Ebene_1" data-name="Ebene 1" xmlns="http://www.w3.org/2000/svg" viewBox="0 0 981.73 981.87"><defs><style>.cls-1{fill:#058d04;}.cls-2{fill:#2cf22c;}</style></defs><title>RNAio</title><path class="cls-1" d="M511.42,10.1c9.1.51,18.12,1.55,26.75,4.64A31.54,31.54,0,0,1,546,18.83c4.87,3.55,5.81,8.6,3,14a29.44,29.44,0,0,1-7.17,8.53c-1.92,1.68-4,3.2-6,4.8-4.59,3.71-7.74,8.34-8.69,14.24A30.31,30.31,0,0,0,528.37,74a49.5,49.5,0,0,0,5.37,12.34c3,4.8,6.36,9.42,9.57,14.11a3.18,3.18,0,0,0,2.48,1.49,394.45,394.45,0,0,1,80.45,17.48c1.66.55,2.7.38,3.7-1,1.63-2.27,3.53-4.37,5-6.76,4.54-7.57,4.52-15.26.23-23-1.49-2.66-3-5.34-4.26-8.11a22,22,0,0,1-2.3-9.07c-.06-5,2.33-8.38,7.06-10,4.31-1.49,8.76-1.32,13.12-.63a135.75,135.75,0,0,1,55.11,22,62.7,62.7,0,0,1,8.84,7.63A16.52,16.52,0,0,1,716,95.53a9.48,9.48,0,0,1-1.82,10.86,20.71,20.71,0,0,1-7.85,5.1A55,55,0,0,1,698.9,114c-11,2.65-16.89,9.76-18.46,20.76-.15,1.09-.3,2.18-.36,3.28s0,2.2,0,3.43c1,.55,2,1.11,3.09,1.64a394.39,394.39,0,0,1,66.5,42.82,6.66,6.66,0,0,0,5.51,1.69c8.69-1.22,17.23-2.94,25.25-6.68A36.25,36.25,0,0,0,790.73,174a22.13,22.13,0,0,0,6.81-18.22c-.23-3.13-.83-6.25-.87-9.38a43.37,43.37,0,0,1,.74-9.6c1.49-6.9,6.58-10,13.49-8.62a33.27,33.27,0,0,1,9.47,3.62c7.07,3.82,13.33,8.77,19.39,14A142.81,142.81,0,0,1,866,175.5a74.43,74.43,0,0,1,5.38,10.09A22.68,22.68,0,0,1,873,191.7c.83,5.57-1.77,9.83-7.08,11.77-4.24,1.55-8.65,1.59-13.08,1.18-2.62-.24-5.23-.63-7.86-.74-8-.36-14.35,2.8-19.36,8.9a46.19,46.19,0,0,0-7.75,14.82A101,101,0,0,0,813.75,247a4.81,4.81,0,0,0,1.12,3.95,396.36,396.36,0,0,1,44.33,69.15c.23.45.49.88.82,1.5,7.24-.12,14.17-1.2,20-6,3.8-3.16,5.8-7.39,7.2-12a112.05,112.05,0,0,1,4-11.23,17.37,17.37,0,0,1,3.26-4.82c3.32-3.63,7.71-4.53,12-2.19a24.53,24.53,0,0,1,6.59,5.1,79.34,79.34,0,0,1,8,10.56A139.46,139.46,0,0,1,939.93,349c.93,4.85,1.39,9.77.33,14.68-1.49,6.82-6.27,9.92-13.18,8.68-4.59-.82-8.67-2.88-12.69-5.09a43.24,43.24,0,0,0-5-2.49,20.82,20.82,0,0,0-16.12.12,36.21,36.21,0,0,0-11.76,8.19c1.83,6.08,3.7,12,5.39,17.93a385.78,385.78,0,0,1,11.55,55.79c.37,2.87.64,5.75,1.08,8.6a4.17,4.17,0,0,0,1.14,2.39c7.93,6.49,16.42,12.1,26.3,15.18,5.17,1.62,10.44,2.28,15.82.92a22.54,22.54,0,0,0,11.65-7.37c1.39-1.6,2.64-3.33,4-5a38.74,38.74,0,0,1,8.42-8.1c2.6-1.72,5.39-2.9,8.61-2.5a10.7,10.7,0,0,1,7.21,4.38,28.44,28.44,0,0,1,4.44,8.83,84.26,84.26,0,0,1,3.55,17.43c.33,3,.38,6.09.57,9.14.16,2.46.32,4.93.49,7.39v9.18c-.18,1.65-.41,3.29-.51,4.94a93,93,0,0,1-4.12,23.77,35.84,35.84,0,0,1-3.73,8c-3.93,6.15-9.85,7.35-16.07,3.55a38.34,38.34,0,0,1-9.41-8.87c-1.29-1.58-2.52-3.21-3.9-4.71-6-6.51-13.5-8.46-22-7.08a48.05,48.05,0,0,0-17.47,6.73c-4.55,2.8-8.84,6-13.27,9a3.94,3.94,0,0,0-1.74,3.18,395.69,395.69,0,0,1-17,78.77c-.28.89-.59,1.77-.88,2.66a4.66,4.66,0,0,0,0,.78c5.68,5.47,12,10,20.58,9.77a23.66,23.66,0,0,0,10.86-3.3c3-1.61,6-3.21,9.07-4.6a19.5,19.5,0,0,1,8.4-1.8,9.46,9.46,0,0,1,9.23,6.35A23.5,23.5,0,0,1,941,645.31a92.15,92.15,0,0,1-3.8,18.68,140,140,0,0,1-17,37.16,79.68,79.68,0,0,1-7.91,10,20.76,20.76,0,0,1-5.68,4.22c-4.36,2.29-8.63,1.43-12.1-2.08a21.77,21.77,0,0,1-4.73-7.79c-1-2.61-1.86-5.28-2.59-8-2.62-9.72-9-15.29-18.76-17.16-2.73-.52-5.54-.62-8.35-.91l-2.2,4.28a398.51,398.51,0,0,1-43,66.41,4.32,4.32,0,0,0-1.18,3.44c1.06,8.54,2.63,17,6.12,24.88a51.42,51.42,0,0,0,4,7.38c6,9.12,14.45,12.7,25.2,11a43,43,0,0,1,13.2-.37,21.76,21.76,0,0,1,2.25.43c7.23,1.82,10.34,6.89,8.7,14.17a39.35,39.35,0,0,1-5.6,12.48,141.27,141.27,0,0,1-23.85,28.11,120.42,120.42,0,0,1-19.31,15,81.91,81.91,0,0,1-10.27,5,17.56,17.56,0,0,1-5.46,1.09c-4.89.33-8.5-2-10.44-6.55a24,24,0,0,1-1.53-10.5c.13-3.22.51-6.43.78-9.65.8-9.3-2.88-16.51-10.32-21.94a46.8,46.8,0,0,0-11.74-6,93.48,93.48,0,0,0-20.82-4.65,4.58,4.58,0,0,0-3.79.83A397.78,397.78,0,0,1,681,859c-.3.15-.58.33-.85.49-.81,12.62,4.74,24.14,18,27.41a62.87,62.87,0,0,1,9.8,3.5,21.05,21.05,0,0,1,5.32,3.43,9.76,9.76,0,0,1,2.24,12.89,20.44,20.44,0,0,1-4.17,5.41,85,85,0,0,1-10.43,8.12,139.32,139.32,0,0,1-48.12,19.38,39.12,39.12,0,0,1-13.43.79,23.68,23.68,0,0,1-2.49-.46c-6.27-1.64-9.22-6.28-8.12-12.66a36.77,36.77,0,0,1,4.09-10.92c.8-1.5,1.68-3,2.5-4.44a21.57,21.57,0,0,0-.16-22.1,38.35,38.35,0,0,0-6.76-8.7,11.93,11.93,0,0,0-1.45.27,396.66,396.66,0,0,1-64,15.46c-5.62.88-11.27,1.52-16.92,2.2a3.54,3.54,0,0,0-2.61,1.31c-5.73,7.22-10.84,14.81-14.07,23.51a34.76,34.76,0,0,0-2.44,14.2,21.79,21.79,0,0,0,7,15.07c1.35,1.28,2.93,2.33,4.3,3.59a105.84,105.84,0,0,1,8.44,8.09,19.07,19.07,0,0,1,3.36,6.19c1.23,3.48.3,6.7-2.13,9.46a19.71,19.71,0,0,1-7.11,4.83,62,62,0,0,1-16.7,4.35,143.9,143.9,0,0,1-29,1.61c-9.42-.59-18.81-1.39-27.93-4a41.09,41.09,0,0,1-6.88-2.61,23.61,23.61,0,0,1-5.25-3.54c-3.47-3.13-4.27-7.24-2.57-11.62a20.4,20.4,0,0,1,5-7.29c2.39-2.28,4.91-4.46,7.49-6.52,4.57-3.67,8-8,9.34-13.88a28.67,28.67,0,0,0-.65-13.86A61.16,61.16,0,0,0,465.38,910c-2.16-3.25-4.57-6.34-6.84-9.51a3.27,3.27,0,0,0-2.55-1.42,393.83,393.83,0,0,1-80.94-17.61c-.4-.13-.81-.24-1.16-.34-9.42,6.81-12.74,19.88-7.66,30.09,1.48,3,3.14,5.83,4.53,8.83a22,22,0,0,1,2.31,9.32c0,5-2.43,8.4-7.13,10a26.81,26.81,0,0,1-12.61.7c-17.37-2.49-33.48-8.61-48.58-17.41a116.8,116.8,0,0,1-12.16-8.34,28.69,28.69,0,0,1-5.56-5.92c-4.22-5.82-3.11-11.77,2.77-15.88,3.67-2.57,7.86-4,12.11-5.19,1.55-.44,3.12-.83,4.64-1.36a21.08,21.08,0,0,0,13.59-13.82A39.1,39.1,0,0,0,322,859.67c-.71-.4-1.42-.83-2.15-1.21a399.41,399.41,0,0,1-68.1-43.63c-1.12-.9-2.14-1.74-3.83-1.53-9.05,1.1-18,2.78-26.25,6.78a44.83,44.83,0,0,0-9,5.69c-6.85,5.65-9.33,13.11-8.17,21.86.62,4.72,1.16,9.45.3,14.21,0,.17,0,.34-.06.5-1.32,8.07-7,11.94-14.91,9.91A39.68,39.68,0,0,1,181.6,869c-7.69-3.94-14.36-9.35-20.84-15a143,143,0,0,1-26.21-30.07,41,41,0,0,1-5.79-12.68c-1.81-7.58,1.64-13.4,10.46-14.74a46.72,46.72,0,0,1,13.46.3,30.28,30.28,0,0,0,10.14,0,22.64,22.64,0,0,0,13.33-8.33c4.28-5.23,6.81-11.32,8.67-17.72A101.36,101.36,0,0,0,188.08,754a4.78,4.78,0,0,0-1.11-3.93,379.44,379.44,0,0,1-22.65-31.41,398.2,398.2,0,0,1-21.23-36.84c-.38-.75-.8-1.47-1.22-2.24a32.68,32.68,0,0,0-16.1,3.35c-5.59,2.91-9,7.62-10.79,13.58-.94,3.08-1.8,6.2-3,9.17a29,29,0,0,1-3.61,6.4c-3.77,5-9.12,5.93-14.41,2.59a31.13,31.13,0,0,1-5.46-4.54,64.68,64.68,0,0,1-9.26-12.76,141.23,141.23,0,0,1-17.48-45.66c-.92-4.86-1.41-9.77-.34-14.68,1.46-6.67,6.26-9.82,13-8.6a36.62,36.62,0,0,1,10.89,4.15c1.72.93,3.39,2,5.13,2.83a21.22,21.22,0,0,0,20.73-.33,37.79,37.79,0,0,0,9.25-7.08c-1.73-5.71-3.49-11.29-5.1-16.9a384,384,0,0,1-11.6-55c-.48-3.54-.95-7.07-1.38-10.61a2.9,2.9,0,0,0-1-2.21c-8.15-6.49-16.72-12.27-26.87-15.18a39.77,39.77,0,0,0-8.25-1.4c-7.86-.53-14.23,2.54-19.28,8.48-1.37,1.62-2.57,3.4-4,5-2,2.15-4.17,4.22-6.38,6.2a15.43,15.43,0,0,1-3.43,2.17C27.93,551,23,550,19.5,545.37a32.1,32.1,0,0,1-3.9-7.11,65.23,65.23,0,0,1-4.09-17.81c-.68-6.33-1.24-12.68-1.51-19a108.83,108.83,0,0,1,.5-12c.55-7.63,1.39-15.23,3.55-22.6a52.31,52.31,0,0,1,3.08-8.06,19.08,19.08,0,0,1,3.4-4.73c3.08-3.21,6.86-3.84,11-2.36a18.82,18.82,0,0,1,7.34,4.94c2.5,2.65,4.89,5.42,7.16,8.28,4.31,5.45,9.67,9,16.72,9.61a32.15,32.15,0,0,0,12.54-1.67c7.38-2.29,13.94-6.17,20.22-10.59,1.18-.83,2.33-1.7,3.48-2.58,3.19-2.44,3.21-2.44,3.66-6.39A392.84,392.84,0,0,1,120,374.87c.16-.47.27-1,.4-1.41-10.07-11.2-21.71-12.58-31.49-6.95a91.67,91.67,0,0,1-8.65,4.31,25.9,25.9,0,0,1-5.35,1.57c-7.2,1.42-12.27-2.29-13.47-9.57a40.28,40.28,0,0,1,.71-14.69,140,140,0,0,1,21-50.71A64.38,64.38,0,0,1,90,289.21a20.11,20.11,0,0,1,5.09-3.76c4.59-2.46,9.22-1.57,12.63,2.38a18,18,0,0,1,3,4.66c1.41,3.35,2.52,6.84,3.74,10.27.7,2,1.23,4.07,2.12,6a20.68,20.68,0,0,0,12.26,10.85,39.74,39.74,0,0,0,12.92,2.06c.71-1.33,1.45-2.64,2.13-4a393.87,393.87,0,0,1,42.9-66.46,5.41,5.41,0,0,0,1.24-4.4c-1-8.46-2.77-16.74-6.21-24.59a39.35,39.35,0,0,0-5.77-9.57c-5.89-7.07-13.45-9.72-22.49-8.5-4.55.61-9.11,1.13-13.7.32-.25,0-.51-.05-.76-.09-8.14-1.38-11.78-6.85-9.95-14.91a34.53,34.53,0,0,1,4.1-9.83c6.87-11.67,15.67-21.77,25.58-30.92a125.37,125.37,0,0,1,19.53-15.1c3.92-2.39,8-4.51,12.56-5.39,6.86-1.33,11.64,1.58,13.51,8.34,1.15,4.17,1,8.42.58,12.66-.23,2.54-.66,5.06-.77,7.6a22.21,22.21,0,0,0,8.16,18.42c5.25,4.54,11.5,7.16,18,9.1a99.78,99.78,0,0,0,17.23,3.36,4.54,4.54,0,0,0,3.68-1.13,380.42,380.42,0,0,1,47.25-32.38c6.91-4,14-7.66,21-11.48.74-.41,1.49-.8,2.38-1.27-.08-6.35-.95-12.5-4.53-18a21.49,21.49,0,0,0-12.37-8.84,85.68,85.68,0,0,1-8.25-2.56,38.07,38.07,0,0,1-7.83-4.15c-5-3.62-6-9-2.71-14.13a34.7,34.7,0,0,1,6-6.86c5.41-4.85,11.73-8.38,18.13-11.73a138,138,0,0,1,40-13.83,36.26,36.26,0,0,1,13.18-.3c7,1.31,10.61,6.37,9.12,13.33a49.82,49.82,0,0,1-2.86,8.4,63,63,0,0,1-3.22,6.07c-4.16,7.66-4.07,15.3.36,22.78,1.47,2.46,3.44,4.62,5.14,7,.88,1.22,1.83,1.32,3.28.88,8.52-2.57,17-5.16,25.65-7.46a359.49,359.49,0,0,1,47.72-9.2c2.44-.31,4.88-.65,7.33-.89a2.85,2.85,0,0,0,2.15-1.11c6.28-7.88,11.82-16.2,14.89-25.91a31.63,31.63,0,0,0,1.65-12.55c-.65-7.14-4.26-12.55-9.76-16.93a68.89,68.89,0,0,1-7.63-6.73,28,28,0,0,1-4.75-6.86,9.59,9.59,0,0,1,2.72-12.17,28.25,28.25,0,0,1,6.48-3.95c5.86-2.64,12.15-3.74,18.47-4.56,3.62-.48,7.26-.7,10.89-1l6.22-.54h7.65ZM145.23,674.21c2.8,5.34,5.35,10.63,8.28,15.69,5.45,9.4,10.93,18.78,16.76,27.94a320.33,320.33,0,0,0,22.17,30.43,4.48,4.48,0,0,1,1.14,3.51c-.36,2.94-.62,5.9-1.07,8.82a73.79,73.79,0,0,1-8.45,25.72,32.91,32.91,0,0,1-9.84,11.18c-7.13,4.93-15,5.81-23.34,4.49a59.22,59.22,0,0,0-10.66-.26,11.07,11.07,0,0,0-3.86,1.19,4.2,4.2,0,0,0-2.57,4,16.44,16.44,0,0,0,1.84,7.85,62.51,62.51,0,0,0,8.44,13.3c4.32,5.23,8.69,10.43,13.27,15.42a109.81,109.81,0,0,0,8.31,7.5A103.65,103.65,0,0,0,182,863.11a32.72,32.72,0,0,0,9.57,4.08c4,.85,6.69-.66,7.6-4.66a20.24,20.24,0,0,0,.53-5c-.12-5-.47-10-.59-15-.16-7.38,2.84-13.53,7.81-18.77s11.42-8.46,18.17-10.92c7.53-2.74,15.38-4.05,23.3-5a5.69,5.69,0,0,1,4.57,1c5,4,10.17,7.92,15.33,11.79A285,285,0,0,0,296,839c9.69,5.63,19.59,10.89,29.43,16.23a2.78,2.78,0,0,1,1.75,3c-.23,3.21-.13,6.46-.6,9.63-1.82,12.21-9,20.7-21.18,24a58.81,58.81,0,0,0-8.46,2.74,29.24,29.24,0,0,0-5.68,3.75,3.74,3.74,0,0,0-.9,5.06,19.12,19.12,0,0,0,3,4.36c4.84,5,10.76,8.51,16.8,11.81a136,136,0,0,0,39,14.38,38.79,38.79,0,0,0,12.59.8c4.67-.61,6.57-2.76,5.61-7.32a36.25,36.25,0,0,0-2.43-7.19c-1.13-2.56-2.69-4.92-3.89-7.44a26.18,26.18,0,0,1-.69-22.17,45.25,45.25,0,0,1,10.24-14.46,2.89,2.89,0,0,1,3.39-.77c6.29,2,12.58,4.11,19,5.79,9.66,2.54,19.36,4.94,29.13,7.06,7.43,1.62,15,2.81,22.49,4,4.67.74,9.4,1.18,14.12,1.64a3.63,3.63,0,0,1,2.72,1.62c2,2.63,4.07,5.22,6,7.91a76,76,0,0,1,11.22,22.17,35.33,35.33,0,0,1,1.31,15.1c-1.06,7.89-5.34,14-11.42,18.94-2.75,2.25-5.41,4.63-7.95,7.12a15.59,15.59,0,0,0-2.77,3.93,5.22,5.22,0,0,0,1.68,7.18,26.77,26.77,0,0,0,4.9,2.68,58.29,58.29,0,0,0,14.24,3.62c3.61.51,7.23.89,10.86,1.19,4.13.35,8.28.76,12.42.73,4.31,0,8.61-.58,12.92-.84a94.27,94.27,0,0,0,16.8-2.61c3.62-.89,7.25-1.88,10.33-4.13,3.67-2.7,4.11-4.67,2-8.42a14,14,0,0,0-.83-1.28,39.87,39.87,0,0,0-8.19-8c-1.48-1.15-3-2.24-4.35-3.52-8.23-7.84-10.6-17.43-8.32-28.38,1.62-7.76,5.06-14.75,9.31-21.33,2.58-4,5.53-7.73,8.4-11.51.74-1,1.49-2,3-2.19q4.05-.37,8.07-1c7.78-1.17,15.58-2.24,23.32-3.62a371.54,371.54,0,0,0,50.44-12.91c3.59-2.23,6.09-.83,8.65,2.08a44.85,44.85,0,0,1,8.5,13.18,24.63,24.63,0,0,1,1.73,9.95,31.24,31.24,0,0,1-5,15.07,30.37,30.37,0,0,0-4.68,11.73c-.48,3.59.7,5.42,4.22,6.3,4.23,1.07,8.45.48,12.62-.27a125.66,125.66,0,0,0,22.22-6.33,132.19,132.19,0,0,0,27.76-14.32c3.43-2.33,6.8-4.8,9.14-8.37,2.53-3.86,2.13-6.17-1.65-8.82a12.59,12.59,0,0,0-2.88-1.62c-3.1-1.13-6.21-2.24-9.37-3.16-8.95-2.62-15.52-7.94-18.95-16.7a46.07,46.07,0,0,1-2.73-16.72,3.24,3.24,0,0,1,2.08-3.31c8.26-4.36,16.55-8.68,24.64-13.33a357.53,357.53,0,0,0,45.33-31c2.85-2.28,5.4-3.26,9.17-2.68,7.57,1.16,15,2.52,22.22,5.17,6.88,2.54,13.07,6.08,18,11.59a28,28,0,0,1,6.62,13.81c.84,4.35.24,8.61-.3,12.89a29.3,29.3,0,0,0,.44,11.12c1,4,3.48,5.54,7.41,4.49a36.94,36.94,0,0,0,7.6-2.84,94.43,94.43,0,0,0,19.55-14.13c4.51-4.11,8.79-8.49,13-12.91A106.84,106.84,0,0,0,862.84,821,34.7,34.7,0,0,0,868,809.42c.78-3.74-.47-6.09-4.16-7.19-4-1.2-8.1-.81-12.14-.41s-8.19,1.11-12.38.36a27.82,27.82,0,0,1-14.26-6.78c-6.67-6-10.19-13.88-12.85-22.22-2.18-6.8-3.16-13.85-4-20.91a4.23,4.23,0,0,1,.92-3.54c2.4-2.85,4.65-5.84,6.91-8.81a396.8,396.8,0,0,0,22.73-33.17,346.17,346.17,0,0,0,16.8-30.57,3.18,3.18,0,0,1,3.31-2.1,48.35,48.35,0,0,1,14.79,2c7,2.25,12.58,6.33,15.89,13a59.32,59.32,0,0,1,3.21,8.55,40.31,40.31,0,0,0,3.94,9.63c3,4.74,5.58,4.83,9.86,1.8a28.6,28.6,0,0,0,6.24-6.66,117.41,117.41,0,0,0,12.16-21.15,125.29,125.29,0,0,0,10.5-34.15,23.66,23.66,0,0,0-.3-9.62c-.89-3.28-3-4.52-6.27-4a33.74,33.74,0,0,0-11.93,4.92c-7.85,4.78-16.09,6.17-24.85,3-6.38-2.31-11.45-6.53-16.06-11.39-.85-.9-.41-1.7-.12-2.57a387.14,387.14,0,0,0,11.59-41.89c1.53-7.2,3-14.43,4.16-21.69,1.11-6.93,1.76-13.94,2.74-20.89a4.9,4.9,0,0,1,1.51-2.8,85.7,85.7,0,0,1,7.19-5.67c8.24-5.79,16.9-10.74,27-12.71a31,31,0,0,1,15.81.7c5.89,1.9,10.34,5.65,14.23,10.29,2.45,2.92,5,5.78,7.72,8.45a16.93,16.93,0,0,0,4.53,2.73,3.78,3.78,0,0,0,4.85-1,26.68,26.68,0,0,0,3.71-5.7,59.18,59.18,0,0,0,3.8-15,173.88,173.88,0,0,0,1.84-22.78c0-2.27-.35-4.56-.39-6.84A118.66,118.66,0,0,0,984,473.53a43.52,43.52,0,0,0-3.8-12.09c-3.12-6.11-6.93-6.73-12.15-2.23a65.15,65.15,0,0,0-8,8.87c-4.07,5.08-8.89,9.07-15.34,10.8a32.34,32.34,0,0,1-15.85.09c-12.67-2.92-23.09-10-32.93-18.1a5.08,5.08,0,0,1-1.68-3.81c-.32-3.54-.67-7.09-1.2-10.6-.87-5.77-1.74-11.55-2.87-17.27-1.7-8.56-3.34-17.14-5.53-25.57-2.64-10.17-5.81-20.2-8.85-30.26a2.68,2.68,0,0,1,.8-3.11,51.36,51.36,0,0,1,10.79-8.45c9.57-5.41,19.06-5.18,28.55.19,2.07,1.17,4.17,2.3,6.34,3.27a17.61,17.61,0,0,0,7.83,1.91c2.13-.07,3.68-.94,4.31-2.92a20.74,20.74,0,0,0,1.07-5.44,51.22,51.22,0,0,0-1.76-13.31,133,133,0,0,0-8.18-24.58c-3.85-8.63-8.14-17-14.13-24.39a38.55,38.55,0,0,0-6.68-6.2,4.31,4.31,0,0,0-6.16.75,18.5,18.5,0,0,0-3.22,4.81,86.24,86.24,0,0,0-3.12,9.4c-2.35,8.29-7.07,14.6-15,18.26-6.23,2.88-12.86,3.52-19.64,3.27-1.21,0-1.51-.92-1.93-1.73-2.24-4.3-4.31-8.68-6.73-12.87-5.26-9.11-10.52-18.23-16.1-27.15a347.69,347.69,0,0,0-23.71-32.78,4.52,4.52,0,0,1-1-3.76q.66-4.77,1.41-9.54a71.31,71.31,0,0,1,7.91-23.77c3.65-6.55,8.6-11.8,15.69-14.68a26.09,26.09,0,0,1,12.68-2,77.45,77.45,0,0,0,13.43.79,18.38,18.38,0,0,0,5.19-1.07,4.61,4.61,0,0,0,3.27-4.67,16.56,16.56,0,0,0-.47-3.51,35.15,35.15,0,0,0-5.25-11,139.62,139.62,0,0,0-23.22-26.91C833,147,827.16,142,820.51,138c-3.42-2-6.88-4-10.94-4.61s-6.28.88-7.1,4.91a34.76,34.76,0,0,0-.17,11.38c.56,4.37,1.1,8.72.22,13.15a27.84,27.84,0,0,1-9.36,16.22c-6.09,5.24-13.3,8.39-21,10.55A126.58,126.58,0,0,1,754,193.11c-2,.25-4,.18-5.7-1.38-2.27-2-4.77-3.81-7.18-5.69a346.14,346.14,0,0,0-39.64-26.75c-8.15-4.72-16.52-9.08-24.86-13.45-1.64-.86-2.28-1.81-2.1-3.55.38-3.62.35-7.31,1.08-10.86,2.32-11.24,8.82-18.84,20.07-22.09,3-.86,6-1.87,8.93-3a14.35,14.35,0,0,0,5.86-4,4,4,0,0,0,.76-4.7,17.42,17.42,0,0,0-4.38-5.87,78.64,78.64,0,0,0-13.55-9.45c-14.67-8.33-30.19-14.25-47-16.61a20,20,0,0,0-8.59.48c-3,.89-4.05,2.87-3.72,6a23.06,23.06,0,0,0,2.5,7.7c1.41,2.9,3.13,5.65,4.49,8.57a26.05,26.05,0,0,1,.67,21.43c-2.39,6-6.38,10.76-11,15.13a2.41,2.41,0,0,1-2.78.45c-4.83-1.6-9.65-3.24-14.54-4.65A358,358,0,0,0,570.85,111c-8.68-1.4-17.37-2.81-26.11-3.81a7.24,7.24,0,0,1-5.28-2.91c-6.41-8.09-12.11-16.62-15.46-26.48-1.92-5.64-3-11.39-2.13-17.47,1.16-7.74,5-13.72,11-18.56a98.14,98.14,0,0,0,8.58-7.57,23.33,23.33,0,0,0,3.51-5.52,3.42,3.42,0,0,0-.93-4.39,24,24,0,0,0-5.65-3.8,55.12,55.12,0,0,0-14.48-3.73c-3.94-.53-7.89-1.07-11.85-1.42a86.66,86.66,0,0,0-10.92-.48c-6,.26-12,.83-18,1.37a65.51,65.51,0,0,0-18.54,4.14,26.22,26.22,0,0,0-5.48,3.15,4.92,4.92,0,0,0-1.53,6.16A12.64,12.64,0,0,0,459,32.07a47.22,47.22,0,0,0,8.66,8.58,51.4,51.4,0,0,1,5.8,5.33,26.06,26.06,0,0,1,6.72,15.35,39.1,39.1,0,0,1-2.34,16.76c-3.68,10.4-9.78,19.34-16.74,27.76a3.67,3.67,0,0,1-2.15,1.08c-6.29.9-12.61,1.51-18.86,2.59-9.67,1.66-19.34,3.42-28.92,5.5A317.67,317.67,0,0,0,374,125.61a2.62,2.62,0,0,1-3-.61,43.57,43.57,0,0,1-10.87-15.54,24.67,24.67,0,0,1-1.67-12.23,35.11,35.11,0,0,1,5.12-13.72,29.27,29.27,0,0,0,4.16-11.13c.37-2.71-.65-4.78-3.28-5.56a18.07,18.07,0,0,0-6.23-1,84,84,0,0,0-11.79,1.71,137.2,137.2,0,0,0-36.05,13.67,89.07,89.07,0,0,0-14.63,9.67,18.47,18.47,0,0,0-5.31,6.43,4.57,4.57,0,0,0,1.16,5.77,12.33,12.33,0,0,0,3.36,2.26A108.19,108.19,0,0,0,305.22,109c9.33,2.64,16.17,8,19.65,17.25a44.68,44.68,0,0,1,2.38,16.25,3.41,3.41,0,0,1-2.14,3.51c-8.41,4.43-16.83,8.85-25.08,13.57a350.6,350.6,0,0,0-45.86,31.61,8.43,8.43,0,0,1-7.48,1.74c-.41-.07-.83-.18-1.25-.23a88.32,88.32,0,0,1-22.21-5.2,44.83,44.83,0,0,1-16.82-10.71c-5.28-5.44-7.44-12.09-7.58-19.41a75.9,75.9,0,0,1,1.11-11.1A21.54,21.54,0,0,0,199,137a4.91,4.91,0,0,0-6.32-3.61,35.1,35.1,0,0,0-7,2.28c-8.57,4.14-15.85,10.17-22.77,16.56A157.79,157.79,0,0,0,149.72,166a172.79,172.79,0,0,0-10.62,14.29,32.5,32.5,0,0,0-4.86,10.86c-1.13,4.7,1.42,6.82,4.59,7.63,3.77,1,7.61.67,11.4.37s7.33-1,11.11-.46a28.13,28.13,0,0,1,11.22,3.81,35.63,35.63,0,0,1,12.31,13.65,70.06,70.06,0,0,1,6.65,18.9,90.51,90.51,0,0,1,2.08,14.57,4,4,0,0,1-1.08,3c-1.72,2-3.41,4-4.94,6.15-6.39,9-13,17.84-19,27.07-5.47,8.38-10.37,17.13-15.36,25.81-2.54,4.41-4.77,9-7.06,13.55a2.53,2.53,0,0,1-2.51,1.66,47.25,47.25,0,0,1-14.35-1.57c-9.18-2.67-15.63-8.29-18.81-17.41-.81-2.32-1.23-4.78-2.14-7.05a59.14,59.14,0,0,0-4.11-8.7c-1.82-3-4.42-3.51-7.42-1.56a24.94,24.94,0,0,0-5,4.29A85.53,85.53,0,0,0,80.91,311.4a141.85,141.85,0,0,0-12.67,33.48,54.38,54.38,0,0,0-1.71,15.61c.27,5.5,3.37,7.93,8.61,6.33A73.38,73.38,0,0,0,84,363.08c2-.92,3.86-2.19,5.89-3a26.28,26.28,0,0,1,19.83-.45c5.7,2.11,10.31,5.75,14.66,9.9a4.39,4.39,0,0,1,1.23,5.37,335.33,335.33,0,0,0-10.1,35.45,402.26,402.26,0,0,0-8.12,47.78,3.83,3.83,0,0,1-1.4,2.83c-7.1,5.72-14.52,10.94-22.89,14.64-5.94,2.62-12.08,4.38-18.69,4.28-9.13-.13-16.32-4-22-11-1.49-1.84-2.89-3.77-4.46-5.56a27.27,27.27,0,0,0-6.89-6c-3.15-1.8-5.59-1.4-7.72,1.56a23.58,23.58,0,0,0-2.78,5.1c-3.59,9.21-4.44,18.95-5,28.68A136.32,136.32,0,0,0,17,521.35a73.3,73.3,0,0,0,3.67,15.29A21.21,21.21,0,0,0,23.6,542c1.87,2.41,3.94,3.36,6.89,1.72a20.92,20.92,0,0,0,4.94-3.52c2.65-2.74,5.06-5.71,7.51-8.63a28,28,0,0,1,20.77-10.37c5.85-.32,11.46,1.12,16.86,3.21,9.62,3.72,17.94,9.57,25.83,16.07a3,3,0,0,1,.92,1.71c.72,5.11,1.24,10.25,2.06,15.35,1.26,7.93,2.58,15.87,4.12,23.76a319.72,319.72,0,0,0,9,35c1.15,3.64,2.28,7.29,3.49,10.9a2.88,2.88,0,0,1-.69,3.45c-1.5,1.37-2.86,2.9-4.38,4.23a34.23,34.23,0,0,1-9.39,6c-9,3.74-17.7,2.93-26.06-2.1-3.79-2.27-7.68-4.33-12.14-5.05-3.69-.59-5.84.82-6.71,4.4-.94,3.92-.38,7.77.27,11.61a120.63,120.63,0,0,0,6.42,23,128.05,128.05,0,0,0,15.37,29.22,29.69,29.69,0,0,0,8,8.11c3,1.91,5,1.57,7.36-1.11a14.71,14.71,0,0,0,1.05-1.44c2.27-3.37,3.36-7.21,4.38-11.07,2.43-9.2,7.7-16,16.66-19.56A43.57,43.57,0,0,1,145.23,674.21Z" transform="translate(-9.96 -9.58)"/><path class="cls-2" d="M991.7,498.16c-.17-2.46-.33-4.93-.49-7.39l.49-.26Z" transform="translate(-9.96 -9.58)"/><path class="cls-2" d="M497.51,9.58l-6.22.54-.41-.54Z" transform="translate(-9.96 -9.58)"/><path class="cls-2" d="M511.42,10.1l-6.26-.52h6.63Z" transform="translate(-9.96 -9.58)"/><path class="cls-2" d="M145.23,674.21a43.57,43.57,0,0,0-19.15,2.61c-9,3.58-14.23,10.36-16.66,19.56-1,3.86-2.11,7.7-4.38,11.07a14.71,14.71,0,0,1-1.05,1.44c-2.36,2.68-4.37,3-7.36,1.11a29.69,29.69,0,0,1-8-8.11,128.05,128.05,0,0,1-15.37-29.22,120.63,120.63,0,0,1-6.42-23c-.65-3.84-1.21-7.69-.27-11.61.87-3.58,3-5,6.71-4.4,4.46.72,8.35,2.78,12.14,5.05,8.36,5,17,5.84,26.06,2.1a34.23,34.23,0,0,0,9.39-6c1.52-1.33,2.88-2.86,4.38-4.23a2.88,2.88,0,0,0,.69-3.45c-1.21-3.61-2.34-7.26-3.49-10.9a319.72,319.72,0,0,1-9-35c-1.54-7.89-2.86-15.83-4.12-23.76-.82-5.1-1.34-10.24-2.06-15.35a3,3,0,0,0-.92-1.71c-7.89-6.5-16.21-12.35-25.83-16.07-5.4-2.09-11-3.53-16.86-3.21a28,28,0,0,0-20.77,10.37c-2.45,2.92-4.86,5.89-7.51,8.63a20.92,20.92,0,0,1-4.94,3.52c-2.95,1.64-5,.69-6.89-1.72a21.21,21.21,0,0,1-2.91-5.33A73.3,73.3,0,0,1,17,521.35a136.32,136.32,0,0,1-1.37-28.67c.52-9.73,1.37-19.47,5-28.68a23.58,23.58,0,0,1,2.78-5.1c2.13-3,4.57-3.36,7.72-1.56a27.27,27.27,0,0,1,6.89,6c1.57,1.79,3,3.72,4.46,5.56,5.66,7,12.85,10.83,22,11,6.61.1,12.75-1.66,18.69-4.28,8.37-3.7,15.79-8.92,22.89-14.64a3.83,3.83,0,0,0,1.4-2.83,402.26,402.26,0,0,1,8.12-47.78,335.33,335.33,0,0,1,10.1-35.45,4.39,4.39,0,0,0-1.23-5.37c-4.35-4.15-9-7.79-14.66-9.9a26.28,26.28,0,0,0-19.83.45c-2,.84-3.88,2.11-5.89,3a73.38,73.38,0,0,1-8.89,3.74c-5.24,1.6-8.34-.83-8.61-6.33a54.38,54.38,0,0,1,1.71-15.61A141.85,141.85,0,0,1,80.91,311.4a85.53,85.53,0,0,1,10.91-16.55,24.94,24.94,0,0,1,5-4.29c3-1.95,5.6-1.48,7.42,1.56a59.14,59.14,0,0,1,4.11,8.7c.91,2.27,1.33,4.73,2.14,7.05,3.18,9.12,9.63,14.74,18.81,17.41a47.25,47.25,0,0,0,14.35,1.57,2.53,2.53,0,0,0,2.51-1.66c2.29-4.55,4.52-9.14,7.06-13.55,5-8.68,9.89-17.43,15.36-25.81,6-9.23,12.62-18.09,19-27.07,1.53-2.14,3.22-4.16,4.94-6.15a4,4,0,0,0,1.08-3,90.51,90.51,0,0,0-2.08-14.57,70.06,70.06,0,0,0-6.65-18.9,35.63,35.63,0,0,0-12.31-13.65,28.13,28.13,0,0,0-11.22-3.81c-3.78-.55-7.41.17-11.11.46s-7.63.59-11.4-.37c-3.17-.81-5.72-2.93-4.59-7.63a32.5,32.5,0,0,1,4.86-10.86A172.79,172.79,0,0,1,149.72,166,157.79,157.79,0,0,1,163,152.23c6.92-6.39,14.2-12.42,22.77-16.56a35.1,35.1,0,0,1,7-2.28A4.91,4.91,0,0,1,199,137a21.54,21.54,0,0,1,.93,9.28,75.9,75.9,0,0,0-1.11,11.1c.14,7.32,2.3,14,7.58,19.41a44.83,44.83,0,0,0,16.82,10.71,88.32,88.32,0,0,0,22.21,5.2c.42.05.84.16,1.25.23a8.43,8.43,0,0,0,7.48-1.74A350.6,350.6,0,0,1,300,159.58c8.25-4.72,16.67-9.14,25.08-13.57a3.41,3.41,0,0,0,2.14-3.51,44.68,44.68,0,0,0-2.38-16.25c-3.48-9.3-10.32-14.61-19.65-17.25a108.19,108.19,0,0,1-10.28-3.64,12.33,12.33,0,0,1-3.36-2.26,4.57,4.57,0,0,1-1.16-5.77,18.47,18.47,0,0,1,5.31-6.43,89.07,89.07,0,0,1,14.63-9.67,137.2,137.2,0,0,1,36.05-13.67,84,84,0,0,1,11.79-1.71,18.07,18.07,0,0,1,6.23,1c2.63.78,3.65,2.85,3.28,5.56a29.27,29.27,0,0,1-4.16,11.13,35.11,35.11,0,0,0-5.12,13.72,24.67,24.67,0,0,0,1.67,12.23A43.57,43.57,0,0,0,371,125a2.62,2.62,0,0,0,3,.61A317.67,317.67,0,0,1,411.12,115c9.58-2.08,19.25-3.84,28.92-5.5,6.25-1.08,12.57-1.69,18.86-2.59a3.67,3.67,0,0,0,2.15-1.08c7-8.42,13.06-17.36,16.74-27.76a39.1,39.1,0,0,0,2.34-16.76A26.06,26.06,0,0,0,473.41,46a51.4,51.4,0,0,0-5.8-5.33A47.22,47.22,0,0,1,459,32.07a12.64,12.64,0,0,1-1.37-2.43,4.92,4.92,0,0,1,1.53-6.16,26.22,26.22,0,0,1,5.48-3.15,65.51,65.51,0,0,1,18.54-4.14c6-.54,12-1.11,18-1.37A86.66,86.66,0,0,1,512,15.3c4,.35,7.91.89,11.85,1.42a55.12,55.12,0,0,1,14.48,3.73,24,24,0,0,1,5.65,3.8,3.42,3.42,0,0,1,.93,4.39,23.33,23.33,0,0,1-3.51,5.52,98.14,98.14,0,0,1-8.58,7.57c-6,4.84-9.81,10.82-11,18.56-.91,6.08.21,11.83,2.13,17.47,3.35,9.86,9,18.39,15.46,26.48a7.24,7.24,0,0,0,5.28,2.91c8.74,1,17.43,2.41,26.11,3.81a358,358,0,0,1,42.53,9.94c4.89,1.41,9.71,3,14.54,4.65a2.41,2.41,0,0,0,2.78-.45c4.59-4.37,8.58-9.14,11-15.13A26.05,26.05,0,0,0,641,88.54c-1.36-2.92-3.08-5.67-4.49-8.57a23.06,23.06,0,0,1-2.5-7.7c-.33-3.11.76-5.09,3.72-6a20,20,0,0,1,8.59-.48c16.77,2.36,32.29,8.28,47,16.61a78.64,78.64,0,0,1,13.55,9.45,17.42,17.42,0,0,1,4.38,5.87,4,4,0,0,1-.76,4.7,14.35,14.35,0,0,1-5.86,4c-2.94,1.08-5.92,2.09-8.93,3-11.25,3.25-17.75,10.85-20.07,22.09-.73,3.55-.7,7.24-1.08,10.86-.18,1.74.46,2.69,2.1,3.55,8.34,4.37,16.71,8.73,24.86,13.45A346.14,346.14,0,0,1,741.11,186c2.41,1.88,4.91,3.66,7.18,5.69,1.73,1.56,3.66,1.63,5.7,1.38a126.58,126.58,0,0,0,18.19-3.47c7.68-2.16,14.89-5.31,21-10.55a27.84,27.84,0,0,0,9.36-16.22c.88-4.43.34-8.78-.22-13.15a34.76,34.76,0,0,1,.17-11.38c.82-4,3-5.51,7.1-4.91s7.52,2.57,10.94,4.61c6.65,4,12.53,9,18.32,14.11a139.62,139.62,0,0,1,23.22,26.91,35.15,35.15,0,0,1,5.25,11,16.56,16.56,0,0,1,.47,3.51,4.61,4.61,0,0,1-3.27,4.67,18.38,18.38,0,0,1-5.19,1.07,77.45,77.45,0,0,1-13.43-.79,26.09,26.09,0,0,0-12.68,2c-7.09,2.88-12,8.13-15.69,14.68A71.31,71.31,0,0,0,809.6,239q-.75,4.77-1.41,9.54a4.52,4.52,0,0,0,1,3.76,347.69,347.69,0,0,1,23.71,32.78c5.58,8.92,10.84,18,16.1,27.15,2.42,4.19,4.49,8.57,6.73,12.87.42.81.72,1.69,1.93,1.73,6.78.25,13.41-.39,19.64-3.27,7.92-3.66,12.64-10,15-18.26a86.24,86.24,0,0,1,3.12-9.4,18.5,18.5,0,0,1,3.22-4.81,4.31,4.31,0,0,1,6.16-.75,38.55,38.55,0,0,1,6.68,6.2c6,7.37,10.28,15.76,14.13,24.39a133,133,0,0,1,8.18,24.58,51.22,51.22,0,0,1,1.76,13.31,20.74,20.74,0,0,1-1.07,5.44c-.63,2-2.18,2.85-4.31,2.92a17.61,17.61,0,0,1-7.83-1.91c-2.17-1-4.27-2.1-6.34-3.27-9.49-5.37-19-5.6-28.55-.19a51.36,51.36,0,0,0-10.79,8.45,2.68,2.68,0,0,0-.8,3.11c3,10.06,6.21,20.09,8.85,30.26,2.19,8.43,3.83,17,5.53,25.57,1.13,5.72,2,11.5,2.87,17.27.53,3.51.88,7.06,1.2,10.6a5.08,5.08,0,0,0,1.68,3.81c9.84,8.11,20.26,15.18,32.93,18.1a32.34,32.34,0,0,0,15.85-.09c6.45-1.73,11.27-5.72,15.34-10.8a65.15,65.15,0,0,1,8-8.87c5.22-4.5,9-3.88,12.15,2.23a43.52,43.52,0,0,1,3.8,12.09,118.66,118.66,0,0,1,2.14,19.17c0,2.28.43,4.57.39,6.84a173.88,173.88,0,0,1-1.84,22.78,59.18,59.18,0,0,1-3.8,15,26.68,26.68,0,0,1-3.71,5.7,3.78,3.78,0,0,1-4.85,1,16.93,16.93,0,0,1-4.53-2.73c-2.72-2.67-5.27-5.53-7.72-8.45-3.89-4.64-8.34-8.39-14.23-10.29a31,31,0,0,0-15.81-.7c-10.06,2-18.72,6.92-27,12.71a85.7,85.7,0,0,0-7.19,5.67,4.9,4.9,0,0,0-1.51,2.8c-1,7-1.63,14-2.74,20.89-1.17,7.26-2.63,14.49-4.16,21.69A387.14,387.14,0,0,1,875.9,627.5c-.29.87-.73,1.67.12,2.57,4.61,4.86,9.68,9.08,16.06,11.39,8.76,3.18,17,1.79,24.85-3a33.74,33.74,0,0,1,11.93-4.92c3.32-.55,5.38.69,6.27,4a23.66,23.66,0,0,1,.3,9.62,125.29,125.29,0,0,1-10.5,34.15,117.41,117.41,0,0,1-12.16,21.15,28.6,28.6,0,0,1-6.24,6.66c-4.28,3-6.84,2.94-9.86-1.8a40.31,40.31,0,0,1-3.94-9.63,59.32,59.32,0,0,0-3.21-8.55c-3.31-6.68-8.87-10.76-15.89-13a48.35,48.35,0,0,0-14.79-2,3.18,3.18,0,0,0-3.31,2.1,346.17,346.17,0,0,1-16.8,30.57A396.8,396.8,0,0,1,816,739.92c-2.26,3-4.51,6-6.91,8.81a4.23,4.23,0,0,0-.92,3.54c.88,7.06,1.86,14.11,4,20.91,2.66,8.34,6.18,16.18,12.85,22.22a27.82,27.82,0,0,0,14.26,6.78c4.19.75,8.25.05,12.38-.36s8.14-.79,12.14.41c3.69,1.1,4.94,3.45,4.16,7.19A34.7,34.7,0,0,1,862.84,821a106.84,106.84,0,0,1-12.61,16.28c-4.2,4.42-8.48,8.8-13,12.91a94.43,94.43,0,0,1-19.55,14.13,36.94,36.94,0,0,1-7.6,2.84c-3.93,1.05-6.4-.51-7.41-4.49a29.3,29.3,0,0,1-.44-11.12c.54-4.28,1.14-8.54.3-12.89a28,28,0,0,0-6.62-13.81c-4.95-5.51-11.14-9.05-18-11.59-7.19-2.65-14.65-4-22.22-5.17-3.77-.58-6.32.4-9.17,2.68a357.53,357.53,0,0,1-45.33,31c-8.09,4.65-16.38,9-24.64,13.33a3.24,3.24,0,0,0-2.08,3.31,46.07,46.07,0,0,0,2.73,16.72c3.43,8.76,10,14.08,18.95,16.7,3.16.92,6.27,2,9.37,3.16a12.59,12.59,0,0,1,2.88,1.62c3.78,2.65,4.18,5,1.65,8.82-2.34,3.57-5.71,6-9.14,8.37a132.19,132.19,0,0,1-27.76,14.32,125.66,125.66,0,0,1-22.22,6.33c-4.17.75-8.39,1.34-12.62.27-3.52-.88-4.7-2.71-4.22-6.3a30.37,30.37,0,0,1,4.68-11.73,31.24,31.24,0,0,0,5-15.07,24.63,24.63,0,0,0-1.73-9.95,44.85,44.85,0,0,0-8.5-13.18c-2.56-2.91-5.06-4.31-8.65-2.08a371.54,371.54,0,0,1-50.44,12.91c-7.74,1.38-15.54,2.45-23.32,3.62q-4,.6-8.07,1c-1.48.14-2.23,1.21-3,2.19-2.87,3.78-5.82,7.52-8.4,11.51-4.25,6.58-7.69,13.57-9.31,21.33-2.28,10.95.09,20.54,8.32,28.38,1.35,1.28,2.87,2.37,4.35,3.52a39.87,39.87,0,0,1,8.19,8,14,14,0,0,1,.83,1.28c2.12,3.75,1.68,5.72-2,8.42-3.08,2.25-6.71,3.24-10.33,4.13a94.27,94.27,0,0,1-16.8,2.61c-4.31.26-8.61.81-12.92.84-4.14,0-8.29-.38-12.42-.73-3.63-.3-7.25-.68-10.86-1.19a58.29,58.29,0,0,1-14.24-3.62,26.77,26.77,0,0,1-4.9-2.68,5.22,5.22,0,0,1-1.68-7.18,15.59,15.59,0,0,1,2.77-3.93c2.54-2.49,5.2-4.87,7.95-7.12,6.08-5,10.36-11,11.42-18.94a35.33,35.33,0,0,0-1.31-15.1,76,76,0,0,0-11.22-22.17c-1.92-2.69-4-5.28-6-7.91a3.63,3.63,0,0,0-2.72-1.62c-4.72-.46-9.45-.9-14.12-1.64-7.52-1.18-15.06-2.37-22.49-4-9.77-2.12-19.47-4.52-29.13-7.06-6.39-1.68-12.68-3.76-19-5.79a2.89,2.89,0,0,0-3.39.77,45.25,45.25,0,0,0-10.24,14.46,26.18,26.18,0,0,0,.69,22.17c1.2,2.52,2.76,4.88,3.89,7.44a36.25,36.25,0,0,1,2.43,7.19c1,4.56-.94,6.71-5.61,7.32a38.79,38.79,0,0,1-12.59-.8,136,136,0,0,1-39-14.38c-6-3.3-12-6.81-16.8-11.81a19.12,19.12,0,0,1-3-4.36,3.74,3.74,0,0,1,.9-5.06,29.24,29.24,0,0,1,5.68-3.75,58.81,58.81,0,0,1,8.46-2.74c12.2-3.3,19.36-11.79,21.18-24,.47-3.17.37-6.42.6-9.63a2.78,2.78,0,0,0-1.75-3c-9.84-5.34-19.74-10.6-29.43-16.23a285,285,0,0,1-27.75-18.47c-5.16-3.87-10.28-7.78-15.33-11.79a5.69,5.69,0,0,0-4.57-1c-7.92,1-15.77,2.28-23.3,5-6.75,2.46-13.14,5.61-18.17,10.92s-8,11.39-7.81,18.77c.12,5,.47,10,.59,15a20.24,20.24,0,0,1-.53,5c-.91,4-3.56,5.51-7.6,4.66a32.72,32.72,0,0,1-9.57-4.08A103.65,103.65,0,0,1,165.65,851a109.81,109.81,0,0,1-8.31-7.5c-4.58-5-9-10.19-13.27-15.42a62.51,62.51,0,0,1-8.44-13.3,16.44,16.44,0,0,1-1.84-7.85,4.2,4.2,0,0,1,2.57-4,11.07,11.07,0,0,1,3.86-1.19,59.22,59.22,0,0,1,10.66.26c8.38,1.32,16.21.44,23.34-4.49a32.91,32.91,0,0,0,9.84-11.18,73.79,73.79,0,0,0,8.45-25.72c.45-2.92.71-5.88,1.07-8.82a4.48,4.48,0,0,0-1.14-3.51,320.33,320.33,0,0,1-22.17-30.43c-5.83-9.16-11.31-18.54-16.76-27.94C150.58,684.84,148,679.55,145.23,674.21Zm439.64-19.27c4.06-.23,8.11-.49,12.18-.67a145.9,145.9,0,0,0,62.46-18.08,159.19,159.19,0,0,0,62.63-65.71c9.18-18.42,13.79-38,14.9-58.41.39-7.26-.07-14.57-.28-21.86a123.56,123.56,0,0,0-2.67-20.62,140.48,140.48,0,0,0-15.82-42.45,157.12,157.12,0,0,0-33-40.07,147.88,147.88,0,0,0-37.47-24.22c-17.32-7.76-35.57-11.59-54.42-12.47a170.7,170.7,0,0,0-25.67.69,152.54,152.54,0,0,0-35.4,7.81,141.84,141.84,0,0,0-39.16,21.34,164.59,164.59,0,0,0-34.66,36.27A144,144,0,0,0,439.66,455a154.77,154.77,0,0,0-6.78,39.68c-.27,6.17.14,12.38.29,18.57a129.15,129.15,0,0,0,2.7,21.9,139.93,139.93,0,0,0,15.27,41.6,158.26,158.26,0,0,0,41.92,47.95,140.37,140.37,0,0,0,41.54,22.24A162.33,162.33,0,0,0,584.87,654.94ZM352.07,545.59c0,27.37-.05,54.74,0,82.11a26.12,26.12,0,0,0,18,24.66,34.45,34.45,0,0,0,13.84,1.33c10.84-.89,18.82-6.16,23.41-16.21,2.17-4.76,2.37-9.89,2.37-15q-.07-79.53-.33-159.07a33.77,33.77,0,0,0-.72-6.8c-2.07-9.73-7.9-15.9-17.67-18.19a47.3,47.3,0,0,0-13.64-1,26.47,26.47,0,0,0-25.24,26.78Q352.14,504.92,352.07,545.59Zm28.4-199C362.39,345.44,345.33,362.23,345,381c-.34,20.24,17.06,35.74,34.49,36.23,19.27.53,36.54-16.19,36.5-35.52C416,361.85,398.16,345.38,380.47,346.55ZM335.24,614.82c.78-18.86-16-34.42-33.65-35.16-20.36-.85-36.8,15.81-37.16,34.12a35.55,35.55,0,0,0,34.32,36.36C319.37,650.8,336,633.79,335.24,614.82Z" transform="translate(-9.96 -9.58)"/><path class="cls-2" d="M679.67,500.49c0,17-2.8,31.26-9.54,44.58a95,95,0,0,1-39.29,40.8,85.33,85.33,0,0,1-36.25,10.71,133.69,133.69,0,0,1-16.5.31,90.52,90.52,0,0,1-33.37-8.19,93.3,93.3,0,0,1-27.28-19.31c-13.73-13.92-22.5-30.4-25.69-49.81a106.61,106.61,0,0,1-1.23-23.31c1.12-20,7.47-38.16,20.29-53.77,15.08-18.38,34.27-29.76,57.85-33.5a106.07,106.07,0,0,1,22.58-1,91.37,91.37,0,0,1,38.22,10.3,95.19,95.19,0,0,1,19.64,14,97.26,97.26,0,0,1,18.21,22.42,87.8,87.8,0,0,1,10.77,29.47A98,98,0,0,1,679.67,500.49Z" transform="translate(-9.96 -9.58)"/></svg>