<svg id="Ebene_1" data-name="Ebene 1" xmlns="http://www.w3.org/2000/svg" viewBox="0 0 952.45 952.48"><defs><style>.cls-1{fill:#70ed2f;}</style></defs><title>virus_green</title><path class="cls-1" d="M330.29,849.77c-7.75-4.21-15.26-8.17-22.65-12.35A368.45,368.45,0,0,1,258,803.53a5.47,5.47,0,0,0-4.31-1.34c-10.74,1.17-21.21,3.31-30.9,8.31a34.32,34.32,0,0,0-13.45,11.64c-4.06,6.24-4.83,13.16-3.91,20.39.56,4.39.9,8.81-.14,13.16s-3.28,5.5-7.57,4.72-8-2.84-11.56-5.14a135.64,135.64,0,0,1-28.38-24.64,106.77,106.77,0,0,1-13.22-17.81,39.71,39.71,0,0,1-3.26-7.26,16.55,16.55,0,0,1-.52-5.41c.06-2,1.6-3,3.32-3.65a23.21,23.21,0,0,1,9.59-1c4.12.32,8.25.9,12.38.84,9.62-.13,16.62-5.13,22-12.69a52.21,52.21,0,0,0,6.9-14.35,105.45,105.45,0,0,0,4.33-21.48,5.38,5.38,0,0,0-1.36-4.3,378.43,378.43,0,0,1-38.75-58.39c-2.44-4.54-4.81-9.13-7.3-13.88a41,41,0,0,0-18.24,2.5c-8.21,3.25-13.36,9.31-16,17.68-1.15,3.64-2.47,7.23-3.82,10.8a11.85,11.85,0,0,1-1.86,2.94c-1.91,2.43-4.72,3.06-7.31,1.37A27.76,27.76,0,0,1,99.41,702c-4.55-5-7.92-10.89-11.08-16.86a132.17,132.17,0,0,1-12.76-35.07c-1-4.72-1.78-9.5-.82-14.34a9.72,9.72,0,0,1,.85-2.59,4.11,4.11,0,0,1,3.59-2.32,15.45,15.45,0,0,1,7.73,1.66c2.79,1.28,5.47,2.81,8.19,4.26,5.84,3.11,12,4.47,18.54,3a30.61,30.61,0,0,0,11.86-5.64c2.37-1.82,4.5-4,6.76-5.91a2.56,2.56,0,0,0,.72-3.1c-2.63-8.58-5.3-17.16-7.7-25.81a310.88,310.88,0,0,1-7.48-35.11c-1.15-7.3-2-14.65-3-22a3.61,3.61,0,0,0-1-2.09c-9.2-7.7-19-14.32-30.77-17.56a31.5,31.5,0,0,0-15.78-.67,27.81,27.81,0,0,0-15.5,9.9c-2.78,3.42-5.36,7-8.92,9.72-1.59,1.2-3.2,2.34-5.37,2.39a5.51,5.51,0,0,1-4.73-2.26,20.59,20.59,0,0,1-3.85-8.06c-1.2-5-2.28-10-3-15.14a127.75,127.75,0,0,1-.95-26.15c.57-9,1.35-17.93,4.41-26.47a29.4,29.4,0,0,1,3.32-6.39c2-3,5.27-2.64,7.55-1.43a27.07,27.07,0,0,1,7.47,6.55c1.52,1.77,2.87,3.68,4.38,5.45,7.57,8.89,17.14,11.83,28.46,9.47a56.75,56.75,0,0,0,19-7.9c4.69-3,9.07-6.48,13.63-9.67a4.26,4.26,0,0,0,1.76-3.34c1.4-9.95,2.67-19.93,4.42-29.82a351.12,351.12,0,0,1,11.9-47.13c.74-2.29,1.45-4.58,2.2-6.95-5.26-5.92-11.28-10.66-19-12.72-6.87-1.83-13.33-.45-19.53,2.82-3.16,1.66-6.37,3.26-9.66,4.63a14.2,14.2,0,0,1-4.86.9c-2.79.13-4.27-1.08-5.09-3.8a20.93,20.93,0,0,1-.4-9.17,127.41,127.41,0,0,1,3-14.64A129.12,129.12,0,0,1,96.1,303.17a32.47,32.47,0,0,1,7-7.74c4.2-3.17,7.15-2.66,9.92,1.82a37.71,37.71,0,0,1,4.19,10.9,29.84,29.84,0,0,0,5.25,11.23c4.22,5.47,10,8.41,16.59,9.85a51.19,51.19,0,0,0,10.91,1,2.74,2.74,0,0,0,2.84-1.81A383.67,383.67,0,0,1,174.63,290a365.41,365.41,0,0,1,23.26-32.16,5.64,5.64,0,0,0,1.41-4.53c-1.16-10.57-3.26-20.88-8.12-30.44-2.84-5.56-6.56-10.44-11.92-13.83A27.33,27.33,0,0,0,160.89,205c-4.7.56-9.41,1.26-14.15.3-.41-.08-.82-.14-1.22-.25-3.68-1-5.15-3.35-4.54-7.13.68-4.2,2.71-7.84,4.87-11.41a117.05,117.05,0,0,1,13-17.06,134,134,0,0,1,26.87-23.36,72.66,72.66,0,0,1,8.13-4.34,17,17,0,0,1,4-1.26c4.27-.86,6.64.51,7.54,4.76a33.84,33.84,0,0,1,.6,7.92c-.09,3.31-.67,6.61-.89,9.92a25.78,25.78,0,0,0,7.09,19.83c5.1,5.54,11.56,8.9,18.56,11.33a114,114,0,0,0,20.9,4.67c3.19.47,5.4-.41,7.86-2.38a371.54,371.54,0,0,1,57.89-38.14c4.25-2.27,8.53-4.48,12.9-6.78.38-9.57-.81-18.66-7.37-26.22a25.74,25.74,0,0,0-12.54-7.8c-4.15-1.21-8.39-2.18-12.18-4.38a15.2,15.2,0,0,1-2.81-2c-2-1.91-2.29-3.82-1-6.31a19.15,19.15,0,0,1,4.77-5.71,83.54,83.54,0,0,1,15.6-10.29,134.25,134.25,0,0,1,35.95-13.25c4.81-1,9.65-1.8,14.59-.92,4.28.77,5.72,2.89,5,7.22a30.87,30.87,0,0,1-4.21,10.6,35.18,35.18,0,0,0-4.51,11.57c-1,5.93.33,11.4,3.05,16.61a43.81,43.81,0,0,0,10.16,12.45c2.79-.87,5.63-1.75,8.47-2.66a374,374,0,0,1,55-13.1c6.81-1.08,13.67-1.81,20.51-2.69a3.89,3.89,0,0,0,2.82-1.3c6.79-8.19,12.7-16.9,16.27-27C479.9,80.74,481,75,480.07,69c-1.13-7.35-4.95-13.13-10.62-17.81-2.56-2.12-5.17-4.21-7.52-6.55a21.7,21.7,0,0,1-3.61-5,5.42,5.42,0,0,1,1.78-7.27,30.06,30.06,0,0,1,10.24-4.45,112.67,112.67,0,0,1,23.18-3.16c3.74-.14,7.49-.45,11.22-.27,10.63.51,21.28,1.11,31.42,4.78a26.7,26.7,0,0,1,5.94,3.11c2.59,1.79,3.06,4.12,1.77,7-1.55,3.45-4.35,5.85-7.08,8.3-3,2.65-6.29,5-8.92,7.93-5.17,5.81-7.15,12.78-6.36,20.57,1,10,5.43,18.61,10.81,26.81,2.32,3.54,5.07,6.8,7.58,10.23a3.76,3.76,0,0,0,3,1.55A343.42,343.42,0,0,1,578.08,120a386.78,386.78,0,0,1,48.14,13c.16.05.32.07.74.17a43.7,43.7,0,0,0,9.87-11.87,27.12,27.12,0,0,0,3.76-13,24.45,24.45,0,0,0-2.75-11.55c-1.41-2.74-3.06-5.37-4.28-8.18a44.43,44.43,0,0,1-2.49-7.79c-.68-3.08.78-5.16,3.82-6a25.08,25.08,0,0,1,10.42-.26,122.14,122.14,0,0,1,34.6,11c6.46,3.08,12.84,6.37,18.53,10.77a86.3,86.3,0,0,1,7.29,6.77A6.82,6.82,0,0,1,707,105.1c1.17,2.54.82,4.84-1.45,6.45a37.42,37.42,0,0,1-6.76,3.68,43.45,43.45,0,0,1-6.17,2c-11.14,3-17.76,10.34-20.27,21.46a43.77,43.77,0,0,0-1,13L681.82,157a370.31,370.31,0,0,1,47.82,29.88c5,3.65,9.81,7.45,14.65,11.26a4.09,4.09,0,0,0,3.18,1c10.2-1.18,20.24-3,29.61-7.44,6.68-3.17,12.47-7.4,16.2-13.95a27.5,27.5,0,0,0,3.2-17.35c-.44-3.63-.61-7.29-.74-10.94a12.9,12.9,0,0,1,1.39-6.52,4.54,4.54,0,0,1,4.18-2.65c3.83-.13,7.14,1.46,10.38,3.18a91.64,91.64,0,0,1,14.94,10.38,141.25,141.25,0,0,1,27.19,29.43c2.78,4,5.41,8.22,6.55,13.11a12.19,12.19,0,0,1,.34,1.45c.58,4.21-1.06,6.49-5.2,7.35-4.82,1-9.62.39-14.4-.18a27.19,27.19,0,0,0-24.67,9.18c-5,5.53-8,12.22-10.16,19.28a116.73,116.73,0,0,0-4,20.28,4.47,4.47,0,0,0,1.19,3.62q11.12,13.66,20.83,28.38a367.76,367.76,0,0,1,22,37.7c1.08,2.15,2.22,4.27,3.41,6.56a41.34,41.34,0,0,0,9.8-.28,32.32,32.32,0,0,0,13.75-4.91c5.75-3.83,9.07-9.32,11-15.87a68.16,68.16,0,0,1,3.78-10.54c2.85-6,6.26-6.54,11.42-2.33a37.5,37.5,0,0,1,7.64,9.16,132.15,132.15,0,0,1,19.45,49.1,29.63,29.63,0,0,1,.19,10.91c-.77,3.9-2.78,5.43-6.73,4.9a29.9,29.9,0,0,1-10.87-4.2,36.07,36.07,0,0,0-9.82-4.23A25.87,25.87,0,0,0,881,364.33a44.79,44.79,0,0,0-12.68,10.24c1.29,4.06,2.63,8.15,3.88,12.27a360.62,360.62,0,0,1,11.58,49.5c1.17,7.47,2,15,3,22.47a3.92,3.92,0,0,0,1.47,2.74c8.14,6.71,16.77,12.61,26.79,16.2a36.41,36.41,0,0,0,15.92,2.4,26.79,26.79,0,0,0,17.8-9.11c3-3.27,5.66-6.76,8.67-10a17.39,17.39,0,0,1,4.62-3.31c2.85-1.5,5.25-.83,7.21,1.73a24.9,24.9,0,0,1,4.38,10.26,154.27,154.27,0,0,1,2.56,16,143,143,0,0,1,.81,17.67c-.25,9.89-1,19.78-3.89,29.33a42.65,42.65,0,0,1-3.47,8c-2,3.73-5.78,4-9,2s-5.55-4.73-7.94-7.52a64.58,64.58,0,0,0-7.27-7.85c-7.07-5.91-15.33-7.23-24.2-5.39A59.87,59.87,0,0,0,903.5,529a114.88,114.88,0,0,0-15.1,10.62,4,4,0,0,0-1.6,2.93,350.25,350.25,0,0,1-9.67,54.18c-2.42,9.33-5.34,18.54-8.18,27.75-.55,1.77-.37,2.92,1,4.17,4.57,4.31,9.38,8.17,15.46,10.25,7.54,2.58,14.56,1.38,21.4-2.24,3-1.6,6-3.24,9.13-4.58a18.21,18.21,0,0,1,5.55-1.31c2.84-.25,4.53,1.1,5.3,3.88a24.74,24.74,0,0,1,.28,10.17,119.67,119.67,0,0,1-10.57,33.94c-3.46,7.31-7.15,14.52-12.25,20.84a42.44,42.44,0,0,1-6.56,6.43c-2.81,2.26-6.37,1.8-8.55-1.64a37,37,0,0,1-4.42-10.55,32.47,32.47,0,0,0-4.46-10.51c-4.72-6.77-11.43-10.21-19.38-11.56a51.78,51.78,0,0,0-11-.56c-1.86,3.59-3.68,7.14-5.53,10.67A356.27,356.27,0,0,1,819.18,723c-5,7-10.37,13.86-15.61,20.75a4.72,4.72,0,0,0-1.27,3.6,109.52,109.52,0,0,0,4.85,23.14,49.84,49.84,0,0,0,8.47,15.75,27.2,27.2,0,0,0,21.54,10.33,79.78,79.78,0,0,0,10.65-1,23.72,23.72,0,0,1,8.41.52c4.19,1,5.81,3.41,4.73,7.55a39.29,39.29,0,0,1-3.39,8.54c-3.82,7.17-9,13.38-14.38,19.42a135.33,135.33,0,0,1-26.51,23c-3.89,2.57-7.9,5-12.61,5.82-4.45.81-6.82-.71-7.78-5.13a33.8,33.8,0,0,1-.23-10.67c.37-3.72.94-7.39.42-11.17-1.11-8.08-5.16-14.28-11.52-19.13A53.54,53.54,0,0,0,767.73,806a106,106,0,0,0-20.06-3.83A4.61,4.61,0,0,0,744,803.3a382.85,382.85,0,0,1-60.74,40.15c-3.45,1.85-6.94,3.62-10.45,5.35a2.43,2.43,0,0,0-1.58,2.48,45.71,45.71,0,0,0,2.23,15.22c3,8.85,9.16,14.45,18,17.25,3.09,1,6.21,1.9,9.23,3.07a18.64,18.64,0,0,1,4.5,2.62c2.84,2.16,3.2,4.53,1.4,7.64a23.57,23.57,0,0,1-5.92,6.35,93.82,93.82,0,0,1-15.59,9.87,132.18,132.18,0,0,1-34.6,12.59c-4.73,1-9.48,1.78-14.34.9-4.21-.75-5.57-2.69-5-7s2.85-7.94,4.76-11.73a52.83,52.83,0,0,0,3.69-8.42c2.11-7.1.56-13.81-3-20.12a52.62,52.62,0,0,0-7.86-10,3.3,3.3,0,0,0-4-.86,346.39,346.39,0,0,1-48.42,12.85c-10.28,1.91-20.68,3.26-31,4.75-4.32.61-4.35.46-7.14,4-5.67,7.14-10.64,14.69-13.9,23.27a39.48,39.48,0,0,0-3,15.58,26.52,26.52,0,0,0,9.08,19.32c2.83,2.56,5.93,4.84,8.75,7.42a26.41,26.41,0,0,1,4,4.74c2.48,3.68,1.81,6.69-1.95,9.1a35.75,35.75,0,0,1-12.37,4.5,137.82,137.82,0,0,1-36.25,2.4c-8.3-.5-16.59-1.31-24.55-3.92a34,34,0,0,1-7.23-3.31c-3.5-2.18-4-4.93-2.06-8.55s5.31-6.34,8.51-9a62.55,62.55,0,0,0,5.94-5.3c6.05-6.55,8.11-14.37,6.85-23.1s-5-16.53-9.78-23.81c-2.61-4-5.62-7.64-8.41-11.47a3.46,3.46,0,0,0-2.71-1.47,380.17,380.17,0,0,1-49.59-8.55c-10.92-2.63-21.72-5.68-32.34-9.34a3.58,3.58,0,0,0-4.33,1.07,44.42,44.42,0,0,0-9,12.47c-4,8.54-3.11,16.78,1.37,24.86a82.29,82.29,0,0,1,3.89,7.81,23.8,23.8,0,0,1,1.42,5.28,5,5,0,0,1-3.93,6,25,25,0,0,1-10.67.28,128.46,128.46,0,0,1-52.77-21.35c-2.64-1.82-4.85-4.27-7.22-6.48a6.78,6.78,0,0,1-1.15-1.62c-1.92-3.36-1.42-5.71,1.73-8s6.65-3.36,10.26-4.43a61.48,61.48,0,0,0,8.22-2.87,24.7,24.7,0,0,0,12.84-14A41.7,41.7,0,0,0,330.29,849.77Z" transform="translate(-24.62 -24.37)"/></svg>